<svg id="Capa_1" data-name="Capa 1" xmlns="http://www.w3.org/2000/svg" viewBox="0 0 389.19 237.2"><path d="M3087.07,716.26c-12.43,10.62-15.69,15.42-28.19,16.75-38.82,0-63.33.69-79.68.82-13.47,3-13-15.11-6.13-20,65.79-65.37,124.63-118.49,124.63-118.49C3121.49,575,3174,580.91,3199,581c10.37,1.21,7.31-.74,15.36,3.8,10.53,10.1-14.55,19.12-10.65,29,7.63,12.32,17.91-3.47,23.9-9.1C3241,588.18,3252,583.34,3271,581.42c101-5.46,114.44.75,36.37,59.65-19.86,16.14-53,9.62-79.28,9.81-19-.18-11.41,20.25.42,27.37,15.93,15.94,110.46,106.09,120.94,115.23,13.82,12.52,4,28.09-15.1,22.32-36.1-5.47-58.11,8.4-84.19-7.59-10.27-6.68-90.34-89.58-127.07-112.78C3113.08,696.32,3086,716.61,3087.07,716.26Z" transform="translate(-2968.37 -579.84)"/></svg>