<?xml version="1.0" encoding="utf-8"?>
<!-- Generator: Adobe Illustrator 26.0.0, SVG Export Plug-In . SVG Version: 6.00 Build 0)  -->
<svg version="1.1" id="Capa_1" xmlns="http://www.w3.org/2000/svg" xmlns:xlink="http://www.w3.org/1999/xlink" x="0px" y="0px"
	 viewBox="0 0 1920 1080" style="enable-background:new 0 0 1920 1080;" xml:space="preserve">
<style type="text/css">
	.st0{clip-path:url(#SVGID_00000180361215701446632970000014742922610219738765_);fill:#111110;}
</style>
<g>
	<defs>
		<rect id="SVGID_1_" x="-237.1" y="-196.6" width="2242.7" height="1443.4"/>
	</defs>
	<clipPath id="SVGID_00000158714014488579346560000005123139354578495411_">
		<use xlink:href="#SVGID_1_"  style="overflow:visible;"/>
	</clipPath>
	<path style="clip-path:url(#SVGID_00000158714014488579346560000005123139354578495411_);fill:#111110;" d="M1942.7,1137.9
		c9.4-23.5,3.6-50.4-14.7-67.9l-666.8-636.6c-18.3-17.5-24.1-44.4-14.7-67.9c9.4-23.5,32.2-38.9,57.5-38.9c0,0,0,0,0,0h197.1
		c106.2,0,208.3-41,285.1-114.4l132.9-127c18.3-17.5,24.1-44.4,14.7-67.8c-9.4-23.5-32.2-38.9-57.5-38.9h-299
		c-106.3,0-208.5,41-285.4,114.4l-65.3,62.4c-5.9,5.6-13.7,8.8-21.9,8.8c0,0,0,0,0,0c0,0,0,0-0.1,0c-13,0-24.6-7.9-29.4-19.9
		c-4.8-12-1.8-25.8,7.6-34.8l25.2-24c18.3-17.5,24.1-44.4,14.7-67.9c-9.4-23.5-32.2-38.9-57.5-38.9H866.1
		C760-21.5,657.9,19.4,581.1,92.7L-10.2,657c-18.3,17.5-24.1,44.3-14.7,67.9c9.4,23.5,32.2,38.9,57.5,38.9h299.2c0,0,0.1,0,0.1,0
		c106.1,0,208.1-40.8,285-114l83.2-79.3c12-11.4,27.4-17.1,42.8-17.1s30.8,5.7,42.8,17.1l515.3,492c76.8,73.4,179,114.4,285.3,114.4
		h299C1910.5,1176.9,1933.3,1161.4,1942.7,1137.9z"/>
</g>
</svg>
