<?xml version="1.0" encoding="utf-8"?>
<!-- Generator: Adobe Illustrator 26.0.0, SVG Export Plug-In . SVG Version: 6.00 Build 0)  -->
<svg version="1.1" id="Capa_1" xmlns="http://www.w3.org/2000/svg" xmlns:xlink="http://www.w3.org/1999/xlink" x="0px" y="0px"
	 viewBox="0 0 500 500" style="enable-background:new 0 0 500 500;" xml:space="preserve">
<style type="text/css">
	.st0{clip-path:url(#SVGID_00000026873240858765212940000002154142300449143725_);fill:#FFFFFF;}
	.st1{fill:#020203;}
</style>
<g>
	<g>
		<defs>
			<circle id="SVGID_1_" cx="250" cy="250" r="220.7"/>
		</defs>
		<clipPath id="SVGID_00000015327377148135291930000015311763461984331663_">
			<use xlink:href="#SVGID_1_"  style="overflow:visible;"/>
		</clipPath>
		
			<rect x="29.3" y="29.3" style="clip-path:url(#SVGID_00000015327377148135291930000015311763461984331663_);fill:#FFFFFF;" width="441.5" height="441.5"/>
	</g>
	<g>
		<path class="st1" d="M377.7,330.1c1.3-3.3,0.5-7.1-2.1-9.5l-93.6-89.4c-2.6-2.5-3.4-6.2-2.1-9.5c1.3-3.3,4.5-5.5,8.1-5.5
			c0,0,0,0,0,0h27.7c14.9,0,29.2-5.8,40-16.1l18.7-17.8c2.6-2.5,3.4-6.2,2.1-9.5c-1.3-3.3-4.5-5.5-8.1-5.5h-42
			c-14.9,0-29.3,5.8-40.1,16.1l-9.2,8.8c-0.8,0.8-1.9,1.2-3.1,1.2c0,0,0,0,0,0c0,0,0,0,0,0c-1.8,0-3.5-1.1-4.1-2.8
			c-0.7-1.7-0.3-3.6,1.1-4.9l3.5-3.4c2.6-2.5,3.4-6.2,2.1-9.5s-4.5-5.5-8.1-5.5h-42c-14.9,0-29.2,5.7-40,16l-83,79.2
			c-2.6,2.5-3.4,6.2-2.1,9.5c1.3,3.3,4.5,5.5,8.1,5.5h42c0,0,0,0,0,0c14.9,0,29.2-5.7,40-16l11.7-11.1c1.7-1.6,3.8-2.4,6-2.4
			s4.3,0.8,6,2.4l72.3,69.1c10.8,10.3,25.1,16.1,40,16.1h42C373.2,335.5,376.4,333.4,377.7,330.1z"/>
		<g>
			<path class="st1" d="M387.9,335.5h-2.8l2.2-8.1h-2.7l0.6-2.4h8.3l-0.6,2.4h-2.8L387.9,335.5z"/>
			<path class="st1" d="M404.7,335.5h-2.8l2.4-8.1h-0.1l-4.8,8.1H397l-0.5-8.1h-0.1l-1.9,8.1h-2.8l2.8-10.5h4.5l0.2,6.6h0.1l3.7-6.6
				h4.6L404.7,335.5z"/>
		</g>
	</g>
</g>
</svg>
