<?xml version="1.0" encoding="utf-8"?>
<!-- Generator: Adobe Illustrator 26.0.0, SVG Export Plug-In . SVG Version: 6.00 Build 0)  -->
<svg version="1.1" id="Capa_1" xmlns="http://www.w3.org/2000/svg" xmlns:xlink="http://www.w3.org/1999/xlink" x="0px" y="0px"
	 viewBox="0 0 1200 300" style="enable-background:new 0 0 1200 300;" xml:space="preserve">
<style type="text/css">
	.st0{fill:#FDFDFD;}
</style>
<g>
	<g>
		<polygon class="st0" points="366.2,80 329,219.4 360.8,219.4 398,80 		"/>
		<path class="st0" d="M447.2,185.8c-1.5-3.6-0.6-7.7,2.3-10.4l29.2-27.9c0.1-0.6,0.2-1.3,0.2-1.9c0.3-3.3,0.1-6.3-0.4-8.8
			c-0.6-2.5-1.5-4.6-2.7-6.3c-1.3-1.7-2.9-3-5-4c-2-0.8-4.1-1.6-6.6-2.2c-2.4-0.6-5.1-1.1-7.8-1.6c-2.8-0.4-5.7-0.8-8.8-1
			c-3.1-0.3-6.3-0.4-9.6-0.4c-2.9,0-5.8,0.1-8.6,0.3c-2.8,0.2-5.5,0.5-8.2,0.7c-2.6,0.4-5.2,0.9-7.6,1.4c-2.4,0.5-4.8,1.1-7,1.8
			c-2.2,0.7-4.4,1.8-6.4,3.2c-2,1.5-3.8,3.2-5.3,5.3c-1.7,2.1-3.1,4.5-4.4,7.3c-1.3,2.8-2.4,5.9-3.3,9.4h32.2v0.4
			c0.3-1.1,0.6-2.1,1-3c0.4-0.9,0.9-1.7,1.5-2.4c0.4-0.7,0.9-1.3,1.5-1.9c0.6-0.6,1.1-1,1.7-1.3c0.7-0.3,1.4-0.6,2.1-0.8
			c0.7-0.3,1.5-0.5,2.5-0.6c0.8-0.1,1.7-0.2,2.7-0.3c1-0.1,2-0.1,3.1-0.1c1.1,0,2.2,0.1,3.2,0.2c1,0.1,2,0.3,2.8,0.6
			c0.8,0.1,1.6,0.4,2.2,0.7c0.6,0.3,1.1,0.7,1.6,1.1c0.4,0.4,0.7,0.9,0.9,1.6c0.2,0.6,0.4,1.4,0.5,2.2c0,0.8,0,1.7-0.1,2.6
			c-0.1,0.9-0.2,1.9-0.5,3l-4.8,17.8l-1.5,0.4c-0.1-1.1-0.4-2.1-0.8-3c-0.4-0.9-0.9-1.7-1.5-2.4c-0.6-0.7-1.2-1.3-1.9-1.9
			c-0.7-0.6-1.5-1-2.5-1.3c-0.3-0.1-0.6-0.2-0.9-0.3c-0.3-0.1-0.7-0.2-0.9-0.3c-0.6-0.1-1.1-0.3-1.8-0.4c-0.6-0.1-1.3-0.3-2-0.4
			c-1-0.1-2-0.2-2.9-0.3c-1-0.1-2-0.2-3.1-0.3c-0.1,0-0.3,0-0.4,0c-0.1,0-0.2,0-0.3,0c-0.1,0-0.2,0-0.3,0c-0.1,0-0.3,0-0.4,0
			c-0.1,0-0.3,0-0.4,0c-0.1,0-0.3,0-0.4,0c-0.1,0-0.3,0-0.4,0c-0.1,0-0.3,0-0.4,0c-0.1,0-0.3,0-0.4,0c-2.9,0-5.7,0.1-8.4,0.4
			c-2.6,0.3-5.2,0.7-7.5,1.3c-2.4,0.6-4.6,1.2-6.8,1.9c-2.2,0.7-4.2,1.6-6.2,2.7c-2,1-3.8,2.3-5.4,3.9c-1.7,1.6-3.2,3.4-4.6,5.5
			c-1.4,2.1-2.6,4.5-3.8,7.2c-1.1,2.7-2.2,5.7-3.1,8.9c-0.7,2.6-1.1,5.1-1.4,7.3c-0.2,2.2-0.2,4.3,0.1,6.3c0.3,1.8,0.8,3.4,1.6,4.8
			c0.8,1.4,1.8,2.6,3,3.8c1.1,1,2.5,1.9,4.1,2.7c1.6,0.8,3.3,1.5,5.1,1.9c1.9,0.3,4,0.6,6.1,0.8c2.1,0.3,4.4,0.4,6.9,0.4
			c0.1,0,0.2,0,0.3,0c0.1,0,0.2,0,0.3,0c0.1,0,0.3,0,0.4,0c0.3,0,0.5,0,0.7,0c0.2,0,0.4,0,0.5,0c0.3-0.1,0.5-0.2,0.7-0.2
			s0.4,0,0.5,0c0.3,0,0.5,0,0.7,0s0.4,0,0.5,0c0.3,0,0.5,0,0.7,0s0.4,0,0.5,0c0.1,0,0.3,0,0.4,0c0.1,0,0.3,0,0.4,0
			c0.1-0.1,0.3-0.2,0.4-0.2c0.1,0,0.3,0,0.4,0c0.1,0,0.2,0,0.3,0c0.1,0,0.2,0,0.3,0c0.1-0.1,0.2-0.2,0.3-0.2c0.1,0,0.2,0,0.3,0
			c0.3,0,0.5,0,0.7,0s0.4,0,0.5,0c0.4,0,0.8,0,1.1-0.1c0.3-0.1,0.7-0.1,1.1-0.1c0.8,0,1.6-0.1,2.4-0.2c0.8-0.1,1.5-0.3,2.2-0.4
			c1.1-0.3,2.3-0.6,3.4-1c1.2-0.4,2.4-0.9,3.7-1.5c1.1-0.6,2.2-1.2,3.1-1.9c1-0.7,1.9-1.5,2.7-2.5c0.8-0.8,1.6-1.8,2.4-3
			c0.8-1.2,1.4-2.5,2-3.9h1.3l-5,14.4h31.8l7.4-27.6H456C452.1,191.8,448.7,189.5,447.2,185.8z M436.9,185.1c0,0.3,0,0.6,0,0.8
			c0,0.3-0.1,0.6-0.2,0.8c0,0.1,0,0.3,0,0.6c0,0.1,0,0.3-0.1,0.4c-0.1,0.1-0.1,0.3-0.1,0.4c0,0.1,0,0.3,0,0.4v0.2
			c-0.1,0.1-0.2,0.3-0.2,0.4v0.2c-0.3,1.3-0.7,2.4-1.1,3.3c-0.5,1-1.1,1.8-1.8,2.5c-0.6,0.7-1.2,1.3-2,1.9c-0.8,0.6-1.6,1-2.4,1.3
			c-1,0.3-1.9,0.5-2.8,0.7c-0.9,0.2-1.8,0.4-2.6,0.5c-1,0.1-2,0.2-2.9,0.3c-1,0.1-2,0.1-2.9,0.1c-1,0-2,0-3,0c-1,0-2-0.1-2.8-0.2
			c-0.8-0.1-1.6-0.3-2.4-0.5c-0.8-0.2-1.5-0.4-2.2-0.5c-0.8-0.3-1.5-0.6-2-1c-0.5-0.4-0.8-1-0.9-1.9c-0.1-0.8-0.2-1.8-0.1-2.9
			c0.1-1.1,0.3-2.4,0.7-3.8v0.4c0.3-1.1,0.6-2.1,0.9-3c0.3-0.9,0.8-1.7,1.4-2.4c0.4-0.7,0.9-1.3,1.6-1.8c0.6-0.5,1.4-0.9,2.2-1.2
			c0.7-0.3,1.5-0.5,2.3-0.7c0.8-0.2,1.7-0.4,2.7-0.5c0.8-0.1,1.7-0.2,2.6-0.3c0.9-0.1,1.8-0.1,2.8-0.1c0.3,0,0.5,0,0.7,0
			c0.2,0,0.5,0,0.7,0c0.3,0,0.6,0,0.8,0c0.3,0,0.6,0,0.8,0c0.1,0,0.3,0,0.4,0c0.1,0,0.3,0,0.4,0c0.1,0,0.3,0,0.5,0s0.4,0,0.5,0
			c0.1,0.1,0.3,0.2,0.4,0.2c0.1,0,0.3,0,0.4,0c0.1,0,0.3,0,0.4,0c0.1,0,0.3,0,0.4,0c0.3,0,0.5,0,0.6,0.1c0.1,0.1,0.3,0.1,0.6,0.1
			c0.1,0.1,0.3,0.2,0.5,0.2c0.2,0,0.4,0,0.5,0c0.3,0,0.5,0,0.6,0c0.1,0,0.3,0.1,0.4,0.2c0.1,0,0.3,0,0.5,0.1
			c0.2,0.1,0.4,0.1,0.5,0.1c0.3,0.1,0.6,0.2,0.9,0.3c0.3,0.1,0.7,0.2,0.9,0.5c0.1,0.1,0.3,0.2,0.4,0.3c0.1,0.1,0.3,0.1,0.4,0.1
			c0.1,0.1,0.3,0.2,0.4,0.3c0.1,0.1,0.3,0.2,0.4,0.3c0.1,0.1,0.2,0.3,0.3,0.5c0.1,0.2,0.2,0.5,0.3,0.7c0.1,0.1,0.2,0.3,0.2,0.5
			C436.9,184.6,436.9,184.8,436.9,185.1z"/>
		<path class="st0" d="M681.1,121.8L667.3,173l-1.5,5.4c-0.3,1-0.6,2-0.9,2.9c-0.4,1-0.7,1.9-1.1,2.7c-0.1,0.3-0.3,0.6-0.4,0.8
			c-0.1,0.3-0.3,0.6-0.4,0.8c-0.7,1-1.4,2-2.2,2.9c-0.8,1-1.6,1.8-2.6,2.5c-1,0.8-2,1.6-3,2.2c-1,0.6-2.1,1.1-3.2,1.6
			c-1.1,0.4-2.3,0.7-3.6,0.8c-1.3,0.1-2.6,0.2-4,0.2c-1.4,0-2.7-0.1-3.9-0.3c-1.2-0.2-2.1-0.5-2.8-0.9c-0.8-0.4-1.5-1-1.9-1.7
			c-0.4-0.7-0.7-1.5-0.8-2.5c-0.1-0.8-0.2-1.8-0.3-2.8c-0.1-1,0-2.1,0.1-3c0.1-1.1,0.3-2.2,0.6-3.3c0.3-1.1,0.6-2.4,0.8-3.8l15-55.8
			h-31.7c0.2,0.4,0.4,0.8,0.6,1.2c1.5,3.6,0.6,7.7-2.3,10.4l-2.2,2.1l-14.3,52.7c-0.4,1.6-0.7,3.1-1,4.6l18.2,17.4
			c2.7,2.6,3.6,6.4,2.4,9.9c1.4,0.1,2.9,0.1,4.4,0.1c1.8,0,3.6-0.1,5.3-0.3c1.7-0.2,3.4-0.4,4.9-0.5c0.7-0.1,1.4-0.3,2.2-0.5
			c0.8-0.2,1.6-0.5,2.4-0.7c0.8-0.3,1.6-0.6,2.4-0.8c0.8-0.3,1.5-0.6,2.2-1c1.4-0.7,2.7-1.6,4.1-2.6c1.3-1,2.6-2.2,3.9-3.4
			c1.3-1.3,2.5-2.7,3.7-4.3c1.2-1.6,2.3-3.3,3.2-5.1h1.5l-5.9,18.6h31.4l26.1-97.6H681.1z"/>
		<polygon class="st0" points="728.6,80 691.4,219.4 723.1,219.4 760.3,80 		"/>
		<path class="st0" d="M821.4,184.1c0-0.1,0-0.3,0-0.4l0.2-0.2c0-0.1,0-0.3,0-0.4c-0.1,0-0.2,0-0.2-0.1c0-0.1,0.1-0.2,0.2-0.3
			c0-0.1,0-0.2,0-0.3c0-0.1,0-0.2,0-0.3c0.1-0.3,0.2-0.5,0.3-0.7c0.1-0.2,0.1-0.4,0.1-0.5c0-0.1,0-0.2,0.1-0.3
			c0.1-0.1,0.1-0.2,0.1-0.3c0-0.1,0-0.3,0.1-0.4c0.1-0.1,0.1-0.3,0.1-0.4l-25.7,0.4c0,0.1,0,0.3,0,0.4c0,0.1,0,0.2-0.1,0.3
			c-0.1,0.1-0.1,0.2-0.1,0.3c0,0.1,0,0.3,0,0.4c-0.1,0.1-0.2,0.3-0.2,0.4c-0.1,0.1-0.2,0.3-0.2,0.4c0,0.1,0,0.3,0,0.4
			c-0.1,0.1-0.2,0.3-0.2,0.4c0,0.1,0,0.3,0,0.4c-0.1,0.1-0.3,0.3-0.4,0.4c0,0.1,0,0.2,0,0.3c0,0.1,0,0.2,0,0.3
			c0,0.1-0.1,0.3-0.2,0.4c0,0.1-0.1,0.3-0.2,0.4c0,0.1,0,0.3,0,0.4c0,0.1-0.1,0.3-0.2,0.4c0,0.1,0,0.3,0,0.4c0,0.1-0.1,0.3-0.2,0.4
			c-0.3,0.8-0.6,1.6-0.9,2.4c-0.4,0.8-0.7,1.5-0.9,2.2c-0.3,0.6-0.6,1.1-0.9,1.8c-0.4,0.6-0.7,1.1-0.9,1.6c-0.4,0.6-0.9,1-1.4,1.4
			c-0.5,0.3-1.1,0.7-1.8,0.9c-0.6,0.1-1.3,0.3-2.1,0.4c-0.8,0.1-1.7,0.2-2.7,0.2c-0.7,0-1.3-0.1-1.9-0.2c-0.6-0.1-1-0.3-1.5-0.4
			c-0.3-0.3-0.5-0.6-0.7-0.8c-0.2-0.3-0.4-0.7-0.5-1.3c-0.1-0.4-0.2-0.8-0.3-1.3c-0.1-0.4-0.1-0.9-0.1-1.5c0.1-0.6,0.3-1.1,0.4-1.7
			c0.1-0.6,0.3-1.1,0.4-1.7c0-0.1,0-0.2,0-0.3c0-0.1,0-0.2,0-0.3c0.1-0.1,0.2-0.2,0.2-0.3c0-0.1,0-0.2,0-0.3c0-0.1,0.1-0.3,0.2-0.4
			V187c0-0.1,0.1-0.3,0.2-0.4v-0.2c-0.1,0-0.2,0-0.2-0.1c0-0.1,0-0.2,0-0.3l0.2-0.2v-0.2c0-0.1,0-0.3,0-0.4c0.1-0.1,0.2-0.3,0.2-0.4
			c0.1-0.1,0.2-0.3,0.2-0.4l10.4-39.5h37l6.3-23h-37l5.4-20.5h-31.8l-5.4,20.5h-11.9l-6.3,23h11.9L746.1,191
			c-0.8,3.2-1.4,6.1-1.7,8.8c-0.3,2.6-0.3,5,0,7.1c0.3,2.1,0.9,3.8,1.9,5.2c1,1.4,2.2,2.5,3.8,3.3c1.4,0.8,3,1.6,4.8,2.2
			c1.8,0.6,3.8,1.1,6.1,1.6c2.1,0.1,4.4,0.3,6.8,0.5c2.4,0.2,5,0.3,7.8,0.3c3.3,0,6.5-0.1,9.4-0.3c2.9-0.2,5.6-0.6,8.2-1.1
			c2.4-0.6,4.6-1.3,6.7-2.1c2.1-0.8,4-1.8,5.6-2.9c1.7-1.1,3.2-2.5,4.7-4.2c1.5-1.7,2.8-3.6,4.1-5.6c1.1-2.1,2.2-4.4,3.2-6.9
			c1-2.5,2-5.3,2.8-8.4c0-0.1,0.1-0.3,0.2-0.4c0-0.3,0-0.5,0-0.6v-0.2V187c0-0.1,0.1-0.3,0.2-0.4v-0.2c0-0.1,0-0.2,0-0.3
			c0-0.1,0.1-0.2,0.2-0.3c0-0.3,0-0.5,0-0.6l0.2-0.2v-0.2c0-0.1,0.1-0.3,0.2-0.4V184.1z"/>
		<path class="st0" d="M902.7,121.8L888.9,173l-1.5,5.4c-0.3,1-0.6,2-0.9,2.9c-0.4,1-0.7,1.9-1.1,2.7c-0.1,0.3-0.3,0.6-0.4,0.8
			c-0.1,0.3-0.3,0.6-0.4,0.8c-0.7,1-1.4,2-2.2,2.9c-0.8,1-1.6,1.8-2.6,2.5c-1,0.8-2,1.6-3,2.2c-1,0.6-2.1,1.1-3.2,1.6
			c-1.1,0.4-2.3,0.7-3.6,0.8c-1.3,0.1-2.6,0.2-4,0.2c-1.4,0-2.7-0.1-3.9-0.3c-1.2-0.2-2.1-0.5-2.8-0.9c-0.8-0.4-1.5-1-1.9-1.7
			c-0.4-0.7-0.7-1.5-0.8-2.5c-0.1-0.8-0.2-1.8-0.3-2.8c-0.1-1,0-2.1,0.1-3c0.1-1.1,0.3-2.2,0.6-3.3c0.3-1.1,0.6-2.4,0.8-3.8l15-55.8
			H841l-18,66.5c-0.7,2.6-1.2,5.2-1.5,7.6c-0.3,2.4-0.3,4.6-0.2,6.6c0.1,2.1,0.5,4,1,5.6c0.6,1.7,1.3,3.2,2.3,4.6
			c1.1,1.4,2.4,2.5,3.8,3.4c1.4,0.9,3.1,1.7,5,2.4c1.8,0.6,3.9,1,6.2,1.3c2.3,0.3,4.8,0.4,7.4,0.4c1.8,0,3.6-0.1,5.3-0.3
			c1.7-0.2,3.4-0.4,4.9-0.5c0.7-0.1,1.4-0.3,2.2-0.5c0.8-0.2,1.6-0.5,2.4-0.7c0.8-0.3,1.6-0.6,2.4-0.8c0.8-0.3,1.5-0.6,2.2-1
			c1.4-0.7,2.7-1.6,4.1-2.6c1.3-1,2.6-2.2,3.9-3.4s2.5-2.7,3.7-4.3c1.2-1.6,2.3-3.3,3.2-5.1h1.5l-5.9,18.6h31.4l26.1-97.6H902.7z"/>
		<path class="st0" d="M979.2,164.6c0-0.1,0-0.1,0.1-0.2l-0.1,0V164.6z"/>
		<path class="st0" d="M981.3,157.1c0,0.1,0,0.2,0,0.3c0,0.1,0,0.2,0,0.3c-0.1,0.1-0.2,0.2-0.2,0.3c0,0.1,0,0.2,0,0.3
			c-0.1,0.1-0.2,0.3-0.2,0.4c0,0.1,0,0.3,0,0.4c-0.1,0.1-0.2,0.3-0.2,0.4c0,0.1,0,0.3,0,0.4c-0.1,0.1-0.2,0.3-0.2,0.4
			c0,0.1,0,0.3,0,0.4c-0.1,0.1-0.2,0.3-0.2,0.4v0.2c-0.1,0.1-0.2,0.3-0.2,0.4c0,0.1,0,0.3,0,0.4c-0.1,0.1-0.2,0.2-0.2,0.3
			c0,0.1,0,0.2,0,0.3v0.2c-0.1,0.1-0.2,0.3-0.2,0.4c0,0.1,0,0.3,0,0.4l-0.2,0.2c-0.1,0.1-0.1,0.1-0.2,0.2l28.8,0.4
			c0-0.3,0-0.6,0.1-0.8c0.1-0.3,0.2-0.6,0.3-0.8c0-0.3,0-0.6,0.1-0.8c0.1-0.3,0.2-0.6,0.3-0.8c0-0.1,0-0.3,0-0.4
			c0-0.1,0.1-0.3,0.2-0.4c0-0.1,0.1-0.3,0.2-0.4c0-0.1,0-0.2,0-0.3c0-0.1,0-0.2,0-0.3c0-0.1,0-0.3,0-0.4c0-0.1,0-0.3,0-0.4
			c0-0.1,0.1-0.3,0.2-0.4c0-0.1,0-0.3,0-0.4l0.2-0.2c0-0.1,0-0.3,0-0.4c0-0.1,0.1-0.3,0.2-0.4c0-0.1,0-0.2,0-0.3c0-0.1,0-0.2,0-0.3
			c0.1-0.1,0.2-0.2,0.2-0.3c0-0.1,0-0.2,0-0.3c0.6-2.2,1-4.4,1.4-6.5c0.3-2.1,0.6-4.1,0.7-6.1c0.3-1.9,0.5-3.8,0.5-5.6
			c0.1-1.8,0.1-3.6,0.1-5.4c-0.1-1.8-0.6-3.4-1.5-4.7c-0.8-1.3-2-2.4-3.6-3.2c-1.5-0.8-3.5-1.5-5.7-2c-2.3-0.5-4.9-0.7-7.8-0.7
			c-1.5,0-3,0.1-4.4,0.3c-1.4,0.2-2.7,0.5-4,0.7c-1.4,0.3-2.6,0.6-3.8,1c-1.1,0.4-2.2,1-3.3,1.7c-1,0.6-2,1.3-3,2.1
			c-1,0.8-2.1,1.7-3.2,2.7c-1,1-2,2-2.9,3c-1,1-2,2.1-2.9,3.2h-1.5l4.4-14.4h-30.7l-26.1,97.6h31.8l14.8-56c0-0.1,0-0.2,0.1-0.3
			c0.1-0.1,0.1-0.2,0.1-0.3c0-0.1,0-0.2,0.1-0.3c0.1-0.1,0.1-0.2,0.1-0.3c0-0.3,0-0.5,0.1-0.7c0.1-0.2,0.2-0.4,0.3-0.5
			c0-0.1,0-0.2,0-0.3c0-0.1,0-0.2,0-0.3c0.1-0.1,0.2-0.3,0.2-0.4c0.1-0.1,0.2-0.3,0.2-0.4l0.2-0.2c0-0.1,0-0.3,0-0.4
			c0-0.1,0.1-0.3,0.2-0.4v-0.2c0.3-0.7,0.6-1.4,1-2.2c0.4-0.8,0.8-1.5,1.3-2.2c0.4-0.7,0.9-1.4,1.4-2.2c0.5-0.8,1-1.5,1.6-2.2
			c0.6-0.7,1.1-1.3,1.8-1.7c0.6-0.4,1.4-0.8,2.2-1.3c0.7-0.3,1.5-0.5,2.4-0.7c0.9-0.2,1.8-0.3,2.8-0.3c1,0,1.8,0.1,2.5,0.3
			c0.7,0.2,1.3,0.5,1.9,0.7c0.4,0.3,0.8,0.6,1.1,1c0.3,0.4,0.6,1,0.7,1.7c0,0.6,0,1.1,0,1.8s0.1,1.3,0.2,2c-0.1,0.6-0.2,1.2-0.3,2
			C981.5,155.7,981.4,156.4,981.3,157.1z"/>
		<path class="st0" d="M1105,145.6c0.3-3.3,0.1-6.3-0.4-8.8c-0.6-2.5-1.5-4.6-2.7-6.3c-1.3-1.7-2.9-3-5-4c-2-0.8-4.1-1.6-6.6-2.2
			c-2.4-0.6-5.1-1.1-7.8-1.6c-2.8-0.4-5.7-0.8-8.8-1c-3.1-0.3-6.3-0.4-9.6-0.4c-2.9,0-5.8,0.1-8.6,0.3c-2.8,0.2-5.5,0.5-8.2,0.7
			c-2.6,0.4-5.2,0.9-7.6,1.4c-2.4,0.5-4.8,1.1-7,1.8c-2.2,0.7-4.4,1.8-6.4,3.2c-2,1.5-3.8,3.2-5.3,5.3c-1.7,2.1-3.1,4.5-4.4,7.3
			c-1.3,2.8-2.4,5.9-3.3,9.4h32.2v0.4c0.3-1.1,0.6-2.1,1-3c0.4-0.9,0.9-1.7,1.5-2.4c0.4-0.7,0.9-1.3,1.5-1.9c0.6-0.6,1.1-1,1.7-1.3
			c0.7-0.3,1.4-0.6,2.1-0.8c0.7-0.3,1.5-0.5,2.5-0.6c0.8-0.1,1.7-0.2,2.7-0.3c1-0.1,2-0.1,3.1-0.1c1.1,0,2.2,0.1,3.2,0.2
			c1,0.1,2,0.3,2.8,0.6c0.8,0.1,1.6,0.4,2.2,0.7c0.6,0.3,1.1,0.7,1.6,1.1c0.4,0.4,0.7,0.9,0.9,1.6c0.2,0.6,0.4,1.4,0.5,2.2
			c0,0.8,0,1.7-0.1,2.6c-0.1,0.9-0.2,1.9-0.5,3l-4.8,17.8l-1.5,0.4c-0.1-1.1-0.4-2.1-0.8-3c-0.4-0.9-0.9-1.7-1.5-2.4
			c-0.6-0.7-1.2-1.3-1.9-1.9c-0.7-0.6-1.5-1-2.5-1.3c-0.3-0.1-0.6-0.2-0.9-0.3c-0.3-0.1-0.7-0.2-0.9-0.3c-0.6-0.1-1.1-0.3-1.8-0.4
			c-0.6-0.1-1.3-0.3-2-0.4c-1-0.1-2-0.2-2.9-0.3c-1-0.1-2-0.2-3.1-0.3c-0.1,0-0.3,0-0.4,0c-0.1,0-0.2,0-0.3,0c-0.1,0-0.2,0-0.3,0
			c-0.1,0-0.3,0-0.4,0c-0.1,0-0.3,0-0.4,0c-0.1,0-0.3,0-0.4,0c-0.1,0-0.3,0-0.4,0c-0.1,0-0.3,0-0.4,0c-0.1,0-0.3,0-0.4,0
			c-2.9,0-5.7,0.1-8.4,0.4c-2.6,0.3-5.2,0.7-7.5,1.3c-2.4,0.6-4.6,1.2-6.8,1.9c-2.2,0.7-4.2,1.6-6.2,2.7c-2,1-3.8,2.3-5.4,3.9
			c-1.7,1.6-3.2,3.4-4.6,5.5c-1.4,2.1-2.6,4.5-3.8,7.2c-1.1,2.7-2.2,5.7-3.1,8.9c-0.7,2.6-1.1,5.1-1.4,7.3c-0.2,2.2-0.2,4.3,0.1,6.3
			c0.3,1.8,0.8,3.4,1.6,4.8c0.8,1.4,1.8,2.6,3,3.8c1.1,1,2.5,1.9,4.1,2.7c1.6,0.8,3.3,1.5,5.1,1.9c1.9,0.3,4,0.6,6.1,0.8
			c2.1,0.3,4.4,0.4,6.9,0.4c0.1,0,0.2,0,0.3,0c0.1,0,0.2,0,0.3,0c0.1,0,0.3,0,0.4,0c0.3,0,0.5,0,0.7,0c0.2,0,0.4,0,0.5,0
			c0.3-0.1,0.5-0.2,0.7-0.2c0.2,0,0.4,0,0.5,0c0.3,0,0.5,0,0.7,0s0.4,0,0.5,0c0.3,0,0.5,0,0.7,0s0.4,0,0.5,0c0.1,0,0.3,0,0.4,0
			c0.1,0,0.3,0,0.4,0c0.1-0.1,0.3-0.2,0.4-0.2c0.1,0,0.3,0,0.4,0c0.1,0,0.2,0,0.3,0c0.1,0,0.2,0,0.3,0c0.1-0.1,0.2-0.2,0.3-0.2
			c0.1,0,0.2,0,0.3,0c0.3,0,0.5,0,0.7,0c0.2,0,0.4,0,0.5,0c0.4,0,0.8,0,1.1-0.1c0.3-0.1,0.7-0.1,1.1-0.1c0.8,0,1.6-0.1,2.4-0.2
			c0.8-0.1,1.5-0.3,2.2-0.4c1.1-0.3,2.3-0.6,3.4-1c1.2-0.4,2.4-0.9,3.7-1.5c1.1-0.6,2.2-1.2,3.1-1.9c1-0.7,1.9-1.5,2.7-2.5
			c0.8-0.8,1.6-1.8,2.4-3c0.8-1.2,1.4-2.5,2-3.9h1.3l-5,14.4h31.8l16.7-62.7C1104,152.7,1104.7,149,1105,145.6z M1063,185.1
			c0,0.3,0,0.6,0,0.8c0,0.3-0.1,0.6-0.2,0.8c0,0.1,0,0.3,0,0.6c0,0.1,0,0.3-0.1,0.4c-0.1,0.1-0.1,0.3-0.1,0.4c0,0.1,0,0.3,0,0.4v0.2
			c-0.1,0.1-0.2,0.3-0.2,0.4v0.2c-0.3,1.3-0.7,2.4-1.1,3.3c-0.5,1-1.1,1.8-1.8,2.5c-0.6,0.7-1.2,1.3-2,1.9c-0.8,0.6-1.6,1-2.4,1.3
			c-1,0.3-1.9,0.5-2.8,0.7c-0.9,0.2-1.8,0.4-2.6,0.5c-1,0.1-2,0.2-2.9,0.3c-1,0.1-2,0.1-2.9,0.1c-1,0-2,0-3,0c-1,0-2-0.1-2.8-0.2
			c-0.8-0.1-1.6-0.3-2.4-0.5c-0.8-0.2-1.5-0.4-2.2-0.5c-0.8-0.3-1.5-0.6-2-1c-0.5-0.4-0.8-1-0.9-1.9c-0.1-0.8-0.2-1.8-0.1-2.9
			c0.1-1.1,0.3-2.4,0.7-3.8v0.4c0.3-1.1,0.6-2.1,0.9-3c0.3-0.9,0.8-1.7,1.4-2.4c0.4-0.7,0.9-1.3,1.6-1.8c0.6-0.5,1.4-0.9,2.2-1.2
			c0.7-0.3,1.5-0.5,2.3-0.7c0.8-0.2,1.7-0.4,2.7-0.5c0.8-0.1,1.7-0.2,2.6-0.3c0.9-0.1,1.8-0.1,2.8-0.1c0.3,0,0.5,0,0.7,0
			c0.2,0,0.5,0,0.7,0c0.3,0,0.6,0,0.8,0c0.3,0,0.6,0,0.8,0c0.1,0,0.3,0,0.4,0c0.1,0,0.3,0,0.4,0c0.1,0,0.3,0,0.5,0
			c0.2,0,0.4,0,0.5,0c0.1,0.1,0.3,0.2,0.4,0.2c0.1,0,0.3,0,0.4,0c0.1,0,0.3,0,0.4,0c0.1,0,0.3,0,0.4,0c0.3,0,0.5,0,0.6,0.1
			c0.1,0.1,0.3,0.1,0.6,0.1c0.1,0.1,0.3,0.2,0.5,0.2c0.2,0,0.4,0,0.5,0c0.3,0,0.5,0,0.6,0c0.1,0,0.3,0.1,0.4,0.2
			c0.1,0,0.3,0,0.5,0.1c0.2,0.1,0.4,0.1,0.5,0.1c0.3,0.1,0.6,0.2,0.9,0.3c0.3,0.1,0.7,0.2,0.9,0.5c0.1,0.1,0.3,0.2,0.4,0.3
			c0.1,0.1,0.3,0.1,0.4,0.1c0.1,0.1,0.3,0.2,0.4,0.3c0.1,0.1,0.3,0.2,0.4,0.3c0.1,0.1,0.2,0.3,0.3,0.5c0.1,0.2,0.2,0.5,0.3,0.7
			c0.1,0.1,0.2,0.3,0.2,0.5C1063,184.6,1063,184.8,1063,185.1z"/>
		<polygon class="st0" points="1127.8,80 1090.6,219.4 1122.4,219.4 1159.6,80 		"/>
		<path class="st0" d="M616.9,219c0.8-2,0.3-4.2-1.2-5.7l-56.2-53.6c-1.5-1.5-2-3.7-1.2-5.7c0.8-2,2.7-3.3,4.8-3.3c0,0,0,0,0,0h16.6
			c8.9,0,17.5-3.5,24-9.6l11.2-10.7c1.5-1.5,2-3.7,1.2-5.7c-0.8-2-2.7-3.3-4.8-3.3h-25.2c-9,0-17.6,3.5-24,9.6l-5.5,5.3
			c-0.5,0.5-1.2,0.7-1.8,0.7c0,0,0,0,0,0c0,0,0,0,0,0c-1.1,0-2.1-0.7-2.5-1.7c-0.4-1-0.2-2.2,0.6-2.9l2.1-2c1.5-1.5,2-3.7,1.2-5.7
			c-0.8-2-2.7-3.3-4.8-3.3h-25.2c-8.9,0-17.5,3.4-24,9.6l-49.8,47.5c-1.5,1.5-2,3.7-1.2,5.7c0.8,2,2.7,3.3,4.8,3.3h25.2c0,0,0,0,0,0
			c8.9,0,17.5-3.4,24-9.6l7-6.7c1-1,2.3-1.4,3.6-1.4s2.6,0.5,3.6,1.4l43.4,41.4c6.5,6.2,15.1,9.6,24,9.6h25.2
			C614.2,222.3,616.2,221,616.9,219z"/>
	</g>
	<g>
		<path class="st0" d="M1142.8,219.4h-6.3l4.9-18.2h-6l1.5-5.5h18.7l-1.5,5.5h-6.4L1142.8,219.4z"/>
		<path class="st0" d="M1180.5,219.4h-6.2l5.3-18.1h-0.2l-10.7,18.1h-5.5l-1.2-18.1h-0.2l-4.3,18.1h-6.2l6.3-23.6h10l0.5,14.8h0.2
			l8.2-14.8h10.2L1180.5,219.4z"/>
	</g>
</g>
<path class="st0" d="M260.2,224.7c1.2-2.9,0.5-6.3-1.8-8.5l-83.5-79.7c-2.3-2.2-3-5.6-1.8-8.5c1.2-2.9,4-4.9,7.2-4.9c0,0,0,0,0,0
	h24.7c13.3,0,26.1-5.1,35.7-14.3l16.7-15.9c2.3-2.2,3-5.6,1.8-8.5c-1.2-2.9-4-4.9-7.2-4.9h-37.5c-13.3,0-26.1,5.1-35.7,14.3
	l-8.2,7.8c-0.7,0.7-1.7,1.1-2.7,1.1c0,0,0,0,0,0c0,0,0,0,0,0c-1.6,0-3.1-1-3.7-2.5c-0.6-1.5-0.2-3.2,0.9-4.4l3.2-3
	c2.3-2.2,3-5.6,1.8-8.5c-1.2-2.9-4-4.9-7.2-4.9h-37.5c-13.3,0-26.1,5.1-35.7,14.3l-74.1,70.7c-2.3,2.2-3,5.6-1.8,8.5
	c1.2,2.9,4,4.9,7.2,4.9h37.5c0,0,0,0,0,0c13.3,0,26.1-5.1,35.7-14.3l10.4-9.9c1.5-1.4,3.4-2.1,5.4-2.1c1.9,0,3.9,0.7,5.4,2.1
	l64.5,61.6c9.6,9.2,22.4,14.3,35.7,14.3H253C256.1,229.6,259,227.6,260.2,224.7z"/>
</svg>
