<?xml version="1.0" encoding="utf-8"?>
<!-- Generator: Adobe Illustrator 26.0.0, SVG Export Plug-In . SVG Version: 6.00 Build 0)  -->
<svg version="1.1" id="Capa_1" xmlns="http://www.w3.org/2000/svg" xmlns:xlink="http://www.w3.org/1999/xlink" x="0px" y="0px"
	 viewBox="0 0 500 500" style="enable-background:new 0 0 500 500;" xml:space="preserve">
<style type="text/css">
	.st0{clip-path:url(#SVGID_00000156585686163805302210000000715619854610489787_);fill:#020203;}
	.st1{fill:#FFFFFF;}
</style>
<g>
	<g>
		<defs>
			<circle id="SVGID_1_" cx="250" cy="249.9" r="228.3"/>
		</defs>
		<clipPath id="SVGID_00000136380954513240593430000014803348850253169557_">
			<use xlink:href="#SVGID_1_"  style="overflow:visible;"/>
		</clipPath>
		
			<rect x="21.7" y="21.6" style="clip-path:url(#SVGID_00000136380954513240593430000014803348850253169557_);fill:#020203;" width="456.6" height="456.6"/>
	</g>
	<g>
		<path class="st1" d="M382.1,332.7c1.4-3.4,0.5-7.3-2.1-9.9l-96.8-92.4c-2.7-2.5-3.5-6.4-2.1-9.9c1.4-3.4,4.7-5.6,8.4-5.6
			c0,0,0,0,0,0H318c15.4,0,30.2-6,41.4-16.6l19.3-18.4c2.7-2.5,3.5-6.4,2.1-9.8c-1.4-3.4-4.7-5.6-8.3-5.6h-43.4
			c-15.4,0-30.3,5.9-41.4,16.6l-9.5,9.1c-0.9,0.8-2,1.3-3.2,1.3c0,0,0,0,0,0c0,0,0,0,0,0c-1.9,0-3.6-1.1-4.3-2.9
			c-0.7-1.7-0.3-3.7,1.1-5l3.7-3.5c2.7-2.5,3.5-6.4,2.1-9.9c-1.4-3.4-4.7-5.7-8.3-5.7h-43.4c-15.4,0-30.2,5.9-41.4,16.6l-85.8,81.9
			c-2.7,2.5-3.5,6.4-2.1,9.9c1.4,3.4,4.7,5.6,8.3,5.7h43.4c0,0,0,0,0,0c15.4,0,30.2-5.9,41.4-16.6l12.1-11.5c1.7-1.7,4-2.5,6.2-2.5
			c2.2,0,4.5,0.8,6.2,2.5l74.8,71.4c11.2,10.7,26,16.6,41.4,16.6h43.4C377.4,338.4,380.7,336.1,382.1,332.7z"/>
		<g>
			<path class="st1" d="M392.6,338.4h-2.9l2.2-8.4h-2.8l0.7-2.5h8.6l-0.7,2.5h-2.9L392.6,338.4z"/>
			<path class="st1" d="M410,338.4h-2.9l2.4-8.3h-0.1l-4.9,8.3h-2.5l-0.6-8.3h-0.1l-2,8.3h-2.9l2.9-10.9h4.6l0.2,6.8h0.1l3.8-6.8
				h4.7L410,338.4z"/>
		</g>
	</g>
</g>
</svg>
