<?xml version="1.0" encoding="utf-8"?>
<!-- Generator: Adobe Illustrator 26.0.0, SVG Export Plug-In . SVG Version: 6.00 Build 0)  -->
<svg version="1.1" id="Capa_1" xmlns="http://www.w3.org/2000/svg" xmlns:xlink="http://www.w3.org/1999/xlink" x="0px" y="0px"
	 viewBox="0 0 1200 300" style="enable-background:new 0 0 1200 300;" xml:space="preserve">
<style type="text/css">
	.st0{fill:#E4E4E3;}
	.st1{fill:#020203;}
	.st2{fill:#050606;}
	.st3{fill:#1E1E1C;}
</style>
<g>
	<g>
		<path class="st0" d="M384,270.9c-19.4,0-37.8-7.4-51.8-20.8l-32.4-30.9c-2.1-2-4.8-3-7.6-3c-1.8,0-3.7,0.5-5.3,1.4
			c-6.8,3.8-14.1,6.4-21.7,7.9c-4.1,0.8-7.4,3.9-8.5,8l-2.9,10.7c-3.6,13.6-16,23-30,23h-40.1c-2.6,0-5.2-0.3-7.7-1
			c-0.9-0.2-1.8-0.3-2.7-0.3c-0.7,0-1.4,0.1-2.1,0.2c-0.6,0.1-1.2,0.2-1.9,0.3c-2,0.4-4.1,0.6-6.2,0.7c-0.2,0-0.5,0-0.7,0.1
			c-0.7,0.1-1.4,0.1-2.1,0.2c-0.3,0-0.5,0-0.8,0.1l-0.2,0c-0.2,0-0.4,0-0.5,0.1c-1.7,0.3-3.4,0.4-5.1,0.4h-1.1c-0.4,0-0.9,0-1.3,0.1
			c-1.1,0.1-2.3,0.2-3.5,0.2h-2.9c-4.5,0-8.8-0.3-12.9-0.8c-2.7-0.4-5.4-0.7-7.9-1.1c-0.9-0.1-1.7-0.3-2.6-0.5
			c-1.4-0.3-2.9-0.7-4.3-1.2c-1.1-0.3-2.2-0.5-3.3-0.5c-1.4,0-2.8,0.3-4.1,0.8c-3.7,1.5-7.5,2.2-11.5,2.2H58.3
			c-9.6,0-18.8-4.5-24.6-12.1c-5.8-7.6-7.8-17.7-5.4-26.9l47-176.1c3.6-13.6,16-23,30-23h40.1c9.6,0,18.8,4.5,24.6,12.1
			c5.8,7.5,7.8,17.5,5.4,26.6c-0.9,3.4-0.1,7,2.1,9.7c2.1,2.6,5.2,4,8.5,4c0.2,0,0.4,0,0.6,0c3-0.2,6.1-0.2,9.1-0.2
			c5.1,0,10.2,0.2,15,0.7c4.5,0.4,8.8,0.9,12.8,1.5c4.5,0.7,8.9,1.6,13,2.6c4.6,1.2,8.9,2.6,12.7,4.3c0.3,0.1,0.7,0.3,1,0.4
			c1.6,0.8,3.2,1.6,4.7,2.5c1.8,1.1,3.7,1.6,5.7,1.6c2.1,0,4.1-0.6,6-1.8c12.1-7.8,26.1-11.9,40.6-11.9h31.8c5,0,9.9,1,14.5,2.9
			c1.3,0.6,2.8,0.8,4.2,0.8c1.1,0,2.2-0.2,3.2-0.5c7.1-2.1,14.4-3.2,21.9-3.2h31.9c2,0,4,0.2,6,0.5c0.6,0.1,1.2,0.1,1.8,0.1
			c0.2,0,0.5,0,0.7,0c0.6,0,1.3-0.1,1.9-0.1h40c4.8,0,9.6,1.2,13.9,3.3c1.6,0.8,3.2,1.2,4.9,1.2c1.7,0,3.4-0.4,5-1.2
			c4.3-2.2,9.1-3.3,13.9-3.3h13.5c5,0,9.3-3.3,10.6-8.2l5.8-21.6c3.6-13.6,16-23,30-23H603c9.6,0,18.8,4.5,24.6,12.1
			c1.8,2.3,3.2,4.9,4.3,7.7c1.6,4.3,5.7,7.1,10.3,7.1h13.3c9.6,0,18.8,4.5,24.6,12.1c1.6,2.1,3,4.5,4,7c1.7,4.1,5.7,6.8,10.2,6.8
			h1.1c1.2,0,2.4,0.1,3.5,0.2c0.4,0,0.8,0.1,1.2,0.1s0.8,0,1.2-0.1c1.2-0.1,2.3-0.2,3.5-0.2h40.1c4.8,0,9.6,1.2,13.9,3.3
			c1.6,0.8,3.2,1.2,4.9,1.2c1.7,0,3.4-0.4,5-1.2c4.3-2.2,9.1-3.3,13.9-3.3h40.1c0.7,0,1.4,0,2.1,0.1c0.2,0,0.5,0,0.7,0
			c0.2,0,0.5,0,0.7,0c0.7,0,1.4-0.1,2-0.1h38.8c2.9,0,5.9,0.4,8.7,1.3c1,0.3,2.1,0.4,3.1,0.4c0.8,0,1.5-0.1,2.3-0.2c0,0,0.1,0,0.1,0
			c2.2-0.5,4.5-0.9,6.7-1.2c3.3-0.5,6.7-0.7,10.2-0.7c5.8,0,11.3,0.5,16.4,1.6c5.2,1.1,9.7,2.6,13.9,4.7c1.5,0.8,3.2,1.1,4.9,1.1
			c1.2,0,2.3-0.2,3.4-0.5c0.2-0.1,0.5-0.2,0.7-0.2c3.8-1.2,7.9-2.2,12-3.1c3.5-0.7,7.2-1.4,10.9-1.9c0.5-0.1,1.1-0.2,1.6-0.2
			c3.7-0.4,7.5-0.7,11.2-1c4.3-0.3,8.7-0.5,13.2-0.5c5.1,0,10.2,0.2,15,0.7c4.5,0.4,8.8,0.9,12.8,1.5c1.2,0.2,2.5,0.4,3.7,0.6
			c0.6,0.1,1.3,0.2,1.9,0.2c4.9,0,9.3-3.3,10.6-8.2l6.4-24c3.6-13.6,16-23,30-23h40.1c9.6,0,18.8,4.5,24.6,12.1
			c5.8,7.6,7.8,17.7,5.4,26.9l-25,93.7c-0.8,3.1-0.3,6.3,1.5,9c1.8,2.6,4.6,4.4,7.7,4.8l0.1,0c0.5,0.1,1,0.1,1.5,0.1
			c0.5,0,1,0,1.5-0.1c1.4-0.2,2.8-0.3,4.2-0.3h12.9c9.6,0,18.8,4.5,24.6,12.1c5.8,7.6,7.8,17.7,5.4,26.9l-8,29.8
			c-3.6,13.6-16,23-30,23h-7.9c-0.9,0-1.7,0-2.6-0.1c-0.3,0-0.6,0-0.9,0s-0.6,0-0.9,0c-0.9,0.1-1.7,0.1-2.6,0.1h-6.9
			c-0.9,0-1.8,0-2.7-0.1c-0.3,0-0.6,0-0.9,0c-0.3,0-0.6,0-0.9,0c-0.9,0.1-1.8,0.1-2.7,0.1h-7.9c-1.3,0-2.7-0.1-4-0.3
			c-0.5-0.1-0.9-0.1-1.4-0.1c-0.5,0-0.9,0-1.4,0.1c-1.3,0.2-2.6,0.3-4,0.3h-8c-2.2,0-4.4-0.2-6.5-0.7c-0.8-0.2-1.6-0.3-2.3-0.3
			s-1.6,0.1-2.3,0.3c-2.2,0.5-4.4,0.7-6.6,0.7h-40.1c-0.7,0-1.4,0-2-0.1c-0.2,0-0.5,0-0.7,0c-0.2,0-0.5,0-0.7,0
			c-0.7,0-1.3,0.1-2,0.1h-40.1c-2.6,0-5.2-0.3-7.7-1c-0.9-0.2-1.8-0.3-2.7-0.3c-0.7,0-1.4,0.1-2.1,0.2c-0.6,0.1-1.3,0.2-1.9,0.4
			c-2,0.4-4.1,0.6-6.2,0.7c-0.2,0-0.5,0-0.7,0.1c-0.7,0.1-1.4,0.1-2.1,0.2c-0.3,0-0.5,0-0.8,0.1l-0.3,0c-0.2,0-0.3,0-0.5,0.1
			c-1.7,0.3-3.4,0.4-5.1,0.4h-1.1c-0.4,0-0.9,0-1.3,0.1c-1.1,0.1-2.3,0.2-3.5,0.2h-2.9c-4.5,0-8.8-0.3-12.9-0.8
			c-2.7-0.4-5.4-0.7-7.9-1.1c-0.9-0.1-1.7-0.3-2.6-0.5c-4.9-1.1-9.5-2.8-13.8-5.1c-4.2-2.2-8-4.8-11.3-7.7c0,0-0.1-0.1-0.1-0.1
			c-1.9-1.7-3.6-3.5-5.2-5.4c-2.1-2.5-5.2-4-8.5-4c-0.4,0-0.9,0-1.3,0.1c-3.7,0.4-6.9,2.7-8.6,6.1c-5.2,10.6-16.1,17.4-27.9,17.4
			h-40.1c-0.7,0-1.4,0-2-0.1c-0.2,0-0.5,0-0.7,0s-0.5,0-0.7,0c-0.7,0-1.3,0.1-2,0.1h-39.6c-3,0-6.1-0.5-9-1.3
			c-1-0.3-2.1-0.5-3.2-0.5c-0.9,0-1.8,0.1-2.7,0.3c-1.4,0.4-2.6,0.6-3.9,0.9c-1.1,0.2-2.2,0.4-3.2,0.5c-1.6,0.1-3.3,0.3-5.3,0.6
			c-3.4,0.4-6.9,0.6-10.4,0.6c-4.6,0-9-0.3-13.2-0.8c-4.7-0.6-9.2-1.5-13.2-2.7c-0.4-0.1-0.8-0.3-1.2-0.4c-3-1.1-5.9-2.3-8.6-3.7
			c-1.6-0.8-3.4-1.3-5.1-1.3c-1.5,0-3,0.3-4.4,0.9c-0.8,0.4-1.6,0.7-2.4,1c-4.1,1.6-8.4,3-12.9,4l-0.3,0.1c-4.6,1-9.6,1.7-14.8,2.1
			c-4.4,0.3-9.1,0.5-14.1,0.5c-4.4,0-8.6-0.2-12.5-0.5c-2.8-0.2-5.5-0.4-8-0.6c-1.2-0.1-2.4-0.2-3.7-0.5c-4.3-0.8-8.4-1.9-12.1-3.2
			c-1.3-0.4-2.6-0.9-3.8-1.4c-1.3-0.6-2.8-0.8-4.2-0.8c-2,0-4,0.5-5.8,1.6c-4.9,3-10.5,4.6-16.2,4.6h-40.1c-0.7,0-1.4,0-2.2-0.1
			c-0.3,0-0.5,0-0.8,0c-0.3,0-0.5,0-0.8,0c-0.7,0-1.4,0.1-2.1,0.1h-39.6c-3,0-6.1-0.5-9-1.3c-1-0.3-2.1-0.5-3.2-0.5
			c-0.9,0-1.8,0.1-2.7,0.3c-1.4,0.3-2.6,0.6-3.9,0.9c-1.1,0.2-2.2,0.4-3.2,0.5c-1.6,0.1-3.3,0.3-5.3,0.6c-3.4,0.4-6.9,0.6-10.4,0.6
			c-0.4,0-1.2,0-1.3,0c-1.2,0-2.4,0.2-3.5,0.6c-3.9,1.3-8,2-12.2,2H384z"/>
		<path class="st1" d="M1107.2,40.1c6.1,0,12.2,3,15.9,7.8c3.7,4.8,5,11.5,3.5,17.4l-25,93.7c-1.6,6.1-0.5,12.6,3,17.9
			c3.5,5.3,9.1,8.8,15.4,9.6l0.1,0c1,0.1,2,0.2,3,0.2c1,0,2-0.1,2.9-0.2c0.9-0.1,1.8-0.2,2.7-0.2h12.9c6.1,0,12.2,3,15.9,7.8
			c3.8,4.9,5.1,11.4,3.5,17.4l-8,29.8c-2.3,8.8-10.3,14.9-19.4,14.9h-7.9c-0.5,0-1.1,0-1.7-0.1c-0.6-0.1-1.2-0.1-1.9-0.1
			s-1.2,0-1.9,0.1c-0.6,0-1.1,0.1-1.7,0.1h-6.9c-0.6,0-1.1,0-1.7-0.1c-0.6-0.1-1.3-0.1-1.9-0.1c-0.6,0-1.3,0-1.9,0.1
			c-0.6,0-1.1,0.1-1.7,0.1h-7.9c-0.9,0-1.7-0.1-2.6-0.2c-0.9-0.1-1.9-0.2-2.8-0.2c-0.9,0-1.9,0.1-2.8,0.2c-0.8,0.1-1.7,0.2-2.6,0.2
			h-8c-1.4,0-2.8-0.2-4.2-0.5c-1.5-0.3-3.1-0.5-4.7-0.5c-1.6,0-3.1,0.2-4.7,0.5c-1.4,0.3-2.8,0.5-4.2,0.5h-40.1c-0.4,0-0.9,0-1.3,0
			c-0.5,0-1,0-1.5,0c-0.5,0-1,0-1.5,0c-0.4,0-0.9,0-1.3,0h-40.1c-1.7,0-3.3-0.2-4.9-0.6c-1.8-0.5-3.6-0.7-5.5-0.7
			c-1.4,0-2.8,0.1-4.2,0.4c-0.6,0.1-1.2,0.2-1.8,0.3c-1.5,0.3-3.1,0.5-4.8,0.5c-0.5,0-1,0.1-1.5,0.1c-0.5,0.1-1,0.1-1.5,0.1
			c-0.5,0-1,0.1-1.5,0.1l-0.2,0c-0.3,0-0.6,0.1-1,0.1c-1.1,0.2-2.2,0.3-3.3,0.3h-0.5h-0.5h-0.1c-0.8,0-1.6,0-2.5,0.1
			c-0.7,0.1-1.5,0.1-2.2,0.1h-0.7H937h-0.5H936h-0.4c-4,0-7.9-0.2-11.4-0.7c-2.5-0.3-5.2-0.7-7.8-1.1c-0.6-0.1-1.1-0.2-1.7-0.3
			c-3.9-0.9-7.7-2.3-11.2-4.1c-3.4-1.8-6.5-3.9-9.1-6.2l-0.1,0c-1.5-1.3-2.9-2.7-4.1-4.2c-4.2-5.1-10.4-7.9-16.9-7.9
			c-0.9,0-1.7,0.1-2.6,0.2c-7.4,0.9-13.9,5.5-17.1,12.2c-3.3,6.8-10.4,11.2-18,11.2h-40.1c-0.4,0-0.9,0-1.3,0c-0.5,0-1,0-1.5,0
			c-0.5,0-1,0-1.5,0c-0.4,0-0.9,0-1.3,0h-39.6c-1.9,0-3.9-0.3-5.8-0.9c-2.1-0.6-4.2-1-6.4-1c-1.8,0-3.7,0.2-5.5,0.7
			c-1.1,0.3-2.2,0.5-3.2,0.7c-0.7,0.1-1.4,0.2-2.1,0.3c-1.7,0.1-3.5,0.3-5.6,0.6c-3,0.4-6,0.5-9.1,0.5c-4.1,0-8.1-0.2-11.8-0.7
			c-4.1-0.5-7.9-1.3-11.3-2.3c-0.3-0.1-0.5-0.2-0.8-0.3c-2.5-0.9-4.9-1.9-7.1-3.1c-3.2-1.7-6.7-2.6-10.3-2.6c-3,0-6,0.6-8.9,1.9
			c-0.7,0.3-1.4,0.6-2.1,0.9c-3.6,1.4-7.4,2.6-11.3,3.6l-0.2,0c-4.1,0.9-8.5,1.5-13.2,1.9c-4.1,0.3-8.6,0.4-13.3,0.4
			c-4.1,0-8-0.2-11.6-0.5c-2.9-0.2-5.7-0.5-8.2-0.6c-0.8-0.1-1.6-0.2-2.4-0.3c-3.8-0.7-7.3-1.6-10.5-2.7c-1.1-0.4-2.2-0.8-3.2-1.2
			c-2.7-1.1-5.6-1.7-8.4-1.7c-4,0-8,1.1-11.5,3.3c-3.2,1.9-6.8,3-10.5,3h-40.1c-0.5,0-0.9,0-1.4,0c-0.5,0-1-0.1-1.5-0.1
			c-0.5,0-1,0-1.5,0.1c-0.5,0-0.9,0-1.4,0h-39.6c-1.9,0-3.9-0.3-5.8-0.9c-2.1-0.6-4.2-1-6.4-1c-1.8,0-3.7,0.2-5.5,0.7
			c-1.1,0.3-2.2,0.5-3.3,0.7c-0.7,0.1-1.4,0.2-2.1,0.3c-1.7,0.1-3.5,0.3-5.6,0.6c-3,0.4-6,0.5-9.1,0.5c-0.3,0-0.7,0-1,0
			c-0.1,0-0.1,0-0.2,0c-2.4,0-4.8,0.4-7.1,1.2c-2.8,1-5.7,1.4-8.6,1.4H384c-16.5,0-32.2-6.3-44.2-17.7l-32.4-30.9
			c-4.2-4-9.7-6.1-15.2-6.1c-3.7,0-7.3,0.9-10.7,2.8c-5.8,3.2-12,5.5-18.5,6.8c-8.2,1.6-14.8,7.8-17,15.9l-2.9,10.7
			c-2.3,8.8-10.3,14.9-19.4,14.9h-40.1c-1.7,0-3.3-0.2-4.9-0.6c-1.8-0.5-3.6-0.7-5.5-0.7c-1.4,0-2.8,0.1-4.2,0.4
			c-0.6,0.1-1.1,0.2-1.7,0.3c0,0,0,0-0.1,0c-1.5,0.3-3.1,0.5-4.8,0.5c-0.5,0-1,0.1-1.5,0.1c-0.5,0.1-1,0.1-1.5,0.1
			c-0.5,0-1,0.1-1.5,0.1l-0.2,0c-0.3,0-0.7,0.1-1,0.1c-1.1,0.2-2.2,0.3-3.3,0.3h-0.5h-0.5h-0.1c-0.8,0-1.6,0-2.5,0.1
			c-0.7,0.1-1.5,0.1-2.2,0.1h-0.7h-0.9h-0.5h-0.4h-0.4c-4,0-7.9-0.2-11.4-0.7c-2.5-0.3-5.2-0.7-7.8-1.1c-0.6-0.1-1.1-0.2-1.7-0.3
			c-1.2-0.3-2.3-0.6-3.5-0.9c-2.1-0.7-4.3-1-6.5-1c-2.8,0-5.5,0.5-8.2,1.6c-2.4,0.9-4.8,1.4-7.4,1.4H58.3c-6.1,0-12.2-3-15.9-7.8
			c-3.7-4.8-5-11.5-3.5-17.4L85.9,55c2.3-8.8,10.3-14.9,19.4-14.9h40.1c6.1,0,12.2,3,15.9,7.8c3.7,4.8,5,11.3,3.5,17.2
			c-1.7,6.8-0.2,14,4.3,19.4c4.2,5.1,10.5,8.1,17,8.1c0.4,0,0.7,0,1.1,0c2.8-0.1,5.7-0.2,8.6-0.2c4.8,0,9.5,0.2,14,0.6
			c4.3,0.4,8.4,0.9,12.2,1.5c4.2,0.6,8.2,1.4,11.9,2.4c4,1,7.8,2.3,11.2,3.8c0.2,0.1,0.4,0.2,0.6,0.3c1.3,0.6,2.5,1.3,3.7,2
			c3.5,2.1,7.4,3.2,11.4,3.2c4.2,0,8.3-1.2,11.9-3.5c10.3-6.6,22.2-10.1,34.6-10.1h31.8c3.6,0,7,0.7,10.3,2c2.7,1.1,5.6,1.7,8.4,1.7
			c2.2,0,4.3-0.3,6.4-1c6-1.8,12.3-2.8,18.7-2.8h31.8c1.4,0,2.8,0.1,4.2,0.3c1.2,0.2,2.3,0.3,3.5,0.3c0.5,0,0.9,0,1.4,0
			c0.4,0,0.8,0,1.2,0h40c3.1,0,6.2,0.7,9,2.2c3.1,1.6,6.5,2.3,9.9,2.3c3.4,0,6.8-0.8,9.9-2.4c2.8-1.4,5.8-2.1,9-2.1h13.5
			c10,0,18.7-6.7,21.3-16.3l5.8-21.6c2.3-8.8,10.3-14.9,19.4-14.9H603c6.2,0,12.1,2.9,15.9,7.8c1.1,1.5,2.1,3.2,2.8,5
			C625,61.4,633.1,67,642.3,67h13.3c6.2,0,12.1,2.9,15.9,7.8c1,1.4,1.9,2.9,2.6,4.5c3.4,8.2,11.4,13.6,20.3,13.6h1.1
			c0.8,0,1.5,0,2.3,0.1c0.8,0.1,1.6,0.1,2.5,0.1c0.8,0,1.6,0,2.5-0.1c0.8-0.1,1.5-0.1,2.3-0.1h40.1c3.1,0,6.2,0.7,9,2.2
			c3.1,1.6,6.5,2.3,9.9,2.3c3.4,0,6.8-0.8,9.9-2.4c2.8-1.4,5.8-2.1,9-2.1h40.1c0.4,0,0.9,0,1.3,0c0.5,0,1,0,1.4,0c0.5,0,1,0,1.4,0
			c0.4,0,0.9,0,1.3,0h38.8c1.9,0,3.8,0.3,5.6,0.8c2,0.6,4.1,0.9,6.2,0.9c1.4,0,2.9-0.1,4.3-0.4l0.3-0.1c0,0,0.1,0,0.1,0
			c2-0.4,4-0.8,6.1-1.1c2.7-0.4,5.6-0.6,8.5-0.6c5.1,0,9.8,0.5,14.1,1.4c4.3,0.9,8,2.2,11.3,3.8c3.1,1.5,6.4,2.3,9.8,2.3
			c2.3,0,4.6-0.4,6.9-1.1c0.2-0.1,0.4-0.1,0.6-0.2c3.5-1.1,7.1-2,10.9-2.8c3.4-0.7,6.9-1.3,10.4-1.9c0.3-0.1,0.7-0.1,1-0.1
			c3.6-0.4,7.3-0.7,10.9-1c4-0.3,8.1-0.5,12.3-0.5c4.8,0,9.5,0.2,14,0.6c4.3,0.4,8.4,0.9,12.2,1.5c1.2,0.2,2.3,0.4,3.4,0.6
			c1.3,0.2,2.6,0.3,3.9,0.3c9.8,0,18.6-6.6,21.2-16.3l6.4-24c2.3-8.8,10.3-14.9,19.4-14.9H1107.2 M1107.2,18.1h-40.1
			c-19,0-35.7,12.8-40.6,31.2l-6.4,24c-1.3-0.2-2.7-0.5-4-0.7c-4.3-0.6-8.8-1.2-13.5-1.6c-5.2-0.5-10.5-0.7-16-0.7
			c-4.7,0-9.4,0.2-14,0.5c-3.8,0.3-7.7,0.6-11.5,1c-0.7,0.1-1.4,0.2-2.2,0.3c-3.9,0.6-7.7,1.3-11.3,2c-4.5,0.9-9,2-13.1,3.3
			c-0.3,0.1-0.6,0.2-0.9,0.3c-5-2.5-10.4-4.3-16.5-5.6c-5.8-1.2-12.1-1.8-18.7-1.8c-4,0-8,0.3-11.8,0.9c-2.5,0.4-5,0.8-7.4,1.4
			c0,0,0,0-0.1,0c-3.8-1.1-7.8-1.7-11.8-1.7h-38.8c-0.9,0-1.8,0-2.8,0.1c-0.9-0.1-1.8-0.1-2.8-0.1h-40.1c-6.7,0-13.2,1.6-18.9,4.5
			c-5.8-2.9-12.3-4.5-18.9-4.5h-40.1c-1.6,0-3.2,0.1-4.8,0.3c-1.6-0.2-3.2-0.3-4.8-0.3h-1.1c-1.4-3.4-3.2-6.5-5.5-9.5
			C681,51.1,668.5,45,655.6,45h-13.3c-1.4-3.7-3.4-7.3-5.9-10.5C628.5,24.2,616,18.1,603,18.1h-40.1c-19,0-35.7,12.8-40.6,31.2
			l-5.8,21.6H503c-6.7,0-13.2,1.6-18.9,4.5c-5.8-2.9-12.3-4.5-18.9-4.5h-40c-0.9,0-1.7,0-2.6,0.1c-2.6-0.4-5.1-0.6-7.7-0.6h-31.9
			c-8.6,0-17,1.3-25.1,3.7c-5.8-2.4-12.1-3.7-18.7-3.7h-31.8c-16.7,0-32.8,4.8-46.5,13.7c-1.9-1.1-3.8-2.1-5.8-3.1
			c-0.4-0.2-0.9-0.4-1.3-0.6c-4.4-1.9-9.2-3.5-14.3-4.8c-4.5-1.1-9.2-2.1-14.1-2.8c-4.3-0.6-8.8-1.2-13.5-1.6
			c-5.2-0.5-10.5-0.7-16-0.7c-3.3,0-6.5,0.1-9.7,0.2c3.2-12.4,0.4-25.9-7.4-36.1c-7.9-10.3-20.4-16.4-33.3-16.4h-40.1
			c-19,0-35.7,12.8-40.6,31.2l-47,176.1c-3.3,12.5-0.6,26.2,7.3,36.5c7.9,10.3,20.4,16.4,33.3,16.4h40.1c5.4,0,10.7-1.1,15.5-3
			c1.7,0.5,3.4,1,5.1,1.4c1.1,0.3,2.3,0.5,3.5,0.7c2.6,0.4,5.2,0.7,8,1.1c4.5,0.6,9.3,0.9,14.3,0.9h0.4h0.4h0.5h0.9h0.7
			c1.6,0,3.1-0.1,4.7-0.3h0.1h0.5h0.5c2.3,0,4.6-0.2,6.9-0.6c0.2,0,0.3,0,0.5-0.1c0.9-0.1,1.8-0.1,2.7-0.2c2.6-0.1,5.2-0.4,7.6-0.9
			c0.7-0.1,1.4-0.2,2-0.4c3.4,0.9,6.9,1.3,10.4,1.3h40.1c19,0,35.7-12.8,40.6-31.2l2.9-10.7c8.8-1.7,17.2-4.8,24.9-9.1l32.4,30.9
			c16.1,15.3,37.2,23.8,59.4,23.8h31.8c5.4,0,10.7-0.9,15.7-2.6c0.4,0,0.8,0,1.3,0c3.9,0,7.9-0.2,11.7-0.7c1.9-0.2,3.5-0.4,5-0.5
			c1.5-0.1,2.9-0.3,4.4-0.6c1.5-0.3,2.9-0.6,4.5-1c3.9,1.2,8,1.8,12.2,1.8h39.6c1,0,1.9,0,2.9-0.1c1,0.1,1.9,0.1,2.9,0.1h40.1
			c8,0,15.5-2.3,22-6.2c1.4,0.6,2.9,1.1,4.4,1.7c4.2,1.5,8.8,2.7,13.7,3.6c1.6,0.3,3.3,0.5,4.9,0.6c2.4,0.2,5.1,0.4,7.8,0.6
			c4.2,0.4,8.8,0.5,13.5,0.5c5.2,0,10.2-0.2,14.9-0.5c5.7-0.4,11.3-1.2,16.4-2.4c0.2,0,0.3-0.1,0.5-0.1c5-1.2,9.9-2.7,14.5-4.5
			c0.9-0.4,1.9-0.8,2.8-1.2c3.1,1.7,6.5,3.1,10,4.4c0.5,0.2,1.1,0.4,1.7,0.6c4.7,1.4,9.7,2.5,15.1,3.2c4.6,0.6,9.5,0.8,14.5,0.8
			c3.9,0,7.9-0.2,11.7-0.7c1.9-0.2,3.5-0.4,5-0.5c1.5-0.1,2.9-0.3,4.4-0.6c1.5-0.3,2.9-0.6,4.5-1c3.9,1.2,8,1.8,12.2,1.8h39.6
			c0.9,0,1.8,0,2.8-0.1c0.9,0.1,1.8,0.1,2.8,0.1h40.1c16.2,0,30.8-9.4,37.8-23.5c1.9,2.3,4.1,4.5,6.4,6.6c0.1,0,0.1,0.1,0.2,0.1
			c3.9,3.5,8.5,6.5,13.5,9.1c5.2,2.7,10.7,4.7,16.5,6.1c1.1,0.3,2.3,0.5,3.5,0.7c2.6,0.4,5.2,0.7,8,1.1c4.5,0.6,9.3,0.9,14.3,0.9
			h0.4h0.4h0.5h0.9h0.7c1.6,0,3.1-0.1,4.7-0.3h0.1h0.5h0.5c2.3,0,4.6-0.2,6.9-0.6c0.2,0,0.3,0,0.5-0.1c0.9-0.1,1.8-0.1,2.7-0.2
			c2.6-0.1,5.1-0.4,7.6-0.9c0.7-0.1,1.4-0.2,2-0.4c3.4,0.9,6.9,1.3,10.4,1.3h40.1c0.9,0,1.8,0,2.8-0.1c0.9,0.1,1.8,0.1,2.8,0.1h40.1
			c3,0,6-0.3,8.9-1c2.9,0.6,5.9,1,8.9,1h8c1.8,0,3.6-0.1,5.4-0.3c1.8,0.2,3.6,0.3,5.4,0.3h7.9c1.2,0,2.4-0.1,3.6-0.2
			c1.2,0.1,2.4,0.2,3.6,0.2h6.9c1.2,0,2.4-0.1,3.5-0.2c1.2,0.1,2.4,0.2,3.5,0.2h7.9c19,0,35.7-12.8,40.6-31.2l8-29.8
			c3.3-12.5,0.6-26.2-7.3-36.5c-7.9-10.3-20.4-16.4-33.3-16.4h-12.9c-1.9,0-3.8,0.1-5.7,0.4c-0.1,0-0.1,0-0.2,0l25-93.7
			c3.3-12.5,0.6-26.2-7.3-36.5C1132.7,24.2,1120.2,18.1,1107.2,18.1L1107.2,18.1z"/>
	</g>
	<g>
		<g>
			<polygon class="st2" points="105.3,60.6 58.3,236.7 98.4,236.7 145.4,60.6 			"/>
			<path class="st2" d="M207.6,194.3c-1.8-4.6-0.7-9.8,2.9-13.2l36.9-35.2c0.1-0.8,0.2-1.6,0.3-2.4c0.4-4.2,0.2-7.9-0.5-11.1
				c-0.7-3.2-1.8-5.8-3.4-7.9c-1.6-2.1-3.7-3.8-6.3-5c-2.5-1.1-5.2-2-8.3-2.8c-3.1-0.8-6.4-1.5-9.9-2c-3.5-0.5-7.2-1-11.1-1.3
				c-3.9-0.3-7.9-0.5-12.1-0.5c-3.7,0-7.3,0.1-10.8,0.4c-3.5,0.3-7,0.6-10.3,0.9c-3.3,0.5-6.6,1.1-9.6,1.7c-3.1,0.6-6,1.4-8.8,2.2
				c-2.8,0.9-5.5,2.2-8.1,4.1c-2.6,1.8-4.8,4.1-6.7,6.7c-2.1,2.6-4,5.7-5.5,9.2c-1.6,3.5-3,7.5-4.2,11.9h40.7v0.5
				c0.3-1.4,0.8-2.7,1.3-3.8c0.5-1.1,1.1-2.2,1.8-3c0.5-0.9,1.1-1.7,1.8-2.4c0.7-0.7,1.4-1.2,2.1-1.6c0.9-0.4,1.8-0.7,2.6-1.1
				c0.9-0.3,1.9-0.6,3.2-0.8c1.1-0.2,2.2-0.3,3.4-0.4c1.2-0.1,2.5-0.1,4-0.1c1.4,0,2.8,0.1,4.1,0.3c1.3,0.2,2.5,0.4,3.6,0.8
				c1.1,0.2,2,0.5,2.8,0.9c0.8,0.4,1.5,0.9,2,1.5c0.5,0.5,0.9,1.2,1.2,2c0.3,0.8,0.5,1.7,0.7,2.8c0,1.1,0,2.2-0.1,3.3
				c-0.1,1.1-0.3,2.4-0.7,3.8l-6.1,22.4l-1.8,0.5c-0.2-1.4-0.5-2.7-1.1-3.8c-0.5-1.1-1.1-2.2-1.8-3c-0.7-0.9-1.5-1.7-2.4-2.4
				c-0.9-0.7-1.9-1.2-3.2-1.6c-0.4-0.2-0.8-0.3-1.2-0.4c-0.4-0.1-0.8-0.2-1.2-0.4c-0.7-0.2-1.5-0.3-2.2-0.5
				c-0.8-0.2-1.6-0.4-2.5-0.5c-1.2-0.2-2.5-0.3-3.7-0.4c-1.2-0.1-2.6-0.2-4-0.4c-0.2,0-0.4,0-0.5,0c-0.2,0-0.3,0-0.4,0
				c-0.1,0-0.2,0-0.4,0c-0.2,0-0.4,0-0.5,0c-0.2,0-0.4,0-0.5,0c-0.2,0-0.4,0-0.5,0c-0.2,0-0.4,0-0.5,0c-0.2,0-0.4,0-0.5,0
				c-0.2,0-0.4,0-0.5,0c-3.7,0-7.2,0.2-10.6,0.5c-3.3,0.4-6.5,0.9-9.5,1.6c-3,0.7-5.9,1.5-8.6,2.4c-2.7,0.9-5.3,2-7.8,3.4
				c-2.5,1.2-4.8,2.9-6.9,4.9c-2.1,2-4.1,4.4-5.8,7c-1.8,2.6-3.3,5.7-4.7,9.1c-1.4,3.4-2.7,7.2-4,11.2c-0.9,3.3-1.5,6.4-1.7,9.2
				c-0.3,2.8-0.2,5.5,0.1,7.9c0.3,2.3,1,4.3,2,6.1c1,1.8,2.2,3.3,3.8,4.8c1.4,1.2,3.1,2.4,5.1,3.4c2,1.1,4.2,1.8,6.5,2.4
				c2.5,0.4,5,0.7,7.7,1.1c2.6,0.4,5.5,0.5,8.7,0.5c0.2,0,0.3,0,0.4,0c0.1,0,0.2,0,0.4,0c0.2,0,0.3,0,0.5,0c0.4,0,0.7,0,0.9,0
				c0.3,0,0.5,0,0.7,0c0.4-0.2,0.7-0.3,0.9-0.3c0.3,0,0.5,0,0.7,0c0.4,0,0.7,0,0.9,0c0.3,0,0.5,0,0.7,0c0.4,0,0.7,0,0.9,0
				s0.5,0,0.7,0c0.2,0,0.3,0,0.5,0c0.2,0,0.4,0,0.5,0c0.2-0.2,0.3-0.3,0.5-0.3c0.2,0,0.3,0,0.5,0c0.2,0,0.3,0,0.4,0
				c0.1,0,0.2,0,0.4,0c0.2-0.2,0.3-0.3,0.4-0.3c0.1,0,0.2,0,0.4,0c0.4,0,0.7,0,0.9,0c0.3,0,0.5,0,0.7,0c0.5,0,1,0,1.5-0.1
				c0.4-0.1,0.9-0.1,1.5-0.1c1.1,0,2.1-0.1,3-0.3c1-0.2,1.9-0.4,2.8-0.5c1.4-0.3,2.9-0.8,4.4-1.3c1.5-0.5,3-1.1,4.6-1.8
				c1.4-0.7,2.7-1.5,4-2.4c1.2-0.9,2.4-1.9,3.4-3.2c1.1-1.1,2.1-2.3,3-3.8c1-1.5,1.8-3.1,2.5-4.9h1.6l-6.3,18.2h40.1l9.3-34.9h-14.4
				C213.8,201.8,209.4,198.9,207.6,194.3z M194.5,193.4c0,0.4,0,0.7,0,1.1c0,0.4-0.1,0.7-0.3,1.1c0,0.2,0,0.4,0,0.8
				c0,0.2,0,0.4-0.1,0.5c-0.1,0.2-0.1,0.4-0.1,0.5c0,0.2,0,0.4,0,0.5v0.3c-0.2,0.2-0.3,0.4-0.3,0.5v0.3c-0.4,1.6-0.8,3-1.5,4.2
				c-0.6,1.2-1.4,2.3-2.2,3.2c-0.7,0.9-1.5,1.7-2.5,2.4c-1,0.7-2,1.2-3,1.6c-1.2,0.4-2.4,0.7-3.6,0.9c-1.1,0.3-2.2,0.5-3.3,0.7
				c-1.2,0.2-2.5,0.3-3.7,0.4c-1.2,0.1-2.5,0.1-3.7,0.1c-1.2,0-2.5,0-3.8,0c-1.3,0-2.5-0.1-3.6-0.3c-1.1-0.2-2.1-0.4-3-0.7
				c-1-0.3-1.9-0.5-2.8-0.7c-1.1-0.4-1.9-0.8-2.5-1.3c-0.6-0.5-1-1.3-1.2-2.4c-0.2-1.1-0.2-2.3-0.1-3.7c0.1-1.4,0.4-3,0.9-4.8v0.5
				c0.3-1.4,0.7-2.7,1.2-3.8c0.4-1.1,1-2.2,1.7-3c0.5-0.9,1.2-1.6,2-2.2c0.8-0.6,1.7-1.1,2.8-1.5c0.9-0.3,1.8-0.7,2.9-0.9
				c1.1-0.3,2.2-0.5,3.4-0.7c1.1-0.2,2.2-0.3,3.3-0.4c1.1-0.1,2.3-0.1,3.6-0.1c0.4,0,0.7,0,0.9,0c0.3,0,0.6,0,0.9,0
				c0.3,0,0.7,0,1.1,0c0.3,0,0.7,0,1.1,0c0.2,0,0.3,0,0.5,0c0.2,0,0.4,0,0.5,0c0.2,0,0.4,0,0.7,0s0.5,0,0.7,0
				c0.2,0.2,0.3,0.3,0.5,0.3c0.2,0,0.4,0,0.5,0c0.2,0,0.3,0,0.5,0c0.2,0,0.3,0,0.5,0c0.4,0,0.6,0,0.8,0.1c0.2,0.1,0.4,0.1,0.8,0.1
				c0.2,0.2,0.4,0.3,0.7,0.3c0.3,0,0.5,0,0.7,0c0.4,0,0.6,0,0.8,0c0.2,0,0.4,0.1,0.5,0.3c0.2,0,0.4,0,0.7,0.1
				c0.3,0.1,0.5,0.1,0.7,0.1c0.3,0.2,0.7,0.3,1.2,0.4c0.4,0.1,0.8,0.3,1.2,0.7c0.2,0.2,0.3,0.3,0.5,0.4c0.2,0.1,0.3,0.1,0.5,0.1
				c0.2,0.2,0.4,0.3,0.5,0.4c0.2,0.1,0.3,0.2,0.5,0.4c0.2,0.2,0.3,0.4,0.4,0.7c0.1,0.3,0.2,0.6,0.4,0.9c0.2,0.2,0.3,0.4,0.3,0.7
				C194.5,192.7,194.5,193,194.5,193.4z"/>
			<path class="st2" d="M503,113.4l-17.4,64.7l-1.8,6.9c-0.4,1.2-0.7,2.5-1.2,3.7c-0.4,1.2-0.9,2.4-1.5,3.4
				c-0.2,0.4-0.4,0.7-0.5,1.1c-0.2,0.4-0.4,0.7-0.5,1.1c-0.9,1.2-1.8,2.5-2.8,3.7c-1,1.2-2.1,2.3-3.3,3.2c-1.2,1.1-2.5,2-3.8,2.8
				c-1.3,0.8-2.7,1.5-4.1,2c-1.4,0.5-2.9,0.9-4.5,1.1c-1.6,0.2-3.3,0.3-5,0.3c-1.8,0-3.4-0.1-4.9-0.4c-1.5-0.3-2.7-0.7-3.6-1.2
				c-1.1-0.5-1.8-1.2-2.4-2.1c-0.5-0.9-0.9-1.9-1.1-3.2c-0.2-1.1-0.3-2.2-0.4-3.6c-0.1-1.3,0-2.6,0.1-3.8c0.2-1.4,0.4-2.8,0.8-4.2
				c0.3-1.4,0.7-3,1.1-4.8l19-70.5h-40c0.3,0.5,0.5,1,0.8,1.6c1.8,4.6,0.7,9.7-2.9,13.2l-2.7,2.6l-18,66.6c-0.5,2-0.9,3.9-1.3,5.8
				l23,21.9c3.4,3.2,4.6,8.1,3.1,12.5c1.8,0.1,3.7,0.2,5.6,0.2c2.3,0,4.5-0.1,6.7-0.4c2.2-0.3,4.3-0.5,6.2-0.7
				c0.9-0.2,1.8-0.4,2.8-0.7c1-0.3,2-0.6,3-0.9c1.1-0.3,2.1-0.7,3-1.1c1-0.3,1.9-0.8,2.8-1.3c1.8-0.9,3.5-2,5.1-3.3
				c1.7-1.3,3.3-2.8,4.9-4.4c1.6-1.6,3.1-3.4,4.6-5.4c1.5-2,2.9-4.2,4.1-6.5h1.8l-7.4,23.5h39.6l33-123.3H503z"/>
			<polygon class="st2" points="562.9,60.6 515.9,236.7 556.1,236.7 603,60.6 			"/>
			<path class="st2" d="M680.1,192.1c0-0.2,0-0.3,0-0.5l0.3-0.3c0-0.2,0-0.3,0-0.5c-0.2,0-0.3,0-0.3-0.1c0-0.1,0.1-0.2,0.3-0.4
				c0-0.2,0-0.3,0-0.4c0-0.1,0-0.2,0-0.4c0.2-0.3,0.3-0.7,0.4-0.9c0.1-0.3,0.1-0.5,0.1-0.7c0-0.2,0-0.3,0.1-0.4
				c0.1-0.1,0.1-0.2,0.1-0.4c0-0.2,0-0.4,0.1-0.5c0.1-0.2,0.1-0.4,0.1-0.5l-32.5,0.5c0,0.2,0,0.4,0,0.5c0,0.2,0,0.3-0.1,0.4
				c-0.1,0.1-0.1,0.2-0.1,0.4c0,0.2,0,0.4,0,0.5c-0.2,0.2-0.3,0.4-0.3,0.5c-0.2,0.2-0.3,0.4-0.3,0.5c0,0.2,0,0.4,0,0.5
				c-0.2,0.2-0.3,0.4-0.3,0.5c0,0.2,0,0.4,0,0.5c-0.2,0.2-0.4,0.4-0.5,0.5c0,0.2,0,0.3,0,0.4c0,0.1,0,0.2,0,0.4
				c0,0.2-0.1,0.4-0.3,0.5c0,0.2-0.1,0.4-0.3,0.5c0,0.2,0,0.4,0,0.5c0,0.2-0.1,0.4-0.3,0.5c0,0.2,0,0.4,0,0.5c0,0.2-0.1,0.4-0.3,0.5
				c-0.4,1.1-0.7,2.1-1.2,3c-0.4,1-0.8,1.9-1.2,2.8c-0.4,0.7-0.7,1.5-1.2,2.2c-0.4,0.8-0.8,1.5-1.2,2c-0.5,0.7-1.1,1.3-1.7,1.7
				c-0.6,0.4-1.4,0.8-2.2,1.2c-0.7,0.2-1.6,0.4-2.6,0.5c-1.1,0.2-2.2,0.3-3.4,0.3c-0.9,0-1.7-0.1-2.4-0.3c-0.7-0.2-1.3-0.4-1.8-0.5
				c-0.4-0.4-0.7-0.7-0.9-1.1c-0.3-0.4-0.5-0.9-0.7-1.6c-0.2-0.5-0.3-1.1-0.4-1.6c-0.1-0.5-0.1-1.1-0.1-1.8c0.2-0.7,0.3-1.4,0.5-2.1
				c0.2-0.7,0.4-1.4,0.5-2.1c0-0.2,0-0.3,0-0.4c0-0.1,0-0.2,0-0.4c0.2-0.2,0.3-0.3,0.3-0.4c0-0.1,0-0.2,0-0.4c0-0.2,0.1-0.3,0.3-0.5
				v-0.3c0-0.2,0.1-0.4,0.3-0.5V195c-0.2,0-0.3,0-0.3-0.1c0-0.1,0-0.2,0-0.4l0.3-0.3v-0.3c0-0.2,0-0.3,0-0.5
				c0.2-0.2,0.3-0.4,0.3-0.5c0.2-0.2,0.3-0.4,0.3-0.5l13.2-49.9h46.7l7.9-29h-46.7l6.9-25.9h-40.1l-6.9,25.9h-15l-7.9,29h15
				l-15.6,58.3c-1.1,4.1-1.8,7.7-2.1,11.1c-0.4,3.3-0.4,6.3,0,9c0.3,2.6,1.1,4.8,2.4,6.6c1.2,1.8,2.8,3.2,4.7,4.2
				c1.8,1.1,3.8,2,6.1,2.8c2.3,0.8,4.8,1.5,7.7,2c2.6,0.2,5.5,0.4,8.6,0.7c3.1,0.3,6.4,0.4,9.9,0.4c4.2,0,8.2-0.1,11.9-0.4
				c3.7-0.3,7.1-0.7,10.3-1.5c3-0.7,5.8-1.6,8.4-2.6c2.6-1.1,5-2.3,7.1-3.7c2.1-1.4,4.1-3.2,5.9-5.3c1.8-2.1,3.6-4.5,5.1-7.1
				c1.4-2.6,2.8-5.5,4.1-8.7c1.3-3.2,2.5-6.7,3.6-10.6c0-0.2,0.1-0.4,0.3-0.5c0-0.4,0-0.6,0-0.8V196v-0.3c0-0.2,0.1-0.4,0.3-0.5V195
				c0-0.2,0-0.3,0-0.4c0-0.1,0.1-0.2,0.3-0.4c0-0.4,0-0.6,0-0.8l0.3-0.3v-0.3c0-0.2,0.1-0.4,0.3-0.5V192.1z"/>
			<path class="st2" d="M782.8,113.4l-17.4,64.7l-1.8,6.9c-0.4,1.2-0.7,2.5-1.2,3.7c-0.4,1.2-0.9,2.4-1.5,3.4
				c-0.2,0.4-0.4,0.7-0.5,1.1c-0.2,0.4-0.4,0.7-0.5,1.1c-0.9,1.2-1.8,2.5-2.8,3.7c-1,1.2-2.1,2.3-3.3,3.2c-1.2,1.1-2.5,2-3.8,2.8
				c-1.3,0.8-2.7,1.5-4.1,2c-1.4,0.5-2.9,0.9-4.5,1.1c-1.6,0.2-3.3,0.3-5,0.3c-1.8,0-3.4-0.1-4.9-0.4c-1.5-0.3-2.7-0.7-3.6-1.2
				c-1.1-0.5-1.8-1.2-2.4-2.1c-0.5-0.9-0.9-1.9-1.1-3.2c-0.2-1.1-0.3-2.2-0.4-3.6c-0.1-1.3,0-2.6,0.1-3.8c0.2-1.4,0.4-2.8,0.8-4.2
				c0.3-1.4,0.7-3,1.1-4.8l19-70.5h-40.1l-22.7,83.9c-0.9,3.3-1.5,6.6-1.8,9.6c-0.4,3.1-0.4,5.9-0.3,8.3c0.2,2.6,0.6,5,1.3,7.1
				c0.7,2.1,1.7,4.1,2.9,5.8c1.4,1.8,3,3.2,4.8,4.4c1.8,1.1,3.9,2.2,6.3,3c2.3,0.7,4.9,1.2,7.8,1.6c2.9,0.4,6,0.5,9.4,0.5
				c2.3,0,4.5-0.1,6.7-0.4c2.2-0.3,4.3-0.5,6.2-0.7c0.9-0.2,1.8-0.4,2.8-0.7c1-0.3,2-0.6,3-0.9c1.1-0.3,2.1-0.7,3-1.1
				c1-0.3,1.9-0.8,2.8-1.3c1.8-0.9,3.5-2,5.1-3.3c1.7-1.3,3.3-2.8,4.9-4.4c1.6-1.6,3.1-3.4,4.6-5.4c1.5-2,2.9-4.2,4.1-6.5h1.8
				l-7.4,23.5h39.6l33-123.3H782.8z"/>
			<path class="st2" d="M879.4,167.5c0-0.1,0-0.2,0.1-0.3l-0.1,0V167.5z"/>
			<path class="st2" d="M882.1,158c0,0.2,0,0.3,0,0.4c0,0.1,0,0.2,0,0.4c-0.2,0.2-0.3,0.3-0.3,0.4c0,0.1,0,0.2,0,0.4
				c-0.2,0.2-0.3,0.4-0.3,0.5c0,0.2,0,0.4,0,0.5c-0.2,0.2-0.3,0.4-0.3,0.5c0,0.2,0,0.4,0,0.5c-0.2,0.2-0.3,0.4-0.3,0.5
				c0,0.2,0,0.4,0,0.5c-0.2,0.2-0.3,0.4-0.3,0.5v0.3c-0.2,0.2-0.3,0.4-0.3,0.5c0,0.2,0,0.4,0,0.5c-0.2,0.2-0.3,0.3-0.3,0.4
				c0,0.1,0,0.2,0,0.4v0.3c-0.2,0.2-0.3,0.4-0.3,0.5c0,0.2,0,0.4,0,0.5l-0.3,0.3c-0.1,0.1-0.2,0.2-0.2,0.3l36.4,0.5
				c0-0.4,0-0.7,0.1-1.1c0.1-0.3,0.2-0.7,0.4-1.1c0-0.4,0-0.7,0.1-1.1c0.1-0.4,0.2-0.7,0.4-1.1c0-0.2,0-0.4,0-0.5
				c0-0.2,0.1-0.4,0.3-0.5c0-0.2,0.1-0.4,0.3-0.5c0-0.2,0-0.3,0-0.4c0-0.1,0-0.2,0-0.4c0-0.2,0-0.4,0-0.5c0-0.2,0-0.3,0-0.5
				c0-0.2,0.1-0.4,0.3-0.5c0-0.2,0-0.4,0-0.5l0.3-0.3c0-0.2,0-0.3,0-0.5c0-0.2,0.1-0.4,0.3-0.5c0-0.2,0-0.3,0-0.4c0-0.1,0-0.2,0-0.4
				c0.2-0.2,0.3-0.3,0.3-0.4c0-0.1,0-0.2,0-0.4c0.7-2.8,1.3-5.5,1.7-8.2c0.4-2.6,0.7-5.2,0.9-7.7c0.4-2.5,0.6-4.8,0.7-7.1
				c0.1-2.3,0.1-4.6,0.1-6.9c-0.2-2.3-0.8-4.3-1.8-5.9c-1.1-1.7-2.6-3-4.5-4.1c-1.9-1.1-4.4-1.9-7.3-2.5c-2.9-0.6-6.2-0.9-9.9-0.9
				c-1.9,0-3.8,0.1-5.5,0.4c-1.8,0.3-3.4,0.6-5,0.9c-1.8,0.4-3.3,0.8-4.8,1.3c-1.4,0.5-2.8,1.2-4.2,2.1c-1.2,0.7-2.5,1.6-3.8,2.6
				s-2.7,2.2-4.1,3.4c-1.2,1.2-2.5,2.5-3.7,3.8c-1.2,1.3-2.5,2.7-3.7,4.1h-1.8l5.5-18.2h-38.8l-33,123.3h40.1l18.7-70.7
				c0-0.2,0-0.3,0.1-0.4c0.1-0.1,0.1-0.2,0.1-0.4c0-0.2,0-0.3,0.1-0.4c0.1-0.1,0.1-0.2,0.1-0.4c0-0.4,0-0.7,0.1-0.9
				c0.1-0.3,0.2-0.5,0.4-0.7c0-0.2,0-0.3,0-0.4c0-0.1,0-0.2,0-0.4c0.2-0.2,0.3-0.4,0.3-0.5c0.2-0.2,0.3-0.3,0.3-0.5l0.3-0.3
				c0-0.2,0-0.3,0-0.5c0-0.2,0.1-0.4,0.3-0.5v-0.3c0.3-0.9,0.8-1.8,1.3-2.8c0.5-1,1.1-1.9,1.6-2.8c0.5-0.9,1.1-1.8,1.7-2.8
				c0.6-1,1.3-1.9,2-2.8c0.7-0.9,1.5-1.6,2.2-2.1c0.8-0.5,1.7-1.1,2.8-1.6c0.9-0.4,1.9-0.7,3-0.9c1.1-0.3,2.3-0.4,3.6-0.4
				c1.2,0,2.3,0.1,3.2,0.4c0.9,0.3,1.7,0.6,2.4,0.9c0.5,0.4,1,0.8,1.5,1.3c0.4,0.5,0.7,1.2,0.9,2.1c0,0.7,0,1.5,0,2.2
				c0,0.8,0.1,1.6,0.3,2.5c-0.2,0.7-0.3,1.5-0.4,2.5C882.4,156.2,882.2,157.1,882.1,158z"/>
			<path class="st2" d="M1038.3,143.5c0.4-4.2,0.2-7.9-0.5-11.1c-0.7-3.2-1.8-5.8-3.4-7.9c-1.6-2.1-3.7-3.8-6.3-5
				c-2.5-1.1-5.2-2-8.3-2.8c-3.1-0.8-6.4-1.5-9.9-2c-3.5-0.5-7.2-1-11.1-1.3c-3.9-0.3-7.9-0.5-12.1-0.5c-3.7,0-7.3,0.1-10.8,0.4
				c-3.5,0.3-7,0.6-10.3,0.9c-3.3,0.5-6.6,1.1-9.6,1.7c-3.1,0.6-6,1.4-8.8,2.2c-2.8,0.9-5.5,2.2-8.1,4.1c-2.6,1.8-4.8,4.1-6.7,6.7
				c-2.1,2.6-4,5.7-5.5,9.2c-1.6,3.5-3,7.5-4.2,11.9h40.7v0.5c0.3-1.4,0.8-2.7,1.3-3.8c0.5-1.1,1.1-2.2,1.8-3
				c0.5-0.9,1.1-1.7,1.8-2.4c0.7-0.7,1.4-1.2,2.1-1.6c0.9-0.4,1.8-0.7,2.6-1.1c0.9-0.3,1.9-0.6,3.2-0.8c1.1-0.2,2.2-0.3,3.4-0.4
				c1.2-0.1,2.5-0.1,4-0.1c1.4,0,2.8,0.1,4.1,0.3c1.3,0.2,2.5,0.4,3.6,0.8c1.1,0.2,2,0.5,2.8,0.9c0.8,0.4,1.5,0.9,2,1.5
				c0.5,0.5,0.9,1.2,1.2,2c0.3,0.8,0.5,1.7,0.7,2.8c0,1.1,0,2.2-0.1,3.3c-0.1,1.1-0.3,2.4-0.7,3.8l-6.1,22.4l-1.8,0.5
				c-0.2-1.4-0.5-2.7-1.1-3.8c-0.5-1.1-1.1-2.2-1.8-3c-0.7-0.9-1.5-1.7-2.4-2.4c-0.9-0.7-1.9-1.2-3.2-1.6c-0.4-0.2-0.8-0.3-1.2-0.4
				c-0.4-0.1-0.8-0.2-1.2-0.4c-0.7-0.2-1.5-0.3-2.2-0.5c-0.8-0.2-1.6-0.4-2.5-0.5c-1.2-0.2-2.5-0.3-3.7-0.4c-1.2-0.1-2.6-0.2-4-0.4
				c-0.2,0-0.4,0-0.5,0c-0.2,0-0.3,0-0.4,0c-0.1,0-0.2,0-0.4,0c-0.2,0-0.4,0-0.5,0c-0.2,0-0.4,0-0.5,0c-0.2,0-0.4,0-0.5,0
				c-0.2,0-0.4,0-0.5,0c-0.2,0-0.4,0-0.5,0c-0.2,0-0.4,0-0.5,0c-3.7,0-7.2,0.2-10.6,0.5c-3.3,0.4-6.5,0.9-9.5,1.6
				c-3,0.7-5.9,1.5-8.6,2.4c-2.7,0.9-5.3,2-7.8,3.4c-2.5,1.2-4.8,2.9-6.9,4.9c-2.1,2-4.1,4.4-5.8,7c-1.8,2.6-3.3,5.7-4.7,9.1
				c-1.4,3.4-2.7,7.2-4,11.2c-0.9,3.3-1.5,6.4-1.7,9.2c-0.3,2.8-0.2,5.5,0.1,7.9c0.3,2.3,1,4.3,2,6.1c1,1.8,2.2,3.3,3.8,4.8
				c1.4,1.2,3.1,2.4,5.1,3.4c2,1.1,4.2,1.8,6.5,2.4c2.5,0.4,5,0.7,7.7,1.1c2.6,0.4,5.5,0.5,8.7,0.5c0.2,0,0.3,0,0.4,0
				c0.1,0,0.2,0,0.4,0c0.2,0,0.3,0,0.5,0c0.4,0,0.7,0,0.9,0c0.3,0,0.5,0,0.7,0c0.4-0.2,0.7-0.3,0.9-0.3s0.5,0,0.7,0
				c0.4,0,0.7,0,0.9,0s0.5,0,0.7,0c0.4,0,0.7,0,0.9,0s0.5,0,0.7,0c0.2,0,0.3,0,0.5,0c0.2,0,0.4,0,0.5,0c0.2-0.2,0.3-0.3,0.5-0.3
				c0.2,0,0.3,0,0.5,0c0.2,0,0.3,0,0.4,0c0.1,0,0.2,0,0.4,0c0.2-0.2,0.3-0.3,0.4-0.3c0.1,0,0.2,0,0.4,0c0.4,0,0.7,0,0.9,0
				c0.3,0,0.5,0,0.7,0c0.5,0,1,0,1.5-0.1c0.4-0.1,0.9-0.1,1.5-0.1c1.1,0,2.1-0.1,3-0.3c1-0.2,1.9-0.4,2.8-0.5
				c1.4-0.3,2.9-0.8,4.4-1.3c1.5-0.5,3-1.1,4.6-1.8c1.4-0.7,2.7-1.5,4-2.4c1.2-0.9,2.4-1.9,3.4-3.2c1.1-1.1,2.1-2.3,3-3.8
				c1-1.5,1.8-3.1,2.5-4.9h1.6l-6.3,18.2h40.1l21.1-79.2C1037.1,152.4,1038,147.7,1038.3,143.5z M985.3,193.4c0,0.4,0,0.7,0,1.1
				c0,0.4-0.1,0.7-0.3,1.1c0,0.2,0,0.4,0,0.8c0,0.2,0,0.4-0.1,0.5c-0.1,0.2-0.1,0.4-0.1,0.5c0,0.2,0,0.4,0,0.5v0.3
				c-0.2,0.2-0.3,0.4-0.3,0.5v0.3c-0.4,1.6-0.8,3-1.5,4.2c-0.6,1.2-1.4,2.3-2.2,3.2c-0.7,0.9-1.5,1.7-2.5,2.4c-1,0.7-2,1.2-3,1.6
				c-1.2,0.4-2.4,0.7-3.6,0.9c-1.1,0.3-2.2,0.5-3.3,0.7c-1.2,0.2-2.5,0.3-3.7,0.4c-1.2,0.1-2.5,0.1-3.7,0.1c-1.2,0-2.5,0-3.8,0
				c-1.3,0-2.5-0.1-3.6-0.3c-1.1-0.2-2.1-0.4-3-0.7c-1-0.3-1.9-0.5-2.8-0.7c-1.1-0.4-1.9-0.8-2.5-1.3c-0.6-0.5-1-1.3-1.2-2.4
				c-0.2-1.1-0.2-2.3-0.1-3.7c0.1-1.4,0.4-3,0.9-4.8v0.5c0.3-1.4,0.7-2.7,1.2-3.8c0.4-1.1,1-2.2,1.7-3c0.5-0.9,1.2-1.6,2-2.2
				c0.8-0.6,1.7-1.1,2.8-1.5c0.9-0.3,1.8-0.7,2.9-0.9s2.2-0.5,3.4-0.7c1.1-0.2,2.2-0.3,3.3-0.4c1.1-0.1,2.3-0.1,3.6-0.1
				c0.4,0,0.7,0,0.9,0c0.3,0,0.6,0,0.9,0c0.3,0,0.7,0,1.1,0c0.3,0,0.7,0,1.1,0c0.2,0,0.3,0,0.5,0c0.2,0,0.4,0,0.5,0
				c0.2,0,0.4,0,0.7,0s0.5,0,0.7,0c0.2,0.2,0.3,0.3,0.5,0.3c0.2,0,0.4,0,0.5,0c0.2,0,0.3,0,0.5,0c0.2,0,0.3,0,0.5,0
				c0.4,0,0.6,0,0.8,0.1c0.2,0.1,0.4,0.1,0.8,0.1c0.2,0.2,0.4,0.3,0.7,0.3c0.3,0,0.5,0,0.7,0c0.4,0,0.6,0,0.8,0
				c0.2,0,0.4,0.1,0.5,0.3c0.2,0,0.4,0,0.7,0.1c0.3,0.1,0.5,0.1,0.7,0.1c0.3,0.2,0.7,0.3,1.2,0.4c0.4,0.1,0.8,0.3,1.2,0.7
				c0.2,0.2,0.3,0.3,0.5,0.4c0.2,0.1,0.3,0.1,0.5,0.1c0.2,0.2,0.4,0.3,0.5,0.4c0.2,0.1,0.3,0.2,0.5,0.4c0.2,0.2,0.3,0.4,0.4,0.7
				c0.1,0.3,0.2,0.6,0.4,0.9c0.2,0.2,0.3,0.4,0.3,0.7C985.3,192.7,985.3,193,985.3,193.4z"/>
			<polygon class="st2" points="1067.1,60.6 1020.1,236.7 1060.2,236.7 1107.2,60.6 			"/>
			<path class="st2" d="M421.9,236.2c1-2.5,0.4-5.4-1.6-7.2l-70.9-67.7c-1.9-1.9-2.6-4.7-1.6-7.2c1-2.5,3.4-4.1,6.1-4.1c0,0,0,0,0,0
				h21c11.3,0,22.2-4.4,30.3-12.2l14.1-13.5c1.9-1.9,2.6-4.7,1.6-7.2c-1-2.5-3.4-4.1-6.1-4.1h-31.8c-11.3,0-22.2,4.4-30.4,12.2
				l-6.9,6.6c-0.6,0.6-1.5,0.9-2.3,0.9c0,0,0,0,0,0c0,0,0,0,0,0c-1.4,0-2.6-0.8-3.1-2.1c-0.5-1.3-0.2-2.7,0.8-3.7l2.7-2.6
				c1.9-1.9,2.6-4.7,1.6-7.2s-3.4-4.1-6.1-4.1h-31.8c-11.3,0-22.2,4.4-30.3,12.2l-62.9,60c-1.9,1.9-2.6,4.7-1.6,7.2
				c1,2.5,3.4,4.1,6.1,4.1h31.8c0,0,0,0,0,0c11.3,0,22.1-4.3,30.3-12.1l8.8-8.4c1.3-1.2,2.9-1.8,4.5-1.8c1.6,0,3.3,0.6,4.6,1.8
				l54.8,52.3c8.2,7.8,19,12.2,30.4,12.2h31.8C418.5,240.3,420.9,238.7,421.9,236.2z"/>
		</g>
		<g>
			<path class="st3" d="M1086,236.7h-8l6.1-22.9h-7.6l1.8-6.9h23.6l-1.8,6.9h-8.1L1086,236.7z"/>
			<path class="st3" d="M1133.7,236.7h-7.9l6.7-22.9h-0.2l-13.5,22.9h-6.9l-1.5-22.9h-0.3l-5.4,22.9h-7.9l8-29.8h12.6l0.7,18.7h0.3
				l10.4-18.7h12.9L1133.7,236.7z"/>
		</g>
	</g>
</g>
</svg>
