<?xml version="1.0" encoding="utf-8"?>
<!-- Generator: Adobe Illustrator 26.0.0, SVG Export Plug-In . SVG Version: 6.00 Build 0)  -->
<svg version="1.1" id="Capa_1" xmlns="http://www.w3.org/2000/svg" xmlns:xlink="http://www.w3.org/1999/xlink" x="0px" y="0px"
	 viewBox="0 0 1200 300" style="enable-background:new 0 0 1200 300;" xml:space="preserve">
<style type="text/css">
	.st0{fill:#020203;}
	.st1{fill:#FFFFFF;}
</style>
<rect x="14.2" y="54.3" class="st0" width="1171.6" height="201.9"/>
<g>
	<g>
		<polygon class="st1" points="373.7,85.1 338.7,216.3 368.6,216.3 403.6,85.1 		"/>
		<path class="st1" d="M450,184.7c-1.4-3.4-0.5-7.3,2.1-9.8l27.5-26.2c0.1-0.6,0.2-1.2,0.2-1.8c0.3-3.1,0.1-5.9-0.4-8.3
			c-0.5-2.4-1.4-4.3-2.6-5.9c-1.2-1.6-2.8-2.8-4.7-3.7c-1.8-0.8-3.9-1.5-6.2-2.1c-2.3-0.6-4.8-1.1-7.4-1.5c-2.6-0.4-5.4-0.7-8.3-1
			c-2.9-0.3-5.9-0.4-9.1-0.4c-2.8,0-5.4,0.1-8.1,0.3c-2.6,0.2-5.2,0.4-7.7,0.7c-2.5,0.4-4.9,0.8-7.2,1.3c-2.3,0.5-4.5,1-6.6,1.7
			c-2.1,0.7-4.1,1.7-6,3c-1.9,1.4-3.6,3-5,5c-1.6,2-3,4.3-4.1,6.9c-1.2,2.6-2.2,5.6-3.1,8.9h30.3v0.4c0.3-1,0.6-2,1-2.9
			c0.4-0.9,0.9-1.6,1.4-2.3c0.4-0.7,0.9-1.2,1.4-1.8c0.5-0.5,1-0.9,1.6-1.2c0.7-0.3,1.3-0.5,2-0.8c0.7-0.3,1.4-0.5,2.4-0.6
			c0.8-0.1,1.6-0.2,2.6-0.3c0.9-0.1,1.9-0.1,3-0.1c1,0,2.1,0.1,3.1,0.2c1,0.1,1.9,0.3,2.7,0.6c0.8,0.1,1.5,0.4,2.1,0.7
			c0.6,0.3,1.1,0.7,1.5,1.1c0.4,0.4,0.7,0.9,0.9,1.5c0.2,0.6,0.4,1.3,0.5,2.1c0,0.8,0,1.6-0.1,2.5c-0.1,0.9-0.2,1.8-0.5,2.9
			l-4.5,16.7l-1.4,0.4c-0.1-1-0.4-2-0.8-2.9c-0.4-0.9-0.9-1.6-1.4-2.3c-0.5-0.7-1.1-1.2-1.8-1.8c-0.7-0.5-1.4-0.9-2.4-1.2
			c-0.3-0.1-0.6-0.2-0.9-0.3c-0.3-0.1-0.6-0.2-0.9-0.3c-0.5-0.1-1.1-0.3-1.7-0.4c-0.6-0.1-1.2-0.3-1.9-0.4c-0.9-0.1-1.8-0.2-2.8-0.3
			c-0.9-0.1-1.9-0.2-3-0.3c-0.1,0-0.3,0-0.4,0c-0.1,0-0.2,0-0.3,0c-0.1,0-0.2,0-0.3,0c-0.1,0-0.3,0-0.4,0c-0.1,0-0.3,0-0.4,0
			c-0.1,0-0.3,0-0.4,0c-0.1,0-0.3,0-0.4,0c-0.1,0-0.3,0-0.4,0c-0.1,0-0.3,0-0.4,0c-2.8,0-5.4,0.1-7.9,0.4c-2.5,0.3-4.9,0.7-7.1,1.2
			c-2.2,0.5-4.4,1.1-6.4,1.8c-2,0.7-4,1.5-5.8,2.6c-1.8,0.9-3.5,2.1-5.1,3.6c-1.6,1.5-3,3.2-4.3,5.2c-1.3,2-2.5,4.2-3.5,6.8
			c-1.1,2.6-2,5.3-3,8.4c-0.7,2.5-1.1,4.8-1.3,6.9c-0.2,2.1-0.2,4.1,0.1,5.9c0.3,1.7,0.8,3.2,1.5,4.5c0.7,1.3,1.7,2.5,2.9,3.5
			c1,0.9,2.3,1.8,3.8,2.6c1.5,0.8,3.1,1.4,4.8,1.8c1.8,0.3,3.7,0.5,5.7,0.8c2,0.3,4.1,0.4,6.5,0.4c0.1,0,0.2,0,0.3,0
			c0.1,0,0.2,0,0.3,0c0.1,0,0.3,0,0.4,0c0.3,0,0.5,0,0.7,0c0.2,0,0.4,0,0.5,0c0.3-0.1,0.5-0.2,0.7-0.2c0.2,0,0.4,0,0.5,0
			c0.3,0,0.5,0,0.7,0s0.4,0,0.5,0c0.3,0,0.5,0,0.7,0s0.4,0,0.5,0c0.1,0,0.3,0,0.4,0c0.1,0,0.3,0,0.4,0c0.1-0.1,0.3-0.2,0.4-0.2
			c0.1,0,0.3,0,0.4,0c0.1,0,0.2,0,0.3,0c0.1,0,0.2,0,0.3,0c0.1-0.1,0.2-0.2,0.3-0.2c0.1,0,0.2,0,0.3,0c0.3,0,0.5,0,0.7,0
			s0.4,0,0.5,0c0.4,0,0.8,0,1.1-0.1c0.3-0.1,0.7-0.1,1.1-0.1c0.8,0,1.5-0.1,2.3-0.2c0.7-0.1,1.4-0.3,2.1-0.4c1-0.3,2.1-0.6,3.2-1
			c1.1-0.4,2.3-0.9,3.4-1.4c1-0.5,2-1.1,2.9-1.8c0.9-0.7,1.8-1.4,2.6-2.4c0.8-0.8,1.5-1.7,2.3-2.9c0.7-1.1,1.3-2.3,1.9-3.6h1.2
			l-4.7,13.6h29.9l6.9-26h-10.7C454.6,190.3,451.3,188.1,450,184.7z M440.2,184c0,0.3,0,0.5,0,0.8c0,0.3-0.1,0.5-0.2,0.8
			c0,0.1,0,0.3,0,0.6c0,0.1,0,0.3-0.1,0.4c-0.1,0.1-0.1,0.3-0.1,0.4c0,0.1,0,0.3,0,0.4v0.2c-0.1,0.1-0.2,0.3-0.2,0.4v0.2
			c-0.3,1.2-0.6,2.2-1.1,3.1c-0.5,0.9-1,1.7-1.7,2.4c-0.5,0.7-1.1,1.2-1.9,1.8c-0.7,0.5-1.5,0.9-2.3,1.2c-0.9,0.3-1.8,0.5-2.7,0.7
			c-0.9,0.2-1.7,0.4-2.5,0.5c-0.9,0.1-1.8,0.2-2.8,0.3c-0.9,0.1-1.8,0.1-2.8,0.1c-0.9,0-1.9,0-2.9,0c-1,0-1.9-0.1-2.7-0.2
			c-0.8-0.1-1.5-0.3-2.3-0.5c-0.7-0.2-1.4-0.4-2.1-0.5c-0.8-0.3-1.4-0.6-1.9-1c-0.5-0.4-0.8-1-0.9-1.8c-0.1-0.8-0.2-1.7-0.1-2.8
			c0.1-1,0.3-2.2,0.7-3.5v0.4c0.3-1,0.6-2,0.9-2.9c0.3-0.9,0.8-1.6,1.3-2.3c0.4-0.7,0.9-1.2,1.5-1.7c0.6-0.5,1.3-0.8,2.1-1.1
			c0.7-0.3,1.4-0.5,2.2-0.7c0.8-0.2,1.6-0.4,2.6-0.5c0.8-0.1,1.6-0.2,2.5-0.3c0.9-0.1,1.7-0.1,2.7-0.1c0.3,0,0.5,0,0.7,0
			c0.2,0,0.4,0,0.7,0c0.3,0,0.5,0,0.8,0c0.3,0,0.5,0,0.8,0c0.1,0,0.3,0,0.4,0c0.1,0,0.3,0,0.4,0c0.1,0,0.3,0,0.5,0s0.4,0,0.5,0
			c0.1,0.1,0.3,0.2,0.4,0.2c0.1,0,0.3,0,0.4,0c0.1,0,0.3,0,0.4,0c0.1,0,0.3,0,0.4,0c0.3,0,0.5,0,0.6,0.1c0.1,0.1,0.3,0.1,0.6,0.1
			c0.1,0.1,0.3,0.2,0.5,0.2c0.2,0,0.4,0,0.5,0c0.3,0,0.5,0,0.6,0c0.1,0,0.3,0.1,0.4,0.2c0.1,0,0.3,0,0.5,0.1
			c0.2,0.1,0.4,0.1,0.5,0.1c0.3,0.1,0.6,0.2,0.9,0.3c0.3,0.1,0.6,0.2,0.9,0.5c0.1,0.1,0.3,0.2,0.4,0.3c0.1,0.1,0.3,0.1,0.4,0.1
			c0.1,0.1,0.3,0.2,0.4,0.3c0.1,0.1,0.3,0.2,0.4,0.3c0.1,0.1,0.2,0.3,0.3,0.5c0.1,0.2,0.2,0.4,0.3,0.7c0.1,0.1,0.2,0.3,0.2,0.5
			C440.2,183.5,440.2,183.8,440.2,184z"/>
		<path class="st1" d="M670.2,124.4l-13,48.2l-1.4,5.1c-0.3,0.9-0.6,1.8-0.9,2.8c-0.3,0.9-0.7,1.8-1.1,2.6c-0.1,0.3-0.3,0.5-0.4,0.8
			c-0.1,0.3-0.3,0.5-0.4,0.8c-0.7,0.9-1.3,1.8-2.1,2.8c-0.7,0.9-1.5,1.7-2.5,2.4c-0.9,0.8-1.9,1.5-2.9,2.1c-1,0.6-2,1.1-3,1.5
			c-1.1,0.4-2.2,0.7-3.3,0.8c-1.2,0.1-2.4,0.2-3.7,0.2c-1.3,0-2.5-0.1-3.6-0.3c-1.1-0.2-2-0.5-2.7-0.9c-0.8-0.4-1.4-0.9-1.8-1.6
			c-0.4-0.7-0.7-1.4-0.8-2.4c-0.1-0.8-0.2-1.7-0.3-2.7c-0.1-1,0-1.9,0.1-2.9c0.1-1,0.3-2.1,0.6-3.1c0.3-1,0.5-2.2,0.8-3.5l14.2-52.5
			h-29.8c0.2,0.4,0.4,0.8,0.6,1.2c1.4,3.4,0.5,7.3-2.1,9.8l-2,2L595.2,187c-0.4,1.5-0.7,2.9-0.9,4.3l17.1,16.3
			c2.5,2.4,3.4,6,2.3,9.3c1.3,0.1,2.7,0.1,4.2,0.1c1.7,0,3.4-0.1,5-0.3c1.6-0.2,3.2-0.4,4.6-0.5c0.7-0.1,1.3-0.3,2.1-0.5
			c0.7-0.2,1.5-0.4,2.3-0.7c0.8-0.3,1.5-0.5,2.3-0.8c0.7-0.3,1.4-0.6,2.1-1c1.3-0.7,2.6-1.5,3.8-2.5c1.2-1,2.5-2.1,3.6-3.2
			c1.2-1.2,2.3-2.5,3.4-4c1.1-1.5,2.1-3.1,3-4.8h1.4l-5.5,17.5h29.5l24.6-91.9H670.2z"/>
		<polygon class="st1" points="714.8,85.1 679.8,216.3 709.7,216.3 744.7,85.1 		"/>
		<path class="st1" d="M802.2,183.1c0-0.1,0-0.3,0-0.4l0.2-0.2c0-0.1,0-0.3,0-0.4c-0.1,0-0.2,0-0.2-0.1c0-0.1,0.1-0.2,0.2-0.3
			c0-0.1,0-0.2,0-0.3c0-0.1,0-0.2,0-0.3c0.1-0.3,0.2-0.5,0.3-0.7c0.1-0.2,0.1-0.4,0.1-0.5c0-0.1,0-0.2,0.1-0.3
			c0.1-0.1,0.1-0.2,0.1-0.3c0-0.1,0-0.3,0.1-0.4c0.1-0.1,0.1-0.3,0.1-0.4l-24.2,0.4c0,0.1,0,0.3,0,0.4c0,0.1,0,0.2-0.1,0.3
			c-0.1,0.1-0.1,0.2-0.1,0.3c0,0.1,0,0.3,0,0.4c-0.1,0.1-0.2,0.3-0.2,0.4c-0.1,0.1-0.2,0.3-0.2,0.4c0,0.1,0,0.3,0,0.4
			c-0.1,0.1-0.2,0.3-0.2,0.4c0,0.1,0,0.3,0,0.4c-0.1,0.1-0.3,0.3-0.4,0.4c0,0.1,0,0.2,0,0.3c0,0.1,0,0.2,0,0.3
			c0,0.1-0.1,0.3-0.2,0.4c0,0.1-0.1,0.3-0.2,0.4c0,0.1,0,0.3,0,0.4c0,0.1-0.1,0.3-0.2,0.4c0,0.1,0,0.3,0,0.4c0,0.1-0.1,0.3-0.2,0.4
			c-0.3,0.8-0.6,1.5-0.9,2.3c-0.3,0.7-0.6,1.4-0.9,2.1c-0.3,0.5-0.6,1.1-0.9,1.7c-0.3,0.6-0.6,1.1-0.9,1.5c-0.4,0.5-0.8,1-1.3,1.3
			c-0.5,0.3-1,0.6-1.7,0.9c-0.5,0.1-1.2,0.3-2,0.4c-0.8,0.1-1.6,0.2-2.6,0.2c-0.7,0-1.2-0.1-1.8-0.2c-0.5-0.1-1-0.3-1.4-0.4
			c-0.3-0.3-0.5-0.5-0.7-0.8c-0.2-0.3-0.4-0.7-0.5-1.2c-0.1-0.4-0.2-0.8-0.3-1.2c-0.1-0.4-0.1-0.9-0.1-1.4c0.1-0.5,0.3-1,0.4-1.6
			c0.1-0.5,0.3-1,0.4-1.6c0-0.1,0-0.2,0-0.3c0-0.1,0-0.2,0-0.3c0.1-0.1,0.2-0.2,0.2-0.3c0-0.1,0-0.2,0-0.3c0-0.1,0.1-0.3,0.2-0.4
			v-0.2c0-0.1,0.1-0.3,0.2-0.4v-0.2c-0.1,0-0.2,0-0.2-0.1c0-0.1,0-0.2,0-0.3l0.2-0.2v-0.2c0-0.1,0-0.3,0-0.4
			c0.1-0.1,0.2-0.3,0.2-0.4c0.1-0.1,0.2-0.3,0.2-0.4l9.8-37.2h34.8l5.9-21.6h-34.8l5.1-19.3H754l-5.1,19.3h-11.2l-5.9,21.6H743
			l-11.6,43.5c-0.8,3-1.3,5.8-1.6,8.3c-0.3,2.5-0.3,4.7,0,6.7c0.3,2,0.9,3.6,1.8,4.9c0.9,1.3,2.1,2.4,3.5,3.1
			c1.3,0.8,2.8,1.5,4.5,2.1c1.7,0.6,3.6,1.1,5.7,1.5c2,0.1,4.1,0.3,6.4,0.5c2.3,0.2,4.8,0.3,7.4,0.3c3.1,0,6.1-0.1,8.9-0.3
			c2.8-0.2,5.3-0.6,7.7-1.1c2.2-0.5,4.3-1.2,6.3-2c2-0.8,3.7-1.7,5.3-2.8c1.6-1,3-2.4,4.4-3.9c1.4-1.6,2.7-3.3,3.8-5.3
			c1-2,2.1-4.1,3.1-6.5c1-2.4,1.9-5,2.7-7.9c0-0.1,0.1-0.3,0.2-0.4c0-0.3,0-0.5,0-0.6V186v-0.2c0-0.1,0.1-0.3,0.2-0.4v-0.2
			c0-0.1,0-0.2,0-0.3c0-0.1,0.1-0.2,0.2-0.3c0-0.3,0-0.5,0-0.6l0.2-0.2v-0.2c0-0.1,0.1-0.3,0.2-0.4V183.1z"/>
		<path class="st1" d="M878.7,124.4l-13,48.2l-1.4,5.1c-0.3,0.9-0.6,1.8-0.9,2.8c-0.3,0.9-0.7,1.8-1.1,2.6c-0.1,0.3-0.3,0.5-0.4,0.8
			c-0.1,0.3-0.3,0.5-0.4,0.8c-0.7,0.9-1.3,1.8-2.1,2.8c-0.7,0.9-1.5,1.7-2.5,2.4c-0.9,0.8-1.9,1.5-2.9,2.1c-1,0.6-2,1.1-3,1.5
			c-1.1,0.4-2.2,0.7-3.3,0.8c-1.2,0.1-2.4,0.2-3.7,0.2c-1.3,0-2.5-0.1-3.6-0.3c-1.1-0.2-2-0.5-2.7-0.9c-0.8-0.4-1.4-0.9-1.8-1.6
			c-0.4-0.7-0.7-1.4-0.8-2.4c-0.1-0.8-0.2-1.7-0.3-2.7c-0.1-1,0-1.9,0.1-2.9c0.1-1,0.3-2.1,0.6-3.1c0.3-1,0.5-2.2,0.8-3.5l14.2-52.5
			h-29.9L803.8,187c-0.7,2.5-1.1,4.9-1.4,7.2c-0.3,2.3-0.3,4.4-0.2,6.2c0.1,2,0.5,3.7,1,5.3c0.5,1.6,1.2,3,2.2,4.3
			c1,1.3,2.2,2.4,3.5,3.2c1.3,0.9,2.9,1.6,4.7,2.3c1.7,0.5,3.6,0.9,5.8,1.2c2.2,0.3,4.5,0.4,7,0.4c1.7,0,3.4-0.1,5-0.3
			c1.6-0.2,3.2-0.4,4.6-0.5c0.7-0.1,1.3-0.3,2.1-0.5c0.7-0.2,1.5-0.4,2.3-0.7c0.8-0.3,1.5-0.5,2.3-0.8c0.7-0.3,1.4-0.6,2.1-1
			c1.3-0.7,2.6-1.5,3.8-2.5c1.2-1,2.5-2.1,3.6-3.2c1.2-1.2,2.3-2.5,3.4-4c1.1-1.5,2.1-3.1,3-4.8h1.4l-5.5,17.5H884l24.6-91.9H878.7z
			"/>
		<path class="st1" d="M950.7,164.8c0-0.1,0-0.1,0-0.2l0,0V164.8z"/>
		<path class="st1" d="M952.7,157.7c0,0.1,0,0.2,0,0.3c0,0.1,0,0.2,0,0.3c-0.1,0.1-0.2,0.2-0.2,0.3c0,0.1,0,0.2,0,0.3
			c-0.1,0.1-0.2,0.3-0.2,0.4c0,0.1,0,0.3,0,0.4c-0.1,0.1-0.2,0.3-0.2,0.4c0,0.1,0,0.3,0,0.4c-0.1,0.1-0.2,0.3-0.2,0.4
			c0,0.1,0,0.3,0,0.4c-0.1,0.1-0.2,0.3-0.2,0.4v0.2c-0.1,0.1-0.2,0.3-0.2,0.4c0,0.1,0,0.3,0,0.4c-0.1,0.1-0.2,0.2-0.2,0.3
			c0,0.1,0,0.2,0,0.3v0.2c-0.1,0.1-0.2,0.3-0.2,0.4c0,0.1,0,0.3,0,0.4l-0.2,0.2c-0.1,0.1-0.1,0.1-0.1,0.2l27.1,0.4
			c0-0.3,0-0.5,0.1-0.8c0.1-0.3,0.2-0.5,0.3-0.8c0-0.3,0-0.5,0.1-0.8c0.1-0.3,0.2-0.5,0.3-0.8c0-0.1,0-0.3,0-0.4
			c0-0.1,0.1-0.3,0.2-0.4c0-0.1,0.1-0.3,0.2-0.4c0-0.1,0-0.2,0-0.3c0-0.1,0-0.2,0-0.3c0-0.1,0-0.3,0-0.4c0-0.1,0-0.3,0-0.4
			c0-0.1,0.1-0.3,0.2-0.4c0-0.1,0-0.3,0-0.4l0.2-0.2c0-0.1,0-0.3,0-0.4c0-0.1,0.1-0.3,0.2-0.4c0-0.1,0-0.2,0-0.3c0-0.1,0-0.2,0-0.3
			c0.1-0.1,0.2-0.2,0.2-0.3c0-0.1,0-0.2,0-0.3c0.5-2.1,0.9-4.1,1.3-6.1c0.3-2,0.6-3.9,0.7-5.7c0.3-1.8,0.4-3.6,0.5-5.3
			c0.1-1.7,0.1-3.4,0.1-5.1c-0.1-1.7-0.6-3.2-1.4-4.4c-0.8-1.2-1.9-2.3-3.3-3c-1.4-0.8-3.2-1.4-5.4-1.9c-2.2-0.5-4.6-0.7-7.4-0.7
			c-1.4,0-2.8,0.1-4.1,0.3c-1.3,0.2-2.6,0.4-3.7,0.7c-1.3,0.3-2.5,0.6-3.5,1c-1.1,0.4-2.1,0.9-3.1,1.6c-0.9,0.5-1.9,1.2-2.9,2
			c-1,0.8-2,1.6-3,2.6c-0.9,0.9-1.8,1.9-2.8,2.9c-0.9,1-1.8,2-2.8,3h-1.4l4.1-13.6h-28.9l-24.6,91.9h29.9l14-52.7
			c0-0.1,0-0.2,0.1-0.3c0.1-0.1,0.1-0.2,0.1-0.3c0-0.1,0-0.2,0.1-0.3c0.1-0.1,0.1-0.2,0.1-0.3c0-0.3,0-0.5,0.1-0.7
			c0.1-0.2,0.2-0.4,0.3-0.5c0-0.1,0-0.2,0-0.3c0-0.1,0-0.2,0-0.3c0.1-0.1,0.2-0.3,0.2-0.4c0.1-0.1,0.2-0.3,0.2-0.4l0.2-0.2
			c0-0.1,0-0.3,0-0.4c0-0.1,0.1-0.3,0.2-0.4v-0.2c0.3-0.7,0.6-1.3,1-2.1c0.4-0.7,0.8-1.4,1.2-2.1c0.4-0.7,0.8-1.3,1.3-2.1
			c0.5-0.7,0.9-1.4,1.5-2.1c0.5-0.7,1.1-1.2,1.7-1.6c0.6-0.4,1.3-0.8,2.1-1.2c0.7-0.3,1.4-0.5,2.3-0.7c0.9-0.2,1.7-0.3,2.7-0.3
			c0.9,0,1.7,0.1,2.4,0.3c0.7,0.2,1.2,0.4,1.8,0.7c0.4,0.3,0.8,0.6,1.1,1c0.3,0.4,0.6,0.9,0.7,1.6c0,0.5,0,1.1,0,1.7
			c0,0.6,0.1,1.2,0.2,1.9c-0.1,0.5-0.2,1.2-0.3,1.9C952.9,156.3,952.8,157,952.7,157.7z"/>
		<path class="st1" d="M1069.2,146.9c0.3-3.1,0.1-5.9-0.4-8.3c-0.5-2.4-1.4-4.3-2.6-5.9c-1.2-1.6-2.8-2.8-4.7-3.7
			c-1.8-0.8-3.9-1.5-6.2-2.1c-2.3-0.6-4.8-1.1-7.4-1.5c-2.6-0.4-5.4-0.7-8.3-1c-2.9-0.3-5.9-0.4-9.1-0.4c-2.8,0-5.4,0.1-8.1,0.3
			c-2.6,0.2-5.2,0.4-7.7,0.7c-2.5,0.4-4.9,0.8-7.2,1.3c-2.3,0.5-4.5,1-6.6,1.7c-2.1,0.7-4.1,1.7-6,3c-1.9,1.4-3.6,3-5,5
			c-1.6,2-3,4.3-4.1,6.9c-1.2,2.6-2.2,5.6-3.1,8.9h30.3v0.4c0.3-1,0.6-2,1-2.9c0.4-0.9,0.9-1.6,1.4-2.3c0.4-0.7,0.9-1.2,1.4-1.8
			c0.5-0.5,1-0.9,1.6-1.2c0.7-0.3,1.3-0.5,2-0.8c0.7-0.3,1.4-0.5,2.4-0.6c0.8-0.1,1.6-0.2,2.6-0.3c0.9-0.1,1.9-0.1,3-0.1
			c1,0,2.1,0.1,3.1,0.2c1,0.1,1.9,0.3,2.7,0.6c0.8,0.1,1.5,0.4,2.1,0.7c0.6,0.3,1.1,0.7,1.5,1.1c0.4,0.4,0.7,0.9,0.9,1.5
			c0.2,0.6,0.4,1.3,0.5,2.1c0,0.8,0,1.6-0.1,2.5c-0.1,0.9-0.2,1.8-0.5,2.9l-4.5,16.7l-1.4,0.4c-0.1-1-0.4-2-0.8-2.9
			c-0.4-0.9-0.9-1.6-1.4-2.3c-0.5-0.7-1.1-1.2-1.8-1.8c-0.7-0.5-1.4-0.9-2.4-1.2c-0.3-0.1-0.6-0.2-0.9-0.3c-0.3-0.1-0.6-0.2-0.9-0.3
			c-0.5-0.1-1.1-0.3-1.7-0.4c-0.6-0.1-1.2-0.3-1.9-0.4c-0.9-0.1-1.8-0.2-2.8-0.3c-0.9-0.1-1.9-0.2-3-0.3c-0.1,0-0.3,0-0.4,0
			c-0.1,0-0.2,0-0.3,0c-0.1,0-0.2,0-0.3,0c-0.1,0-0.3,0-0.4,0c-0.1,0-0.3,0-0.4,0c-0.1,0-0.3,0-0.4,0c-0.1,0-0.3,0-0.4,0
			c-0.1,0-0.3,0-0.4,0c-0.1,0-0.3,0-0.4,0c-2.8,0-5.4,0.1-7.9,0.4c-2.5,0.3-4.9,0.7-7.1,1.2c-2.2,0.5-4.4,1.1-6.4,1.8
			c-2,0.7-4,1.5-5.8,2.6c-1.8,0.9-3.5,2.1-5.1,3.6c-1.6,1.5-3,3.2-4.3,5.2c-1.3,2-2.5,4.2-3.5,6.8c-1.1,2.6-2,5.3-3,8.4
			c-0.7,2.5-1.1,4.8-1.3,6.9c-0.2,2.1-0.2,4.1,0.1,5.9c0.3,1.7,0.8,3.2,1.5,4.5c0.7,1.3,1.7,2.5,2.9,3.5c1,0.9,2.3,1.8,3.8,2.6
			c1.5,0.8,3.1,1.4,4.8,1.8c1.8,0.3,3.7,0.5,5.7,0.8c2,0.3,4.1,0.4,6.5,0.4c0.1,0,0.2,0,0.3,0c0.1,0,0.2,0,0.3,0c0.1,0,0.3,0,0.4,0
			c0.3,0,0.5,0,0.7,0c0.2,0,0.4,0,0.5,0c0.3-0.1,0.5-0.2,0.7-0.2s0.4,0,0.5,0c0.3,0,0.5,0,0.7,0s0.4,0,0.5,0c0.3,0,0.5,0,0.7,0
			s0.4,0,0.5,0c0.1,0,0.3,0,0.4,0c0.1,0,0.3,0,0.4,0c0.1-0.1,0.3-0.2,0.4-0.2c0.1,0,0.3,0,0.4,0c0.1,0,0.2,0,0.3,0
			c0.1,0,0.2,0,0.3,0c0.1-0.1,0.2-0.2,0.3-0.2c0.1,0,0.2,0,0.3,0c0.3,0,0.5,0,0.7,0s0.4,0,0.5,0c0.4,0,0.8,0,1.1-0.1
			c0.3-0.1,0.7-0.1,1.1-0.1c0.8,0,1.5-0.1,2.3-0.2c0.7-0.1,1.4-0.3,2.1-0.4c1-0.3,2.1-0.6,3.2-1c1.1-0.4,2.3-0.9,3.4-1.4
			c1-0.5,2-1.1,2.9-1.8c0.9-0.7,1.8-1.4,2.6-2.4c0.8-0.8,1.5-1.7,2.3-2.9c0.7-1.1,1.3-2.3,1.9-3.6h1.2l-4.7,13.6h29.9l15.7-59
			C1068.3,153.5,1068.9,150,1069.2,146.9z M1029.6,184c0,0.3,0,0.5,0,0.8c0,0.3-0.1,0.5-0.2,0.8c0,0.1,0,0.3,0,0.6
			c0,0.1,0,0.3-0.1,0.4c-0.1,0.1-0.1,0.3-0.1,0.4c0,0.1,0,0.3,0,0.4v0.2c-0.1,0.1-0.2,0.3-0.2,0.4v0.2c-0.3,1.2-0.6,2.2-1.1,3.1
			c-0.5,0.9-1,1.7-1.7,2.4c-0.5,0.7-1.1,1.2-1.9,1.8c-0.7,0.5-1.5,0.9-2.3,1.2c-0.9,0.3-1.8,0.5-2.7,0.7c-0.9,0.2-1.7,0.4-2.5,0.5
			c-0.9,0.1-1.8,0.2-2.8,0.3c-0.9,0.1-1.8,0.1-2.8,0.1c-0.9,0-1.9,0-2.9,0c-1,0-1.9-0.1-2.7-0.2c-0.8-0.1-1.5-0.3-2.3-0.5
			c-0.7-0.2-1.4-0.4-2.1-0.5c-0.8-0.3-1.4-0.6-1.9-1c-0.5-0.4-0.8-1-0.9-1.8c-0.1-0.8-0.2-1.7-0.1-2.8c0.1-1,0.3-2.2,0.7-3.5v0.4
			c0.3-1,0.6-2,0.9-2.9c0.3-0.9,0.8-1.6,1.3-2.3c0.4-0.7,0.9-1.2,1.5-1.7c0.6-0.5,1.3-0.8,2.1-1.1c0.7-0.3,1.4-0.5,2.2-0.7
			c0.8-0.2,1.6-0.4,2.6-0.5c0.8-0.1,1.6-0.2,2.5-0.3c0.9-0.1,1.7-0.1,2.7-0.1c0.3,0,0.5,0,0.7,0c0.2,0,0.4,0,0.7,0
			c0.3,0,0.5,0,0.8,0c0.3,0,0.5,0,0.8,0c0.1,0,0.3,0,0.4,0c0.1,0,0.3,0,0.4,0c0.1,0,0.3,0,0.5,0s0.4,0,0.5,0
			c0.1,0.1,0.3,0.2,0.4,0.2c0.1,0,0.3,0,0.4,0c0.1,0,0.3,0,0.4,0c0.1,0,0.3,0,0.4,0c0.3,0,0.5,0,0.6,0.1c0.1,0.1,0.3,0.1,0.6,0.1
			c0.1,0.1,0.3,0.2,0.5,0.2c0.2,0,0.4,0,0.5,0c0.3,0,0.5,0,0.6,0c0.1,0,0.3,0.1,0.4,0.2c0.1,0,0.3,0,0.5,0.1
			c0.2,0.1,0.4,0.1,0.5,0.1c0.3,0.1,0.6,0.2,0.9,0.3c0.3,0.1,0.6,0.2,0.9,0.5c0.1,0.1,0.3,0.2,0.4,0.3c0.1,0.1,0.3,0.1,0.4,0.1
			c0.1,0.1,0.3,0.2,0.4,0.3c0.1,0.1,0.3,0.2,0.4,0.3c0.1,0.1,0.2,0.3,0.3,0.5c0.1,0.2,0.2,0.4,0.3,0.7c0.1,0.1,0.2,0.3,0.2,0.5
			C1029.6,183.5,1029.6,183.8,1029.6,184z"/>
		<polygon class="st1" points="1090.6,85.1 1055.6,216.3 1085.5,216.3 1120.5,85.1 		"/>
		<path class="st1" d="M609.7,215.9c0.7-1.9,0.3-4-1.2-5.4l-52.9-50.5c-1.5-1.4-1.9-3.5-1.2-5.4c0.7-1.9,2.6-3.1,4.6-3.1
			c0,0,0,0,0,0h15.6c8.4,0,16.5-3.3,22.6-9.1l10.5-10.1c1.5-1.4,1.9-3.5,1.2-5.4c-0.7-1.9-2.6-3.1-4.6-3.1h-23.7
			c-8.4,0-16.5,3.2-22.6,9.1L553,138c-0.5,0.4-1.1,0.7-1.7,0.7c0,0,0,0,0,0c0,0,0,0,0,0c-1,0-2-0.6-2.3-1.6c-0.4-1-0.1-2,0.6-2.8
			l2-1.9c1.5-1.4,1.9-3.5,1.2-5.4s-2.6-3.1-4.6-3.1h-23.7c-8.4,0-16.5,3.2-22.6,9.1l-46.9,44.7c-1.5,1.4-1.9,3.5-1.2,5.4
			c0.7,1.9,2.6,3.1,4.6,3.1H482c0,0,0,0,0,0c8.4,0,16.5-3.2,22.6-9l6.6-6.3c0.9-0.9,2.2-1.4,3.4-1.4c1.2,0,2.4,0.5,3.4,1.4l40.9,39
			c6.1,5.8,14.2,9.1,22.6,9.1h23.7C607.2,219,609,217.8,609.7,215.9z"/>
	</g>
	<g>
		<path class="st1" d="M1104.7,216.3h-6l4.6-17.1h-5.6l1.4-5.1h17.6l-1.4,5.1h-6L1104.7,216.3z"/>
		<path class="st1" d="M1140.3,216.3h-5.9l5-17h-0.2l-10.1,17h-5.1l-1.1-17h-0.2l-4,17h-5.9l5.9-22.2h9.4l0.5,14h0.2l7.7-14h9.6
			L1140.3,216.3z"/>
	</g>
</g>
<g>
	<rect x="36.1" y="76.4" class="st1" width="246.2" height="157.8"/>
	<path class="st0" d="M273.9,221.3c1.1-2.8,0.4-5.9-1.7-8l-78.6-75.1c-2.2-2.1-2.8-5.2-1.7-8c1.1-2.8,3.8-4.6,6.8-4.6c0,0,0,0,0,0
		h23.2c12.5,0,24.6-4.8,33.6-13.5l15.7-15c2.2-2.1,2.8-5.2,1.7-8c-1.1-2.8-3.8-4.6-6.8-4.6h-35.3c-12.5,0-24.6,4.8-33.7,13.5
		l-7.7,7.4c-0.7,0.7-1.6,1-2.6,1c0,0,0,0,0,0c0,0,0,0,0,0c-1.5,0-2.9-0.9-3.5-2.3c-0.6-1.4-0.2-3,0.9-4.1l3-2.8
		c2.2-2.1,2.8-5.2,1.7-8s-3.8-4.6-6.8-4.6H147c-12.5,0-24.6,4.8-33.6,13.5l-69.7,66.5c-2.2,2.1-2.8,5.2-1.7,8
		c1.1,2.8,3.8,4.6,6.8,4.6h35.3c0,0,0,0,0,0c12.5,0,24.5-4.8,33.6-13.4l9.8-9.3c1.4-1.3,3.2-2,5-2c1.8,0,3.6,0.7,5,2l60.8,58
		c9.1,8.7,21.1,13.5,33.6,13.5h35.3C270.1,225.9,272.8,224.1,273.9,221.3z"/>
</g>
</svg>
