<?xml version="1.0" encoding="utf-8"?>
<!-- Generator: Adobe Illustrator 26.0.0, SVG Export Plug-In . SVG Version: 6.00 Build 0)  -->
<svg version="1.1" id="Capa_1" xmlns="http://www.w3.org/2000/svg" xmlns:xlink="http://www.w3.org/1999/xlink" x="0px" y="0px"
	 viewBox="0 0 1200 300" style="enable-background:new 0 0 1200 300;" xml:space="preserve">
<style type="text/css">
	.st0{fill:#FFFFFF;stroke:#030304;stroke-width:2;stroke-miterlimit:10;}
	.st1{fill:#020203;}
	.st2{fill:#FFFFFF;}
</style>
<rect x="9" y="52.6" class="st0" width="1181.9" height="203.7"/>
<g>
	<g>
		<polygon class="st1" points="371.7,83.6 336.4,216 366.6,216 401.9,83.6 		"/>
		<path class="st1" d="M448.6,184.1c-1.4-3.4-0.5-7.3,2.2-9.9l27.7-26.5c0.1-0.6,0.2-1.2,0.2-1.8c0.3-3.2,0.1-6-0.4-8.3
			c-0.5-2.4-1.4-4.4-2.6-6c-1.2-1.6-2.8-2.8-4.8-3.8c-1.9-0.8-3.9-1.5-6.3-2.1c-2.3-0.6-4.8-1.1-7.4-1.5c-2.6-0.4-5.4-0.7-8.3-1
			c-2.9-0.3-6-0.4-9.1-0.4c-2.8,0-5.5,0.1-8.1,0.3c-2.6,0.2-5.2,0.4-7.7,0.7c-2.5,0.4-4.9,0.8-7.2,1.3c-2.3,0.5-4.5,1-6.6,1.7
			c-2.1,0.7-4.1,1.7-6.1,3.1c-1.9,1.4-3.6,3.1-5.1,5.1c-1.6,2-3,4.3-4.2,6.9c-1.2,2.6-2.3,5.6-3.2,8.9h30.6v0.4c0.3-1.1,0.6-2,1-2.9
			c0.4-0.9,0.9-1.6,1.4-2.3c0.4-0.7,0.9-1.3,1.4-1.8c0.5-0.5,1.1-0.9,1.6-1.2c0.7-0.3,1.3-0.5,2-0.8c0.7-0.3,1.5-0.5,2.4-0.6
			c0.8-0.1,1.7-0.2,2.6-0.3c0.9-0.1,1.9-0.1,3-0.1c1.1,0,2.1,0.1,3.1,0.2c1,0.1,1.9,0.3,2.7,0.6c0.8,0.1,1.5,0.4,2.1,0.7
			c0.6,0.3,1.1,0.7,1.5,1.1c0.4,0.4,0.7,0.9,0.9,1.5c0.2,0.6,0.4,1.3,0.5,2.1c0,0.8,0,1.6-0.1,2.5c-0.1,0.9-0.2,1.8-0.5,2.9
			l-4.6,16.9l-1.4,0.4c-0.1-1.1-0.4-2-0.8-2.9c-0.4-0.9-0.9-1.6-1.4-2.3c-0.5-0.7-1.1-1.3-1.8-1.8c-0.7-0.5-1.5-0.9-2.4-1.2
			c-0.3-0.1-0.6-0.2-0.9-0.3c-0.3-0.1-0.6-0.2-0.9-0.3c-0.5-0.1-1.1-0.3-1.7-0.4c-0.6-0.1-1.2-0.3-1.9-0.4c-0.9-0.1-1.9-0.2-2.8-0.3
			c-0.9-0.1-1.9-0.2-3-0.3c-0.1,0-0.3,0-0.4,0c-0.1,0-0.2,0-0.3,0c-0.1,0-0.2,0-0.3,0c-0.1,0-0.3,0-0.4,0c-0.1,0-0.3,0-0.4,0
			c-0.1,0-0.3,0-0.4,0c-0.1,0-0.3,0-0.4,0c-0.1,0-0.3,0-0.4,0c-0.1,0-0.3,0-0.4,0c-2.8,0-5.4,0.1-7.9,0.4c-2.5,0.3-4.9,0.7-7.1,1.2
			c-2.3,0.5-4.4,1.1-6.5,1.8c-2.1,0.7-4,1.5-5.9,2.6c-1.9,0.9-3.6,2.2-5.2,3.7c-1.6,1.5-3,3.3-4.4,5.3c-1.3,2-2.5,4.3-3.6,6.8
			c-1.1,2.6-2.1,5.4-3,8.4c-0.7,2.5-1.1,4.8-1.3,6.9c-0.2,2.1-0.2,4.1,0.1,6c0.3,1.7,0.8,3.2,1.5,4.6c0.7,1.3,1.7,2.5,2.9,3.6
			c1.1,0.9,2.3,1.8,3.9,2.6c1.5,0.8,3.1,1.4,4.9,1.8c1.9,0.3,3.8,0.5,5.8,0.8c2,0.3,4.2,0.4,6.5,0.4c0.1,0,0.2,0,0.3,0
			c0.1,0,0.2,0,0.3,0c0.1,0,0.3,0,0.4,0c0.3,0,0.5,0,0.7,0c0.2,0,0.4,0,0.5,0c0.3-0.1,0.5-0.2,0.7-0.2s0.4,0,0.5,0
			c0.3,0,0.5,0,0.7,0s0.4,0,0.5,0c0.3,0,0.5,0,0.7,0s0.4,0,0.5,0c0.1,0,0.3,0,0.4,0c0.1,0,0.3,0,0.4,0c0.1-0.1,0.3-0.2,0.4-0.2
			c0.1,0,0.3,0,0.4,0c0.1,0,0.2,0,0.3,0c0.1,0,0.2,0,0.3,0c0.1-0.1,0.2-0.2,0.3-0.2c0.1,0,0.2,0,0.3,0c0.3,0,0.5,0,0.7,0
			s0.4,0,0.5,0c0.4,0,0.8,0,1.1-0.1c0.3-0.1,0.7-0.1,1.1-0.1c0.8,0,1.6-0.1,2.3-0.2c0.7-0.1,1.4-0.3,2.1-0.4c1.1-0.3,2.1-0.6,3.3-1
			c1.1-0.4,2.3-0.9,3.5-1.4c1.1-0.5,2-1.1,3-1.8c0.9-0.7,1.8-1.5,2.6-2.4c0.8-0.8,1.6-1.8,2.3-2.9c0.7-1.1,1.4-2.3,1.9-3.7h1.2
			l-4.8,13.7h30.2l7-26.2H457C453.3,189.7,450,187.5,448.6,184.1z M438.8,183.4c0,0.3,0,0.5,0,0.8c0,0.3-0.1,0.5-0.2,0.8
			c0,0.1,0,0.3,0,0.6c0,0.1,0,0.3-0.1,0.4c-0.1,0.1-0.1,0.3-0.1,0.4c0,0.1,0,0.3,0,0.4v0.2c-0.1,0.1-0.2,0.3-0.2,0.4v0.2
			c-0.3,1.2-0.6,2.3-1.1,3.2c-0.5,0.9-1,1.7-1.7,2.4c-0.5,0.7-1.2,1.3-1.9,1.8c-0.7,0.5-1.5,0.9-2.3,1.2c-0.9,0.3-1.8,0.5-2.7,0.7
			c-0.9,0.2-1.7,0.4-2.5,0.5c-0.9,0.1-1.9,0.2-2.8,0.3c-0.9,0.1-1.9,0.1-2.8,0.1c-0.9,0-1.9,0-2.9,0c-1,0-1.9-0.1-2.7-0.2
			c-0.8-0.1-1.6-0.3-2.3-0.5c-0.7-0.2-1.4-0.4-2.1-0.5c-0.8-0.3-1.4-0.6-1.9-1c-0.5-0.4-0.8-1-0.9-1.8c-0.1-0.8-0.2-1.7-0.1-2.8
			c0.1-1.1,0.3-2.2,0.7-3.6v0.4c0.3-1.1,0.6-2,0.9-2.9c0.3-0.9,0.8-1.6,1.3-2.3c0.4-0.7,0.9-1.2,1.5-1.7c0.6-0.5,1.3-0.8,2.1-1.1
			c0.7-0.3,1.4-0.5,2.2-0.7s1.7-0.4,2.6-0.5c0.8-0.1,1.6-0.2,2.5-0.3c0.9-0.1,1.8-0.1,2.7-0.1c0.3,0,0.5,0,0.7,0c0.2,0,0.4,0,0.7,0
			c0.3,0,0.5,0,0.8,0c0.3,0,0.5,0,0.8,0c0.1,0,0.3,0,0.4,0c0.1,0,0.3,0,0.4,0c0.1,0,0.3,0,0.5,0c0.2,0,0.4,0,0.5,0
			c0.1,0.1,0.3,0.2,0.4,0.2c0.1,0,0.3,0,0.4,0c0.1,0,0.3,0,0.4,0c0.1,0,0.3,0,0.4,0c0.3,0,0.5,0,0.6,0.1c0.1,0.1,0.3,0.1,0.6,0.1
			c0.1,0.1,0.3,0.2,0.5,0.2c0.2,0,0.4,0,0.5,0c0.3,0,0.5,0,0.6,0c0.1,0,0.3,0.1,0.4,0.2c0.1,0,0.3,0,0.5,0.1
			c0.2,0.1,0.4,0.1,0.5,0.1c0.3,0.1,0.6,0.2,0.9,0.3c0.3,0.1,0.6,0.2,0.9,0.5c0.1,0.1,0.3,0.2,0.4,0.3c0.1,0.1,0.3,0.1,0.4,0.1
			c0.1,0.1,0.3,0.2,0.4,0.3c0.1,0.1,0.3,0.2,0.4,0.3c0.1,0.1,0.2,0.3,0.3,0.5c0.1,0.2,0.2,0.4,0.3,0.7c0.1,0.1,0.2,0.3,0.2,0.5
			C438.8,182.9,438.8,183.1,438.8,183.4z"/>
		<path class="st1" d="M670.8,123.3l-13.1,48.6l-1.4,5.2c-0.3,0.9-0.6,1.9-0.9,2.8c-0.3,0.9-0.7,1.8-1.1,2.6
			c-0.1,0.3-0.3,0.5-0.4,0.8c-0.1,0.3-0.3,0.5-0.4,0.8c-0.7,0.9-1.4,1.9-2.1,2.8c-0.7,0.9-1.6,1.7-2.5,2.4c-0.9,0.8-1.9,1.5-2.9,2.1
			c-1,0.6-2,1.1-3.1,1.5c-1.1,0.4-2.2,0.7-3.4,0.8c-1.2,0.1-2.5,0.2-3.8,0.2c-1.3,0-2.5-0.1-3.7-0.3c-1.1-0.2-2-0.5-2.7-0.9
			c-0.8-0.4-1.4-0.9-1.8-1.6c-0.4-0.7-0.7-1.5-0.8-2.4c-0.1-0.8-0.2-1.7-0.3-2.7c-0.1-1,0-2,0.1-2.9c0.1-1.1,0.3-2.1,0.6-3.2
			c0.3-1.1,0.5-2.2,0.8-3.6l14.3-53h-30.1c0.2,0.4,0.4,0.8,0.6,1.2c1.4,3.4,0.5,7.3-2.1,9.9l-2.1,2l-13.5,50.1
			c-0.4,1.5-0.7,2.9-1,4.4l17.3,16.5c2.6,2.4,3.4,6.1,2.3,9.4c1.4,0.1,2.8,0.1,4.2,0.1c1.7,0,3.4-0.1,5.1-0.3
			c1.7-0.2,3.2-0.4,4.7-0.5c0.7-0.1,1.4-0.3,2.1-0.5c0.7-0.2,1.5-0.4,2.3-0.7c0.8-0.3,1.6-0.5,2.3-0.8c0.7-0.3,1.4-0.6,2.1-1
			c1.3-0.7,2.6-1.5,3.9-2.5c1.3-1,2.5-2.1,3.7-3.3c1.2-1.2,2.3-2.5,3.5-4.1c1.1-1.5,2.1-3.1,3.1-4.9h1.4l-5.6,17.7h29.8l24.8-92.7
			H670.8z"/>
		<polygon class="st1" points="715.8,83.6 680.5,216 710.7,216 746,83.6 		"/>
		<path class="st1" d="M804,182.4c0-0.1,0-0.3,0-0.4l0.2-0.2c0-0.1,0-0.3,0-0.4c-0.1,0-0.2,0-0.2-0.1c0-0.1,0.1-0.2,0.2-0.3
			c0-0.1,0-0.2,0-0.3c0-0.1,0-0.2,0-0.3c0.1-0.3,0.2-0.5,0.3-0.7c0.1-0.2,0.1-0.4,0.1-0.5c0-0.1,0-0.2,0.1-0.3
			c0.1-0.1,0.1-0.2,0.1-0.3c0-0.1,0-0.3,0.1-0.4c0.1-0.1,0.1-0.3,0.1-0.4l-24.4,0.4c0,0.1,0,0.3,0,0.4c0,0.1,0,0.2-0.1,0.3
			c-0.1,0.1-0.1,0.2-0.1,0.3c0,0.1,0,0.3,0,0.4c-0.1,0.1-0.2,0.3-0.2,0.4c-0.1,0.1-0.2,0.3-0.2,0.4c0,0.1,0,0.3,0,0.4
			c-0.1,0.1-0.2,0.3-0.2,0.4c0,0.1,0,0.3,0,0.4c-0.1,0.1-0.3,0.3-0.4,0.4c0,0.1,0,0.2,0,0.3c0,0.1,0,0.2,0,0.3
			c0,0.1-0.1,0.3-0.2,0.4c0,0.1-0.1,0.3-0.2,0.4c0,0.1,0,0.3,0,0.4c0,0.1-0.1,0.3-0.2,0.4c0,0.1,0,0.3,0,0.4c0,0.1-0.1,0.3-0.2,0.4
			c-0.3,0.8-0.6,1.6-0.9,2.3c-0.3,0.7-0.6,1.4-0.9,2.1c-0.3,0.5-0.6,1.1-0.9,1.7c-0.3,0.6-0.6,1.1-0.9,1.5c-0.4,0.5-0.8,1-1.3,1.3
			c-0.5,0.3-1,0.6-1.7,0.9c-0.5,0.1-1.2,0.3-2,0.4c-0.8,0.1-1.7,0.2-2.6,0.2c-0.7,0-1.3-0.1-1.8-0.2c-0.5-0.1-1-0.3-1.4-0.4
			c-0.3-0.3-0.5-0.5-0.7-0.8c-0.2-0.3-0.4-0.7-0.5-1.2c-0.1-0.4-0.2-0.8-0.3-1.2c-0.1-0.4-0.1-0.9-0.1-1.4c0.1-0.5,0.3-1.1,0.4-1.6
			c0.1-0.5,0.3-1.1,0.4-1.6c0-0.1,0-0.2,0-0.3c0-0.1,0-0.2,0-0.3c0.1-0.1,0.2-0.2,0.2-0.3c0-0.1,0-0.2,0-0.3c0-0.1,0.1-0.3,0.2-0.4
			v-0.2c0-0.1,0.1-0.3,0.2-0.4v-0.2c-0.1,0-0.2,0-0.2-0.1c0-0.1,0-0.2,0-0.3l0.2-0.2v-0.2c0-0.1,0-0.3,0-0.4
			c0.1-0.1,0.2-0.3,0.2-0.4c0.1-0.1,0.2-0.3,0.2-0.4l9.9-37.5h35.1l6-21.8h-35.1l5.2-19.5h-30.2l-5.2,19.5h-11.3l-6,21.8h11.3
			L732.5,189c-0.8,3-1.3,5.8-1.6,8.3c-0.3,2.5-0.3,4.8,0,6.7c0.3,2,0.9,3.6,1.8,5c0.9,1.3,2.1,2.4,3.6,3.2c1.3,0.8,2.8,1.5,4.6,2.1
			c1.7,0.6,3.6,1.1,5.8,1.5c2,0.1,4.1,0.3,6.5,0.5c2.3,0.2,4.8,0.3,7.4,0.3c3.2,0,6.2-0.1,8.9-0.3c2.8-0.2,5.4-0.6,7.7-1.1
			c2.2-0.5,4.4-1.2,6.4-2c2-0.8,3.8-1.7,5.4-2.8c1.6-1.1,3.1-2.4,4.5-4c1.4-1.6,2.7-3.4,3.9-5.4c1.1-2,2.1-4.2,3.1-6.6
			c1-2.4,1.9-5,2.7-7.9c0-0.1,0.1-0.3,0.2-0.4c0-0.3,0-0.5,0-0.6v-0.2v-0.2c0-0.1,0.1-0.3,0.2-0.4v-0.2c0-0.1,0-0.2,0-0.3
			c0-0.1,0.1-0.2,0.2-0.3c0-0.3,0-0.5,0-0.6l0.2-0.2V183c0-0.1,0.1-0.3,0.2-0.4V182.4z"/>
		<path class="st1" d="M881.2,123.3l-13.1,48.6l-1.4,5.2c-0.3,0.9-0.6,1.9-0.9,2.8c-0.3,0.9-0.7,1.8-1.1,2.6
			c-0.1,0.3-0.3,0.5-0.4,0.8c-0.1,0.3-0.3,0.5-0.4,0.8c-0.7,0.9-1.4,1.9-2.1,2.8c-0.7,0.9-1.6,1.7-2.5,2.4c-0.9,0.8-1.9,1.5-2.9,2.1
			s-2,1.1-3.1,1.5c-1.1,0.4-2.2,0.7-3.4,0.8c-1.2,0.1-2.5,0.2-3.8,0.2c-1.3,0-2.5-0.1-3.7-0.3c-1.1-0.2-2-0.5-2.7-0.9
			c-0.8-0.4-1.4-0.9-1.8-1.6c-0.4-0.7-0.7-1.5-0.8-2.4c-0.1-0.8-0.2-1.7-0.3-2.7c-0.1-1,0-2,0.1-2.9c0.1-1.1,0.3-2.1,0.6-3.2
			c0.3-1.1,0.5-2.2,0.8-3.6l14.3-53h-30.2l-17.1,63.1c-0.7,2.5-1.1,4.9-1.4,7.2c-0.3,2.3-0.3,4.4-0.2,6.3c0.1,2,0.5,3.8,1,5.4
			c0.5,1.6,1.3,3,2.2,4.4c1.1,1.3,2.2,2.4,3.6,3.3c1.3,0.9,2.9,1.6,4.8,2.3c1.7,0.5,3.7,0.9,5.9,1.2c2.2,0.3,4.5,0.4,7,0.4
			c1.7,0,3.4-0.1,5.1-0.3c1.7-0.2,3.2-0.4,4.7-0.5c0.7-0.1,1.4-0.3,2.1-0.5c0.7-0.2,1.5-0.4,2.3-0.7c0.8-0.3,1.6-0.5,2.3-0.8
			c0.7-0.3,1.4-0.6,2.1-1c1.3-0.7,2.6-1.5,3.9-2.5c1.3-1,2.5-2.1,3.7-3.3c1.2-1.2,2.3-2.5,3.5-4.1c1.1-1.5,2.1-3.1,3.1-4.9h1.4
			l-5.6,17.7h29.8l24.8-92.7H881.2z"/>
		<path class="st1" d="M953.8,164c0-0.1,0-0.1,0-0.2l0,0V164z"/>
		<path class="st1" d="M955.8,156.8c0,0.1,0,0.2,0,0.3c0,0.1,0,0.2,0,0.3c-0.1,0.1-0.2,0.2-0.2,0.3c0,0.1,0,0.2,0,0.3
			c-0.1,0.1-0.2,0.3-0.2,0.4c0,0.1,0,0.3,0,0.4c-0.1,0.1-0.2,0.3-0.2,0.4c0,0.1,0,0.3,0,0.4c-0.1,0.1-0.2,0.3-0.2,0.4
			c0,0.1,0,0.3,0,0.4c-0.1,0.1-0.2,0.3-0.2,0.4v0.2c-0.1,0.1-0.2,0.3-0.2,0.4c0,0.1,0,0.3,0,0.4c-0.1,0.1-0.2,0.2-0.2,0.3
			c0,0.1,0,0.2,0,0.3v0.2c-0.1,0.1-0.2,0.3-0.2,0.4c0,0.1,0,0.3,0,0.4l-0.2,0.2c-0.1,0.1-0.1,0.1-0.1,0.2l27.3,0.4
			c0-0.3,0-0.5,0.1-0.8c0.1-0.3,0.2-0.5,0.3-0.8c0-0.3,0-0.5,0.1-0.8c0.1-0.3,0.2-0.5,0.3-0.8c0-0.1,0-0.3,0-0.4
			c0-0.1,0.1-0.3,0.2-0.4c0-0.1,0.1-0.3,0.2-0.4c0-0.1,0-0.2,0-0.3c0-0.1,0-0.2,0-0.3c0-0.1,0-0.3,0-0.4c0-0.1,0-0.3,0-0.4
			c0-0.1,0.1-0.3,0.2-0.4c0-0.1,0-0.3,0-0.4l0.2-0.2c0-0.1,0-0.3,0-0.4c0-0.1,0.1-0.3,0.2-0.4c0-0.1,0-0.2,0-0.3c0-0.1,0-0.2,0-0.3
			c0.1-0.1,0.2-0.2,0.2-0.3c0-0.1,0-0.2,0-0.3c0.5-2.1,1-4.2,1.3-6.2c0.3-2,0.6-3.9,0.7-5.8c0.3-1.9,0.4-3.6,0.5-5.4
			c0.1-1.7,0.1-3.4,0.1-5.2c-0.1-1.7-0.6-3.2-1.4-4.5c-0.8-1.3-1.9-2.3-3.4-3.1c-1.5-0.8-3.3-1.4-5.5-1.9c-2.2-0.5-4.7-0.7-7.4-0.7
			c-1.5,0-2.8,0.1-4.2,0.3c-1.3,0.2-2.6,0.4-3.8,0.7c-1.3,0.3-2.5,0.6-3.6,1c-1.1,0.4-2.1,0.9-3.2,1.6c-0.9,0.5-1.9,1.2-2.9,2
			c-1,0.8-2,1.7-3.1,2.6c-0.9,0.9-1.9,1.9-2.8,2.9c-0.9,1-1.9,2-2.8,3.1h-1.4l4.2-13.7h-29.2L890.7,216h30.2l14.1-53.2
			c0-0.1,0-0.2,0.1-0.3c0.1-0.1,0.1-0.2,0.1-0.3c0-0.1,0-0.2,0.1-0.3c0.1-0.1,0.1-0.2,0.1-0.3c0-0.3,0-0.5,0.1-0.7
			c0.1-0.2,0.2-0.4,0.3-0.5c0-0.1,0-0.2,0-0.3c0-0.1,0-0.2,0-0.3c0.1-0.1,0.2-0.3,0.2-0.4c0.1-0.1,0.2-0.3,0.2-0.4l0.2-0.2
			c0-0.1,0-0.3,0-0.4c0-0.1,0.1-0.3,0.2-0.4v-0.2c0.3-0.7,0.6-1.4,1-2.1c0.4-0.7,0.8-1.4,1.2-2.1c0.4-0.7,0.8-1.4,1.3-2.1
			c0.5-0.7,1-1.4,1.5-2.1c0.5-0.7,1.1-1.2,1.7-1.6c0.6-0.4,1.3-0.8,2.1-1.2c0.7-0.3,1.4-0.5,2.3-0.7c0.9-0.2,1.8-0.3,2.7-0.3
			c0.9,0,1.7,0.1,2.4,0.3c0.7,0.2,1.3,0.4,1.8,0.7c0.4,0.3,0.8,0.6,1.1,1c0.3,0.4,0.6,0.9,0.7,1.6c0,0.5,0,1.1,0,1.7
			s0.1,1.2,0.2,1.9c-0.1,0.5-0.2,1.2-0.3,1.9C956,155.4,955.9,156.1,955.8,156.8z"/>
		<path class="st1" d="M1073.3,145.9c0.3-3.2,0.1-6-0.4-8.3c-0.5-2.4-1.4-4.4-2.6-6c-1.2-1.6-2.8-2.8-4.8-3.8
			c-1.9-0.8-3.9-1.5-6.3-2.1c-2.3-0.6-4.8-1.1-7.4-1.5c-2.6-0.4-5.4-0.7-8.3-1c-2.9-0.3-6-0.4-9.1-0.4c-2.8,0-5.5,0.1-8.1,0.3
			c-2.6,0.2-5.2,0.4-7.7,0.7c-2.5,0.4-4.9,0.8-7.2,1.3c-2.3,0.5-4.5,1-6.6,1.7c-2.1,0.7-4.1,1.7-6.1,3.1c-1.9,1.4-3.6,3.1-5.1,5.1
			c-1.6,2-3,4.3-4.2,6.9c-1.2,2.6-2.3,5.6-3.2,8.9h30.6v0.4c0.3-1.1,0.6-2,1-2.9c0.4-0.9,0.9-1.6,1.4-2.3c0.4-0.7,0.9-1.3,1.4-1.8
			c0.5-0.5,1.1-0.9,1.6-1.2c0.7-0.3,1.3-0.5,2-0.8c0.7-0.3,1.5-0.5,2.4-0.6c0.8-0.1,1.7-0.2,2.6-0.3c0.9-0.1,1.9-0.1,3-0.1
			c1.1,0,2.1,0.1,3.1,0.2c1,0.1,1.9,0.3,2.7,0.6c0.8,0.1,1.5,0.4,2.1,0.7c0.6,0.3,1.1,0.7,1.5,1.1c0.4,0.4,0.7,0.9,0.9,1.5
			c0.2,0.6,0.4,1.3,0.5,2.1c0,0.8,0,1.6-0.1,2.5c-0.1,0.9-0.2,1.8-0.5,2.9l-4.6,16.9l-1.4,0.4c-0.1-1.1-0.4-2-0.8-2.9
			c-0.4-0.9-0.9-1.6-1.4-2.3c-0.5-0.7-1.1-1.3-1.8-1.8c-0.7-0.5-1.5-0.9-2.4-1.2c-0.3-0.1-0.6-0.2-0.9-0.3c-0.3-0.1-0.6-0.2-0.9-0.3
			c-0.5-0.1-1.1-0.3-1.7-0.4c-0.6-0.1-1.2-0.3-1.9-0.4c-0.9-0.1-1.9-0.2-2.8-0.3c-0.9-0.1-1.9-0.2-3-0.3c-0.1,0-0.3,0-0.4,0
			c-0.1,0-0.2,0-0.3,0c-0.1,0-0.2,0-0.3,0c-0.1,0-0.3,0-0.4,0c-0.1,0-0.3,0-0.4,0c-0.1,0-0.3,0-0.4,0c-0.1,0-0.3,0-0.4,0
			c-0.1,0-0.3,0-0.4,0c-0.1,0-0.3,0-0.4,0c-2.8,0-5.4,0.1-7.9,0.4c-2.5,0.3-4.9,0.7-7.1,1.2c-2.3,0.5-4.4,1.1-6.5,1.8
			c-2.1,0.7-4,1.5-5.9,2.6c-1.9,0.9-3.6,2.2-5.2,3.7c-1.6,1.5-3,3.3-4.4,5.3c-1.3,2-2.5,4.3-3.6,6.8c-1.1,2.6-2.1,5.4-3,8.4
			c-0.7,2.5-1.1,4.8-1.3,6.9c-0.2,2.1-0.2,4.1,0.1,6c0.3,1.7,0.8,3.2,1.5,4.6c0.7,1.3,1.7,2.5,2.9,3.6c1.1,0.9,2.3,1.8,3.9,2.6
			c1.5,0.8,3.1,1.4,4.9,1.8c1.9,0.3,3.8,0.5,5.8,0.8c2,0.3,4.2,0.4,6.5,0.4c0.1,0,0.2,0,0.3,0c0.1,0,0.2,0,0.3,0c0.1,0,0.3,0,0.4,0
			c0.3,0,0.5,0,0.7,0c0.2,0,0.4,0,0.5,0c0.3-0.1,0.5-0.2,0.7-0.2c0.2,0,0.4,0,0.5,0c0.3,0,0.5,0,0.7,0c0.2,0,0.4,0,0.5,0
			c0.3,0,0.5,0,0.7,0c0.2,0,0.4,0,0.5,0c0.1,0,0.3,0,0.4,0c0.1,0,0.3,0,0.4,0c0.1-0.1,0.3-0.2,0.4-0.2c0.1,0,0.3,0,0.4,0
			c0.1,0,0.2,0,0.3,0c0.1,0,0.2,0,0.3,0c0.1-0.1,0.2-0.2,0.3-0.2c0.1,0,0.2,0,0.3,0c0.3,0,0.5,0,0.7,0c0.2,0,0.4,0,0.5,0
			c0.4,0,0.8,0,1.1-0.1c0.3-0.1,0.7-0.1,1.1-0.1c0.8,0,1.6-0.1,2.3-0.2c0.7-0.1,1.4-0.3,2.1-0.4c1.1-0.3,2.1-0.6,3.3-1
			c1.1-0.4,2.3-0.9,3.5-1.4c1.1-0.5,2-1.1,3-1.8c0.9-0.7,1.8-1.5,2.6-2.4c0.8-0.8,1.6-1.8,2.3-2.9c0.7-1.1,1.4-2.3,1.9-3.7h1.2
			l-4.8,13.7h30.2l15.9-59.5C1072.4,152.6,1073.1,149.1,1073.3,145.9z M1033.4,183.4c0,0.3,0,0.5,0,0.8c0,0.3-0.1,0.5-0.2,0.8
			c0,0.1,0,0.3,0,0.6c0,0.1,0,0.3-0.1,0.4c-0.1,0.1-0.1,0.3-0.1,0.4c0,0.1,0,0.3,0,0.4v0.2c-0.1,0.1-0.2,0.3-0.2,0.4v0.2
			c-0.3,1.2-0.6,2.3-1.1,3.2c-0.5,0.9-1,1.7-1.7,2.4c-0.5,0.7-1.2,1.3-1.9,1.8c-0.7,0.5-1.5,0.9-2.3,1.2c-0.9,0.3-1.8,0.5-2.7,0.7
			c-0.9,0.2-1.7,0.4-2.5,0.5c-0.9,0.1-1.9,0.2-2.8,0.3c-0.9,0.1-1.9,0.1-2.8,0.1c-0.9,0-1.9,0-2.9,0c-1,0-1.9-0.1-2.7-0.2
			c-0.8-0.1-1.6-0.3-2.3-0.5c-0.7-0.2-1.4-0.4-2.1-0.5c-0.8-0.3-1.4-0.6-1.9-1c-0.5-0.4-0.8-1-0.9-1.8c-0.1-0.8-0.2-1.7-0.1-2.8
			c0.1-1.1,0.3-2.2,0.7-3.6v0.4c0.3-1.1,0.6-2,0.9-2.9c0.3-0.9,0.8-1.6,1.3-2.3c0.4-0.7,0.9-1.2,1.5-1.7c0.6-0.5,1.3-0.8,2.1-1.1
			c0.7-0.3,1.4-0.5,2.2-0.7c0.8-0.2,1.7-0.4,2.6-0.5c0.8-0.1,1.6-0.2,2.5-0.3c0.9-0.1,1.8-0.1,2.7-0.1c0.3,0,0.5,0,0.7,0
			c0.2,0,0.4,0,0.7,0c0.3,0,0.5,0,0.8,0c0.3,0,0.5,0,0.8,0c0.1,0,0.3,0,0.4,0c0.1,0,0.3,0,0.4,0c0.1,0,0.3,0,0.5,0
			c0.2,0,0.4,0,0.5,0c0.1,0.1,0.3,0.2,0.4,0.2c0.1,0,0.3,0,0.4,0c0.1,0,0.3,0,0.4,0c0.1,0,0.3,0,0.4,0c0.3,0,0.5,0,0.6,0.1
			c0.1,0.1,0.3,0.1,0.6,0.1c0.1,0.1,0.3,0.2,0.5,0.2c0.2,0,0.4,0,0.5,0c0.3,0,0.5,0,0.6,0c0.1,0,0.3,0.1,0.4,0.2
			c0.1,0,0.3,0,0.5,0.1c0.2,0.1,0.4,0.1,0.5,0.1c0.3,0.1,0.6,0.2,0.9,0.3c0.3,0.1,0.6,0.2,0.9,0.5c0.1,0.1,0.3,0.2,0.4,0.3
			c0.1,0.1,0.3,0.1,0.4,0.1c0.1,0.1,0.3,0.2,0.4,0.3c0.1,0.1,0.3,0.2,0.4,0.3c0.1,0.1,0.2,0.3,0.3,0.5c0.1,0.2,0.2,0.4,0.3,0.7
			c0.1,0.1,0.2,0.3,0.2,0.5C1033.4,182.9,1033.4,183.1,1033.4,183.4z"/>
		<polygon class="st1" points="1095,83.6 1059.6,216 1089.8,216 1125.1,83.6 		"/>
		<path class="st1" d="M609.8,215.6c0.8-1.9,0.3-4-1.2-5.4l-53.3-50.9c-1.5-1.4-1.9-3.5-1.2-5.4c0.8-1.9,2.6-3.1,4.6-3.1
			c0,0,0,0,0,0h15.8c8.5,0,16.7-3.3,22.8-9.1l10.6-10.2c1.5-1.4,1.9-3.5,1.2-5.4c-0.8-1.9-2.6-3.1-4.6-3.1h-23.9
			c-8.5,0-16.7,3.3-22.8,9.2l-5.2,5c-0.5,0.4-1.1,0.7-1.8,0.7c0,0,0,0,0,0c0,0,0,0,0,0c-1,0-2-0.6-2.4-1.6c-0.4-1-0.1-2.1,0.6-2.8
			l2-1.9c1.5-1.4,1.9-3.5,1.2-5.4s-2.6-3.1-4.6-3.1h-23.9c-8.5,0-16.7,3.3-22.8,9.1l-47.3,45.1c-1.5,1.4-1.9,3.5-1.2,5.4
			c0.8,1.9,2.6,3.1,4.6,3.1H481c0,0,0,0,0,0c8.5,0,16.6-3.3,22.8-9.1l6.7-6.3c1-0.9,2.2-1.4,3.4-1.4s2.5,0.5,3.4,1.4l41.2,39.4
			c6.1,5.9,14.3,9.1,22.8,9.1h23.9C607.2,218.7,609.1,217.5,609.8,215.6z"/>
	</g>
	<g>
		<path class="st1" d="M1109.2,216h-6l4.6-17.3h-5.7l1.4-5.2h17.8l-1.4,5.2h-6.1L1109.2,216z"/>
		<path class="st1" d="M1145,216h-5.9l5-17.2h-0.2l-10.2,17.2h-5.2l-1.1-17.2h-0.2l-4.1,17.2h-5.9l6-22.4h9.5l0.5,14.1h0.2l7.8-14.1
			h9.7L1145,216z"/>
	</g>
</g>
<g>
	<rect x="33.3" y="74.8" class="st1" width="248.4" height="159.2"/>
	<path class="st2" d="M273.2,221c1.1-2.8,0.4-6-1.8-8.1l-79.3-75.7c-2.2-2.1-2.9-5.3-1.8-8.1c1.1-2.8,3.8-4.6,6.8-4.6c0,0,0,0,0,0
		h23.4c12.6,0,24.8-4.9,33.9-13.6l15.8-15.1c2.2-2.1,2.9-5.3,1.7-8.1c-1.1-2.8-3.8-4.6-6.8-4.6h-35.6c-12.6,0-24.8,4.9-33.9,13.6
		l-7.8,7.4c-0.7,0.7-1.6,1-2.6,1c0,0,0,0,0,0c0,0,0,0,0,0c-1.5,0-2.9-0.9-3.5-2.4c-0.6-1.4-0.2-3.1,0.9-4.1l3-2.9
		c2.2-2.1,2.9-5.3,1.8-8.1c-1.1-2.8-3.8-4.6-6.8-4.6h-35.6c-12.6,0-24.8,4.9-33.9,13.6l-70.3,67.1c-2.2,2.1-2.9,5.3-1.8,8.1
		c1.1,2.8,3.8,4.6,6.8,4.6h35.6c0,0,0,0,0,0c12.6,0,24.8-4.9,33.9-13.6l9.9-9.4c1.4-1.4,3.3-2,5.1-2c1.8,0,3.7,0.7,5.1,2l61.3,58.5
		c9.1,8.7,21.3,13.6,33.9,13.6h35.6C269.3,225.6,272.1,223.8,273.2,221z"/>
</g>
</svg>
