<?xml version="1.0" encoding="utf-8"?>
<!-- Generator: Adobe Illustrator 26.0.0, SVG Export Plug-In . SVG Version: 6.00 Build 0)  -->
<svg version="1.1" id="Capa_1" xmlns="http://www.w3.org/2000/svg" xmlns:xlink="http://www.w3.org/1999/xlink" x="0px" y="0px"
	 viewBox="0 0 595.3 841.9" style="enable-background:new 0 0 595.3 841.9;" xml:space="preserve">
<style type="text/css">
	.st0{fill:#FFFFFF;}
</style>
<path class="st0" d="M534,288c-4.3,14.6-8.8,29.2-13,43.9c-15.5,54.1-30.9,108.3-46.3,162.4c-3.3,11.6-7.6,14.8-19.7,14.8
	c-88,0-176,0-264,0c-3,0-6,0.2-8.9,1c-5.9,1.7-10.2,7.9-10.1,14c0.1,6.2,4.4,12.2,10.3,13.8c2.8,0.8,5.9,1,8.9,1
	c88.8,0,177.6,0,266.5,0.1c12,0,19.6,10.5,15.1,20.9c-2.6,5.8-7.2,9-13.7,9.1c-7.1,0.1-14.3,0-22.2,0c28.9,11.5,41.2,30.4,36.1,54.6
	c-4.5,21.2-23.9,36.2-45.8,35.4c-21.8-0.8-40-17.5-42.8-39.5c-2.5-19.1,8-42.8,37.1-50.1c-66.1,0-130.9,0-195.7,0
	c12.1,3.2,22.1,9.6,29,20.2c6.8,10.5,8.9,22.2,6.2,34.5c-4.8,21.4-24.6,36.2-46.6,35c-21.5-1.2-39.5-18.1-42-39.9
	c-2.4-20.3,9.7-43.1,35.9-50.1c-7.1,0-14.2,0.2-21.3,0c-17.6-0.5-30.9-8.4-39.4-23.8c-11.9-21.6-3.6-48.9,18.1-60.7
	c1-0.6,2-1.1,3.5-1.9c-18-81.1-36-162.2-54.1-243.6c-16.1,0-31.9,0-47.8,0c-8.7,0-17.4-0.4-26,0.1C32,239.6,25.7,236.3,22,228
	c0-2.7,0-5.3,0-8c3.7-8.3,10-11.3,19.1-11.1c27,0.4,54,0.1,81,0.1c13.7,0,18,3.5,20.9,16.8c3.1,14.3,6.3,28.5,9.6,43.2
	c2.3,0,4.4,0,6.6,0c118.6,0,237.2,0.1,355.9-0.1c9,0,15.4,2.8,19.1,11.1C534,282.6,534,285.3,534,288z M498.9,299.2
	c-113.5,0-226.4,0-339.7,0c13.3,60,26.6,119.8,39.9,179.5c83.1,0,165.9,0,248.6,0C464.8,418.8,481.8,359.2,498.9,299.2z
	 M231.9,614.1c0.1-7.9-7.1-15.1-15-15c-7.8,0-14.6,6.8-14.9,14.6c-0.2,7.9,6.7,15.1,14.7,15.3C224.7,629.1,231.9,622,231.9,614.1z
	 M428.8,628.9c7.9,0.1,15.1-6.9,15.1-14.9c0-7.8-6.7-14.7-14.5-15c-7.9-0.3-15.1,6.6-15.4,14.6C413.8,621.6,420.8,628.8,428.8,628.9
	z"/>
<path class="st0" d="M534,280c-3.7-8.3-10-11.1-19.1-11.1C396.3,269,277.7,269,159.1,269c-2.1,0-4.3,0-6.6,0
	c-3.3-14.7-6.5-28.9-9.6-43.2c-2.9-13.3-7.2-16.8-20.9-16.8c-27,0-54,0.3-81-0.1C32,208.7,25.7,211.6,22,220c0-14,0-28,0-42
	c170.7,0,341.3,0,512,0C534,212,534,246,534,280z"/>
<path class="st0" d="M498.9,299.2c-17.2,60.1-34.2,119.6-51.3,179.5c-82.7,0-165.4,0-248.6,0c-13.3-59.7-26.5-119.4-39.9-179.5
	C272.5,299.2,385.5,299.2,498.9,299.2z"/>
<path class="st0" d="M231.9,614.1c-0.1,8-7.2,15-15.1,14.9c-8-0.2-15-7.4-14.7-15.3c0.2-7.8,7.1-14.6,14.9-14.6
	C224.9,599,232,606.1,231.9,614.1z"/>
<path class="st0" d="M428.8,628.9c-8-0.1-15-7.3-14.8-15.2c0.2-8,7.5-15,15.4-14.6c7.9,0.3,14.6,7.2,14.5,15
	C443.9,622,436.8,629.1,428.8,628.9z"/>
</svg>
