<?xml version="1.0" encoding="utf-8"?>
<!-- Generator: Adobe Illustrator 26.0.0, SVG Export Plug-In . SVG Version: 6.00 Build 0)  -->
<svg version="1.1" id="Capa_1" xmlns="http://www.w3.org/2000/svg" xmlns:xlink="http://www.w3.org/1999/xlink" x="0px" y="0px"
	 viewBox="0 0 141.7 141.7" style="enable-background:new 0 0 141.7 141.7;" xml:space="preserve">
<style type="text/css">
	.st0{fill:#F9F9F9;}
	.st1{fill:#FFFFFF;}
</style>
<path class="st0" d="M133,47.2c-0.8,3.4-1.6,6.7-2.4,10.1c-2.2,9.4-4.3,18.7-6.5,28.1c-1.1,4.7-4.5,7.4-9.3,7.4c-23,0-45.9,0-68.9,0
	c-0.8,0-1.5,0-2.3,0.2c-1.9,0.6-2.9,2.3-2.6,4.5c0.2,1.8,1.7,3.2,3.6,3.3c0.5,0,1,0,1.5,0c23.8,0,47.6,0,71.3,0c2.8,0,4.7,1.9,4,4.4
	c-0.3,1.1-1.2,2-2,3.2c1.3,3,1.5,6.4,0.1,9.9c-1,2.5-2.6,4.4-4.8,5.9c-4.6,3-10.4,2.7-14.7-0.5c-3.7-2.8-6.7-8.6-3.9-15.4
	c-7.5,0-15,0-22.6,0c2.3,6.8,0.8,12.5-5.5,16.4c-4.3,2.7-10,2.2-14-1c-5-4.1-6.1-9.3-3.9-15.5c-1.6,0-3,0-4.5,0
	c-3.5,0-6.6-1.1-9-3.7c-3.1-3.4-3.9-7.4-2.3-11.7c1.6-4.2,4.8-6.7,9.3-7.2c0.2,0,0.5-0.1,0.8-0.2c-1-3.8-2-7.5-3-11.2
	c-4.4-16.3-8.8-32.7-13.2-49c-0.5-2-0.6-2.1-2.7-2.1c-4.2,0-8.4,0-12.6,0c-3,0-4.8-3-3.4-5.5c0.7-1.2,1.8-1.8,3.1-1.8
	c4.9,0,9.9-0.1,14.8,0.1c3.7,0.2,6.6,2.7,7.6,6.3c1.4,5,2.8,10,4.1,15c0.2,0.8,0.6,1,1.3,1c22,0.1,43.9,0.2,65.9,0.3
	c5.9,0,11.8,0.2,17.7,0.1c4.6-0.1,7.7,1.5,9.2,5.9C133,45.3,133,46.3,133,47.2z M59.7,61.9C59,56.3,58.2,51,57.5,45.6
	c-5.5,0-10.8,0-16.3,0c1.5,5.5,2.9,10.9,4.4,16.3C50.3,61.9,54.9,61.9,59.7,61.9z M67.1,61.8c4.6,0,9.2,0,13.7,0
	c0-5.4,0-10.8,0-16.2c-5.3,0-10.6,0-15.9,0C65.7,51.1,66.4,56.4,67.1,61.8z M88.3,45.8c0,5.4,0,10.7,0,16c0.2,0,0.4,0.1,0.6,0.1
	c4.1,0,8.2,0,12.4,0c0.8,0,0.9-0.5,1-1.1c0.2-1.7,0.4-3.4,0.6-5c0.4-3.3,0.9-6.6,1.3-10.1C98.9,45.8,93.6,45.8,88.3,45.8z M122,61.8
	c1.2-5.4,2.5-10.7,3.7-16.1c-4.6,0-9,0-13.5,0c-0.8,0-0.7,0.5-0.8,1.1c-0.5,3.5-0.9,7-1.4,10.5c-0.2,1.5-0.4,3-0.5,4.5
	C113.8,61.8,117.9,61.8,122,61.8z M62.8,85.4c0-0.4,0-0.8-0.1-1.1c-0.6-4.7-1.3-9.3-1.9-14c-0.1-0.8-0.4-1-1.1-1c-3.1,0-6.2,0-9.3,0
	c-0.9,0-1.7,0-2.8,0c1.4,5.1,2.7,10,4.1,14.8c0.2,0.5,1,1.2,1.6,1.2C56.4,85.4,59.5,85.4,62.8,85.4z M88.3,69.3c0,5.4,0,10.7,0,16.1
	c3.4,0,6.7,0,10,0c0.3,0,0.7-0.6,0.7-0.9c0.4-2.9,0.8-5.7,1.2-8.6c0.3-2.1,0.5-4.3,0.8-6.5C96.8,69.3,92.6,69.3,88.3,69.3z
	 M68.1,69.3c0.7,5.4,1.4,10.8,2.2,16c3.7,0,7.2,0,10.6,0c0-5.4,0-10.7,0-16C76.6,69.3,72.4,69.3,68.1,69.3z M106.3,85.4
	c3,0,5.9,0,8.7,0c1.2,0,1.7-0.8,1.9-1.8c0.6-2.5,1.1-4.9,1.7-7.4c0.5-2.3,1-4.5,1.6-6.9c-4,0-7.8,0-11.8,0
	C107.8,74.7,107.1,80,106.3,85.4z M61.7,119c3,0,5.4-2.4,5.4-5.4c0-3-2.5-5.4-5.5-5.4c-3,0-5.4,2.4-5.4,5.4
	C56.2,116.6,58.6,119,61.7,119z M107.6,119c3,0,5.4-2.3,5.4-5.3c0-3.1-2.3-5.5-5.4-5.5c-3,0-5.4,2.4-5.4,5.4
	C102.2,116.6,104.5,119,107.6,119z"/>
<path class="st1" d="M59.7,61.9c-4.8,0-9.4,0-14.1,0c-1.5-5.4-2.9-10.8-4.4-16.3c5.5,0,10.8,0,16.3,0C58.2,51,59,56.3,59.7,61.9z"/>
<path class="st1" d="M67.1,61.8c-0.7-5.4-1.4-10.8-2.2-16.2c5.3,0,10.6,0,15.9,0c0,5.4,0,10.8,0,16.2C76.3,61.8,71.7,61.8,67.1,61.8
	z"/>
<path class="st1" d="M88.3,45.8c5.4,0,10.6,0,15.9,0c-0.5,3.4-0.9,6.7-1.3,10.1c-0.2,1.7-0.4,3.4-0.6,5c-0.1,0.6-0.1,1.1-1,1.1
	c-4.1,0-8.2,0-12.4,0c-0.2,0-0.4-0.1-0.6-0.1C88.3,56.4,88.3,51.1,88.3,45.8z"/>
<path class="st1" d="M122,61.8c-4.1,0-8.2,0-12.5,0c0.2-1.5,0.3-3,0.5-4.5c0.5-3.5,0.9-7,1.4-10.5c0.1-0.5,0-1.1,0.8-1.1
	c4.4,0,8.9,0,13.5,0C124.5,51.2,123.2,56.5,122,61.8z"/>
<path class="st1" d="M62.8,85.4c-3.2,0-6.4,0.1-9.5-0.1c-0.6,0-1.4-0.7-1.6-1.2c-1.4-4.9-2.7-9.8-4.1-14.8c1,0,1.9,0,2.8,0
	c3.1,0,6.2,0,9.3,0c0.7,0,1,0.2,1.1,1c0.6,4.7,1.2,9.3,1.9,14C62.7,84.6,62.7,84.9,62.8,85.4z"/>
<path class="st1" d="M88.3,69.3c4.3,0,8.4,0,12.7,0c-0.3,2.2-0.5,4.4-0.8,6.5c-0.4,2.9-0.7,5.7-1.2,8.6c-0.1,0.4-0.5,0.9-0.7,0.9
	c-3.3,0.1-6.6,0-10,0C88.3,80,88.3,74.7,88.3,69.3z"/>
<path class="st1" d="M68.1,69.3c4.3,0,8.5,0,12.8,0c0,5.3,0,10.6,0,16c-3.5,0-6.9,0-10.6,0C69.5,80.1,68.8,74.8,68.1,69.3z"/>
<path class="st1" d="M106.3,85.4c0.7-5.5,1.4-10.7,2.1-16.1c3.9,0,7.8,0,11.8,0c-0.5,2.3-1,4.6-1.6,6.9c-0.6,2.5-1.1,4.9-1.7,7.4
	c-0.2,1-0.8,1.8-1.9,1.8C112.2,85.4,109.4,85.4,106.3,85.4z"/>
<path class="st1" d="M61.7,119c-3,0-5.5-2.4-5.5-5.4c0-3,2.4-5.4,5.4-5.4c3,0,5.5,2.4,5.5,5.4C67,116.5,64.6,119,61.7,119z"/>
<path class="st1" d="M107.6,119c-3,0-5.4-2.3-5.4-5.3c0-3.1,2.3-5.5,5.4-5.4c3.1,0,5.4,2.4,5.4,5.5C112.9,116.7,110.6,119,107.6,119
	z"/>
</svg>
