<?xml version="1.0" encoding="utf-8"?>
<!-- Generator: Adobe Illustrator 26.0.0, SVG Export Plug-In . SVG Version: 6.00 Build 0)  -->
<svg version="1.1" id="Capa_1" xmlns="http://www.w3.org/2000/svg" xmlns:xlink="http://www.w3.org/1999/xlink" x="0px" y="0px"
	 viewBox="0 0 400 400" style="enable-background:new 0 0 400 400;" xml:space="preserve">
<style type="text/css">
	.st0{fill:#FFFFFF;}
</style>
<path class="st0" d="M392,343.6c-0.2,0.4-0.6,0.8-0.7,1.2c-3.8,13.1-12.9,20.5-26.4,21.5c-1.4,0.1-2.7,0.1-4.1,0.1
	c-107,0-214,0-321,0.1c-11,0-20.1-3.3-26.4-12.6c-3.1-4.5-4.8-9.6-4.6-15.1c0.2-5.1-0.2-10.3,0.9-15.2c2.6-12.3,14-21.1,26.6-21.1
	c109.4,0,218.7,0,328.1,0c12.4,0,22.8,8,26.7,20.2c0.2,0.8,0.6,1.5,1,2.3C392,331.1,392,337.3,392,343.6z"/>
<path class="st0" d="M160.3,158.5c0-1.8,0-3.3,0-4.8c0-28.3,0-56.6,0-85c0-10.8,5.2-18.4,14.4-21.1c2.4-0.7,4.9-0.9,7.4-0.9
	c12.1-0.1,24.2-0.1,36.3,0c13.7,0.1,21.9,8.1,21.9,21.9c0.1,28.4,0,56.9,0,85.3c0,1.5,0,2.9,0,4.7c12.5,0,24.6,0,36.7,0
	c2.2,0,4.5,0,6.7,0c5.3-0.1,9.2,2.4,11.3,7.1c2.1,4.7,1.4,9.3-2.2,13.2c-7.8,8.3-15.6,16.5-23.5,24.7
	c-19.5,20.4-38.9,40.8-58.4,61.2c-7.4,7.8-13.9,7.8-21.3,0c-26.9-28.2-53.7-56.3-80.6-84.4c-3.1-3.2-5.1-6.7-4.5-11.3
	c0.7-5.8,5.7-10.3,11.8-10.3c13.6-0.1,27.2,0,40.8,0C158.1,158.7,159,158.6,160.3,158.5z"/>
</svg>
