<?xml version="1.0" encoding="utf-8"?>
<!-- Generator: Adobe Illustrator 26.0.0, SVG Export Plug-In . SVG Version: 6.00 Build 0)  -->
<svg version="1.1" id="Capa_1" xmlns="http://www.w3.org/2000/svg" xmlns:xlink="http://www.w3.org/1999/xlink" x="0px" y="0px"
	 viewBox="0 0 1125 2436" style="enable-background:new 0 0 1125 2436;" xml:space="preserve">
<style type="text/css">
	.st0{fill:#333333;}
</style>
<path class="st0" d="M1106.5,1786.6c5.2-18.1,2-38.7-8.1-52.1l-368.6-489c-10.1-13.4-13.3-34.1-8.1-52.1
	c5.2-18.1,17.8-29.9,31.8-29.9c0,0,0,0,0,0h109c58.7,0,115.2-31.5,157.6-87.8l73.5-97.5c10.1-13.4,13.3-34.1,8.1-52.1
	c-5.2-18-17.8-29.9-31.8-29.9H904.6c-58.8,0-115.3,31.5-157.8,87.9l-36.1,47.9c-3.3,4.3-7.6,6.7-12.1,6.7c0,0,0,0,0,0c0,0,0,0,0,0
	c-7.2,0-13.6-6.1-16.3-15.3c-2.7-9.3-1-19.8,4.2-26.7l13.9-18.5c10.1-13.4,13.3-34.1,8.1-52.1S690.7,896,676.7,896H511.4
	c-58.7,0-115.1,31.4-157.6,87.8L26.9,1417.2c-10.1,13.4-13.3,34.1-8.1,52.1c5.2,18.1,17.8,29.9,31.8,29.9h165.4c0,0,0,0,0.1,0
	c58.7,0,115.1-31.4,157.6-87.6l46-60.9c6.6-8.8,15.1-13.2,23.6-13.2s17,4.4,23.7,13.2l284.9,377.9c42.5,56.4,99,87.8,157.7,87.8
	h165.3C1088.7,1816.5,1101.3,1804.6,1106.5,1786.6z"/>
</svg>
