<?xml version="1.0" encoding="utf-8"?>
<!-- Generator: Adobe Illustrator 26.0.0, SVG Export Plug-In . SVG Version: 6.00 Build 0)  -->
<svg version="1.1" xmlns="http://www.w3.org/2000/svg" xmlns:xlink="http://www.w3.org/1999/xlink" x="0px" y="0px"
	 viewBox="0 0 400 400" style="enable-background:new 0 0 400 400;" xml:space="preserve">
<style type="text/css">
	.st0{display:none;}
	.st1{display:inline;fill:#FFFFFF;}
	.st2{fill:#FFFFFF;}
</style>
<g id="Capa_1" class="st0">
	<path class="st1" d="M375,159.4c-1.2,6.1-2.1,12.3-3.6,18.3c-3.3,13.6-9.3,26-16.8,37.7c-14.8,23-33.9,42.1-54.2,60.1
		c-28.2,24.9-56.8,49.3-85.3,74c-9.3,8.1-19.8,8.5-29,0.5c-32.1-27.8-64.3-55.6-96.1-83.9c-16.6-14.8-31.6-31.4-43.8-50.2
		c-14.7-22.7-22.4-47.3-20.4-74.5C28,113,38.5,88.1,60,68.7C76.5,53.8,96.2,46,118.4,44.9c32.7-1.5,58.1,12.4,78.3,37.2
		c1.1,1.4,2.2,2.8,3.5,4.5c2.8-3.3,5.2-6.5,7.9-9.5c14.7-16.4,32.4-27.7,54.5-31.1c25.9-4,49.7,1.5,70.9,17
		c22.6,16.5,34.9,39.5,39.9,66.7c0.6,3.1,1,6.2,1.5,9.3C375,145.8,375,152.6,375,159.4z M200.3,334.9c0.6-0.5,1-0.7,1.3-1
		c28-24.2,56.2-48.3,84-72.8c18.6-16.4,36.2-33.8,50.2-54.5c16.4-24.2,22.5-50.5,16-79.3c-7-31-30.3-56-62.6-60.9
		c-18.7-2.8-35.9,0.7-51.4,11.7c-10.8,7.7-19,17.7-26.2,28.8c-5.9,9.1-16.6,9-22.7,0.1c-2.6-3.7-5-7.6-7.8-11.2
		c-13.4-16.8-29.9-28.4-52.1-30.1c-18.5-1.4-35.4,3.1-50.3,14.3c-18.5,13.9-28.2,33-31.5,55.6c-3.2,21.9,1,42.4,11.8,61.7
		c9.4,16.7,21.5,31.3,35.4,44.3c20.4,19.1,41.4,37.6,62.4,56.1C171.1,310.2,185.7,322.4,200.3,334.9z"/>
	<path class="st1" d="M200.3,334.9c-14.6-12.5-29.1-24.7-43.3-37.3c-20.9-18.5-41.9-37-62.4-56.1c-13.9-13-26.1-27.6-35.4-44.3
		c-10.8-19.2-15-39.7-11.8-61.7c3.3-22.6,13-41.7,31.5-55.6c14.8-11.2,31.8-15.7,50.3-14.3c22.1,1.7,38.6,13.3,52.1,30.1
		c2.8,3.5,5.2,7.4,7.8,11.2c6.1,8.9,16.9,9.1,22.7-0.1c7.1-11.1,15.4-21.2,26.2-28.8c15.5-11,32.7-14.5,51.4-11.7
		c32.3,4.9,55.5,29.9,62.6,60.9c6.6,28.8,0.4,55.1-16,79.3c-14,20.7-31.6,38.1-50.2,54.5c-27.8,24.5-56,48.5-84,72.8
		C201.3,334.2,200.9,334.4,200.3,334.9z"/>
</g>
<g id="Capa_2">
	<path class="st2" d="M375,138.9c0,6.8,0,13.6,0,20.5c-0.2,1-0.6,1.9-0.7,2.9c-2.1,19.3-9.2,36.9-19.7,53.1
		c-14.8,23-33.9,42.1-54.2,60.1c-28.2,24.9-56.8,49.3-85.3,74c-9.6,8.3-20.1,8.3-29.8-0.1c-28.4-24.5-56.9-48.9-85-73.7
		c-20.4-18-39.6-37.2-54.4-60.3c-16.9-26.2-24-54.8-18.7-85.7C32,102.4,44.6,79.5,67.2,63c21.2-15.5,45-21,70.9-16.9
		c22.2,3.5,39.9,14.9,54.7,31.4c2.6,2.9,5,6,7.6,9.1c3.1-3.7,5.9-7.3,9-10.6c23.8-25.4,52.9-36.3,87.1-29
		c40.6,8.6,64.5,35.2,75.1,74.5C373.1,127.1,373.9,133.1,375,138.9z"/>
</g>
</svg>
