<?xml version="1.0" encoding="utf-8"?>
<!-- Generator: Adobe Illustrator 26.0.0, SVG Export Plug-In . SVG Version: 6.00 Build 0)  -->
<svg version="1.1" id="Capa_1" xmlns="http://www.w3.org/2000/svg" xmlns:xlink="http://www.w3.org/1999/xlink" x="0px" y="0px"
	 viewBox="0 0 400 400" style="enable-background:new 0 0 400 400;" xml:space="preserve">
<style type="text/css">
	.st0{fill:#FFFFFF;}
</style>
<path class="st0" d="M173,7c6,1,12,1.7,17.9,3c46.7,9.8,81.9,35.6,105.3,77.2c14.5,25.8,20.5,53.9,18.8,83.4
	c-1.8,30.2-11.8,57.6-29.8,82c-0.7,1-1.4,2-2.3,3.2c1,1.1,1.9,2,2.9,3c32.6,32.6,65.3,65.3,97.9,97.9c9.1,9.2,8.4,22.7-1.5,30
	c-7.8,5.7-18,4.9-25.2-2.2c-9-8.8-17.8-17.8-26.7-26.7c-24-24-48-48-72-72c-0.8-0.8-1.4-1.7-2.3-2.8c-2.7,1.9-5,3.5-7.3,5.1
	c-29,19.9-61.2,29-96.3,27.2C82.5,311.7,22.9,259.7,9.8,191.1c-1.1-6-2-12-3-18c0-8,0-16,0-24c0.2-1,0.5-1.9,0.7-2.9
	c1.8-9.5,2.6-19.3,5.5-28.5C31.9,59.6,71.2,23.4,131.1,10c5.9-1.3,11.9-2,17.9-3C157,7,165,7,173,7z"/>
</svg>
