<?xml version="1.0" encoding="utf-8"?>
<!-- Generator: Adobe Illustrator 26.0.0, SVG Export Plug-In . SVG Version: 6.00 Build 0)  -->
<svg version="1.1" id="Capa_1" xmlns="http://www.w3.org/2000/svg" xmlns:xlink="http://www.w3.org/1999/xlink" x="0px" y="0px"
	 viewBox="0 0 595.3 841.9" style="enable-background:new 0 0 595.3 841.9;" xml:space="preserve">
<style type="text/css">
	.st0{fill:#D1F748;}
</style>
<path class="st0" d="M287.5,616.5c-40.4,0-80.9-0.5-121.3,0.1c-42.4,0.6-65.8-36.4-62.3-68.8c3.9-35.5,22.2-63.8,50.5-85.3
	c22.2-16.8,47.5-24.9,75.4-24.9c38.5,0,77-0.6,115.4,0.2c55,1.1,93.8,27.6,117,77.4c6.6,14.1,10.8,28.5,8.9,44.3
	c-3.4,29-24.9,57.6-62.3,57.1C368.3,616.2,327.9,616.5,287.5,616.5z M287.2,585c40.4,0,80.9,0,121.3,0c2.6,0,5.3,0,7.8-0.6
	c14.7-3,25.7-18.8,23.3-35.2c-1.2-8.3-4.3-16.5-7.9-24.1c-16.5-34.1-43.7-53.9-81.6-55.3c-41.4-1.5-82.9-1.2-124.3-0.2
	c-41.7,1-76.3,28.1-89.6,72.8c-6.9,23.4,8.3,42.5,32.6,42.5C208.3,585,247.7,585,287.2,585z"/>
<path class="st0" d="M387.3,306.1c0.3,54.9-44.5,99.8-99.9,100.1c-54.4,0.3-99.5-44.7-99.7-99.3c-0.2-55,44-100.4,98.2-100.7
	C342.3,205.7,386.9,249.8,387.3,306.1z M355.7,306.4c0.2-37.8-30.1-68.5-67.9-68.8c-37.5-0.2-68.4,30.2-68.6,67.5
	c-0.3,38.2,30,69.1,67.9,69.3C324.9,374.7,355.5,344.3,355.7,306.4z"/>
</svg>
