<?xml version="1.0" encoding="utf-8"?>
<!-- Generator: Adobe Illustrator 26.0.0, SVG Export Plug-In . SVG Version: 6.00 Build 0)  -->
<svg version="1.1" id="Capa_1" xmlns="http://www.w3.org/2000/svg" xmlns:xlink="http://www.w3.org/1999/xlink" x="0px" y="0px"
	 viewBox="0 0 141.7 141.7" style="enable-background:new 0 0 141.7 141.7;" xml:space="preserve">
<style type="text/css">
	.st0{fill:#F9F9F9;}
</style>
<path class="st0" d="M97.7,134c-2.1-0.8-3.6-2.4-5.1-3.9C74.5,112,56.4,93.9,38.4,75.9c-2.6-2.6-3.2-5.6-1.5-8.3
	c0.4-0.7,0.9-1.3,1.5-1.8C56.9,47.1,75.5,28.5,94.2,9.9c1.8-1.8,3.9-2.8,6.6-2.1c2.5,0.6,4,2.3,4.7,4.7c0.5,2,0,3.7-1.2,5.3
	c-0.4,0.5-0.8,0.9-1.3,1.4C86.1,36,69.3,52.9,52.4,69.7c-0.3,0.3-0.6,0.6-1.2,1.3c0.5,0.3,0.9,0.5,1.3,0.9
	c16.9,16.9,33.8,33.8,50.7,50.7c2.6,2.6,3.1,5.7,1.4,8.5c-0.9,1.5-2.4,2.2-3.9,2.9C99.6,134,98.7,134,97.7,134z"/>
</svg>
