<?xml version="1.0" encoding="utf-8"?>
<!-- Generator: Adobe Illustrator 26.0.0, SVG Export Plug-In . SVG Version: 6.00 Build 0)  -->
<svg version="1.1" id="Capa_1" xmlns="http://www.w3.org/2000/svg" xmlns:xlink="http://www.w3.org/1999/xlink" x="0px" y="0px"
	 viewBox="0 0 141.7 141.7" style="enable-background:new 0 0 141.7 141.7;" xml:space="preserve">
<style type="text/css">
	.st0{fill:#F9F9F9;}
</style>
<path class="st0" d="M102.6,135.7c-2.2-0.8-4.7-1.2-6.7-2.4c-6.3-3.6-9.2-9.3-9.2-16.4c0-30.1,0-60.2,0-90.3c0-1.4,0.1-2.8,0.2-4.2
	c0.6-7.8,7.2-14.6,15-15.9c9.6-1.5,18.5,4.7,20.5,13.8c0.3,1.5,0.4,3.1,0.4,4.6c0,30.7-0.1,61.4,0.1,92.1c0,9.2-6.1,16.5-14.2,18.3
	c-0.5,0.1-1,0.3-1.6,0.4C105.6,135.7,104.1,135.7,102.6,135.7z"/>
<path class="st0" d="M34.9,135.7c-1.8-0.6-3.8-1-5.4-1.8c-6.4-3.2-9.8-8.4-10.2-15.6c0-0.5,0-1,0-1.5c0-30.5,0-61.1,0-91.6
	c0-5.7,1.8-10.6,6.1-14.4C30.8,6,37.2,4.9,44,7.6c6.6,2.7,10.3,7.8,11.2,15c0.1,1.2,0.2,2.4,0.2,3.5c0,30.2,0,60.5,0,90.7
	c0,7.2-2.9,12.8-9.2,16.4c-2,1.2-4.4,1.6-6.7,2.4C37.9,135.7,36.4,135.7,34.9,135.7z"/>
</svg>
