<?xml version="1.0" encoding="utf-8"?>
<!-- Generator: Adobe Illustrator 26.0.0, SVG Export Plug-In . SVG Version: 6.00 Build 0)  -->
<svg version="1.1" id="Capa_1" xmlns="http://www.w3.org/2000/svg" xmlns:xlink="http://www.w3.org/1999/xlink" x="0px" y="0px"
	 viewBox="0 0 400 400" style="enable-background:new 0 0 400 400;" xml:space="preserve">
<style type="text/css">
	.st0{fill:#FFFFFF;}
</style>
<path class="st0" d="M61.2,14.9c3.6,0,7.2,0,10.8,0c7.7,3,15.9,5,23,9c81.9,46.7,163.7,93.6,245.4,140.7c5.7,3.3,11.1,7.3,15.8,11.9
	c13.7,13.3,14.5,31,1.7,45.1c-4.9,5.4-11.1,10.1-17.4,13.8C258.7,282.4,176.9,329.3,95,376c-5.7,3.2-11.9,5.8-18.2,7.6
	c-17.9,5.1-33.4-2.9-40.1-20.2c-3-7.8-3.7-15.9-3.7-24.1c0-92.5,0-185,0-277.5c0-4.4,0.2-8.9,0.7-13.3c1.3-9.9,4.2-19.3,12.3-25.7
	C50.5,19.2,56.1,17.4,61.2,14.9z"/>
</svg>
