<?xml version="1.0" encoding="utf-8"?>
<!-- Generator: Adobe Illustrator 26.0.0, SVG Export Plug-In . SVG Version: 6.00 Build 0)  -->
<svg version="1.1" id="Capa_1" xmlns="http://www.w3.org/2000/svg" xmlns:xlink="http://www.w3.org/1999/xlink" x="0px" y="0px"
	 viewBox="0 0 141.7 141.7" style="enable-background:new 0 0 141.7 141.7;" xml:space="preserve">
<style type="text/css">
	.st0{fill:#F9F9F9;}
</style>
<path class="st0" d="M25.6,136.3c-1.3,0-2.6,0-3.8,0c-0.3-0.1-0.5-0.2-0.8-0.3c-3.1-0.8-5.4-2.6-6.9-5.4c-1.7-3.1-2.2-6.5-2.2-10
	c0-33.2,0-66.3,0-99.5c0-2.4,0.3-4.8,1-7c1.7-5.9,6-8.9,11.9-8.6C28.1,5.7,31,7,33.8,8.6c28.9,16.6,57.8,33.1,86.7,49.8
	c2,1.2,3.9,2.6,5.6,4.2c4.8,4.7,5.1,11,0.6,15.9c-1.8,2-4.1,3.7-6.5,5.1C93.1,99.2,66,114.7,38.9,130.2
	C34.6,132.7,30.6,135.4,25.6,136.3z"/>
</svg>
