<?xml version="1.0" encoding="utf-8"?>
<!-- Generator: Adobe Illustrator 26.0.0, SVG Export Plug-In . SVG Version: 6.00 Build 0)  -->
<svg version="1.1" id="Capa_1" xmlns="http://www.w3.org/2000/svg" xmlns:xlink="http://www.w3.org/1999/xlink" x="0px" y="0px"
	 viewBox="0 0 595.3 841.9" style="enable-background:new 0 0 595.3 841.9;" xml:space="preserve">
<style type="text/css">
	.st0{fill:#D1F748;}
</style>
<path class="st0" d="M459.4,421.2c1.1,29.9,1.6,59.9,3.6,89.7c2.7,39.2-24.3,67.1-48.6,74.4c-6.7,2-13.9,3.4-20.9,3.5
	c-63.2,0.3-126.5,0.3-189.7,0.1c-39.2-0.1-71.2-31.9-71.4-71.2c-0.1-15.7,1-31.4,1.5-47.1c1.1-30,2.3-60.1,3.4-90.1
	c0.8-20.3,1.4-40.6,2.3-60.9c1.6-32.4,29-61.5,61.3-65.2c3.2-0.4,6.5-0.7,9.7-0.7c57.9,0,115.7-0.1,173.6,0
	c33.1,0.1,61.4,22.3,69.1,54.5c1.8,7.7,2.1,15.8,2.5,23.7c0.8,14.9,1.2,29.9,1.7,44.9C458.3,391.5,458.8,406.3,459.4,421.2
	L459.4,421.2z M159.8,420.2C159.9,420.2,159.9,420.3,159.8,420.2c-1.1,31.2-2.2,62.3-3.5,93.5c-1.2,28.5,20.1,51.2,48.6,51.2
	c62.6,0.1,125.2,0,187.8,0c3.6,0,7.3-0.4,10.7-1.2c21.7-5.3,37.2-26.6,36.5-50c-0.4-14.5-1.1-28.9-1.6-43.4
	c-1.8-49-3.5-98-5.5-146.9c-0.2-5.1-1.3-10.5-3.1-15.3c-6.8-18.8-23.9-30.4-44.9-30.5c-26.2-0.1-52.4,0-78.6,0
	c-31.9,0-63.9-0.1-95.8,0c-24.7,0.1-45.9,19.9-46.9,44C162.2,354.4,161.1,387.3,159.8,420.2z"/>
<path class="st0" d="M300.5,397.3c-49.2,0-86.7-37.2-86.7-83.1c0-9.5,7.6-15,16.4-11.9c4.9,1.7,7.3,5.7,7.5,12.1
	c0.5,19.1,7.8,35.1,23.1,46.5c19.6,14.6,41.1,16.9,63.1,6.4c21.7-10.4,32.5-28.6,33.5-52.6c0.2-5.6,1.7-10.1,7.2-12.3
	c8.7-3.4,16.7,2.1,16.8,11.4c0.4,34.5-21.9,66.5-54.5,78.3C317.4,395.6,307.7,397.2,300.5,397.3z"/>
</svg>
