<?xml version="1.0" encoding="utf-8"?>
<!-- Generator: Adobe Illustrator 26.0.0, SVG Export Plug-In . SVG Version: 6.00 Build 0)  -->
<svg version="1.1" id="Capa_1" xmlns="http://www.w3.org/2000/svg" xmlns:xlink="http://www.w3.org/1999/xlink" x="0px" y="0px"
	 viewBox="0 0 400 400" style="enable-background:new 0 0 400 400;" xml:space="preserve">
<style type="text/css">
	.st0{fill:#FFFFFF;}
</style>
<path class="st0" d="M80.6,236.3c-20,0-35.9-16-35.9-36.1c0-19.8,16.1-35.7,36-35.7c20,0,35.9,16,35.9,36.1
	C116.5,220.4,100.5,236.3,80.6,236.3z"/>
<path class="st0" d="M164.5,200.3c0-20,16-35.9,36.1-35.9c19.8,0,35.7,16.1,35.7,36c0,20-16,35.9-36.1,35.9
	C180.4,236.3,164.4,220.2,164.5,200.3z"/>
<path class="st0" d="M320.5,164.5c19.9,0.1,35.7,16.2,35.6,36.4c-0.1,19.7-16.3,35.5-36.2,35.4c-19.9-0.1-35.7-16.2-35.6-36.4
	C284.3,180.2,300.5,164.4,320.5,164.5z"/>
</svg>
