<?xml version="1.0" encoding="utf-8"?>
<!-- Generator: Adobe Illustrator 26.0.0, SVG Export Plug-In . SVG Version: 6.00 Build 0)  -->
<svg version="1.1" id="Capa_1" xmlns="http://www.w3.org/2000/svg" xmlns:xlink="http://www.w3.org/1999/xlink" x="0px" y="0px"
	 viewBox="0 0 141.7 141.7" style="enable-background:new 0 0 141.7 141.7;" xml:space="preserve">
<style type="text/css">
	.st0{fill:#F9F9F9;}
</style>
<path class="st0" d="M71.2,10.2c2.4,0.6,4.9,0.9,7.2,1.7c12.6,4.6,20.1,13.6,21.8,26.9c2.2,16.7-9.2,32.2-25.8,35.6
	c-17,3.5-34.4-7.8-38-24.9c-3.8-17.9,7.4-35,25.4-38.8c1-0.2,2.1-0.4,3.2-0.6C67,10.2,69.1,10.2,71.2,10.2z"/>
<path class="st0" d="M68.1,133.2c-16.6,0-33.2,0-49.8,0c-2.9,0-4.2-1.3-4.2-4.3c0.1-21.2,15.3-40.6,35.8-45.3
	c3.6-0.8,7.3-1.1,10.9-1.3c5-0.2,10-0.1,15,0c13,0.2,23.9,5.1,32.9,14.3c7,7.1,11.2,15.7,12.8,25.5c0.4,2.3,0.5,4.6,0.5,6.9
	c0.1,2.8-1.3,4.1-4.1,4.1C101.4,133.2,84.7,133.2,68.1,133.2z"/>
</svg>
